{
.appVersion = "3227";
.formatVersion = 3;
classes = (
{
automatic = 1;
code = "A Aacute Abreve Abreveacute Abrevedotbelow Abrevegrave Abrevehookabove Abrevetilde Acircumflex Acircumflexacute Acircumflexdotbelow Acircumflexgrave Acircumflexhookabove Acircumflextilde Adblgrave Adieresis Adotbelow Agrave Ahookabove Ainvertedbreve Amacron Aogonek Aring Aringacute Atilde AE AEacute B C Cacute Ccaron Ccedilla Ccircumflex Cdotaccent D DZcaron Dcaron Dcroat Dzcaron Eth E Eacute Ebreve Ecaron Ecircumflex Ecircumflexacute Ecircumflexdotbelow Ecircumflexgrave Ecircumflexhookabove Ecircumflextilde Edblgrave Edieresis Edotaccent Edotbelow Egrave Ehookabove Einvertedbreve Emacron Eogonek Etilde Schwa F G Gbreve Gcaron Gcircumflex Gcommaaccent Gdotaccent H Hbar Hcircumflex I IJ Iacute Ibreve Icircumflex Idblgrave Idieresis Idotaccent Idotbelow Igrave Ihookabove Iinvertedbreve Imacron Iogonek Itilde J Jcircumflex K Kcommaaccent L LJ Lacute Lcaron Lcommaaccent Ldot Lj Lslash M N NJ Nacute Ncaron Ncommaaccent Nj Ntilde Eng O Oacute Obreve Ocircumflex Ocircumflexacute Ocircumflexdotbelow Ocircumflexgrave Ocircumflexhookabove Ocircumflextilde Odblgrave Odieresis Odieresismacron Odotaccentmacron Odotbelow Ograve Ohookabove Ohorn Ohornacute Ohorndotbelow Ohorngrave Ohornhookabove Ohorntilde Ohungarumlaut Oinvertedbreve Omacron Oogonek Oslash Oslashacute Otilde Otildemacron OE P Thorn Q R Racute Rcaron Rcommaaccent Rdblgrave Rinvertedbreve S Sacute Scaron Scedilla Scircumflex Scommaaccent Germandbls T Tbar Tcaron Tcedilla Tcommaaccent U Uacute Ubreve Ucircumflex Udblgrave Udieresis Udotbelow Ugrave Uhookabove Uhorn Uhornacute Uhorndotbelow Uhorngrave Uhornhookabove Uhorntilde Uhungarumlaut Uinvertedbreve Umacron Uogonek Uring Utilde V W Wacute Wcircumflex Wdieresis Wgrave X Y Yacute Ycircumflex Ydieresis Ydotbelow Ygrave Yhookabove Ymacron Ytilde Z Zacute Zcaron Zdotaccent";
name = Uppercase;
}
);
customParameters = (
{
name = unicodeRanges;
value = (
0,
1,
2
);
},
{
name = fsType;

glyphs = (
{
color = 4;
glyphname = A;
kernLeft = A;
kernRight = A;
lastChange = "2023-04-27 14:39:50 +0000";
layers = (
{
anchors = (
{
name = bottom;
pos = (296,-35);
},
{
name = ogonek;
pos = (437,10);
},
{
name = top.case;
pos = (362,740);
}
);
background = {
shapes = (
{
closed = 1;
nodes = (
(388,604,o),
(287,709,o),
(254,634,cs),
(173,449,o),
(101,265,o),
(60,142,cs),
(18,15,o),
(71,-43,o),
(132,-43,cs),
(157,-43,o),
(139,-29,o),
(156,24,cs),
(205,176,o),
(282,359,o),
(358,534,cs)
);
},
{
closed = 1;
nodes = (
(300,459,o),
(338,294,o),
(372,101,cs),
(388,12,o),
(440,-14,o),
(485,-14,cs),
(509,-14,o),
(533,2,o),
(525,16,cs),
(500,60,o),
(449,463,o),
(443,617,cs),
(441,680,o),
(414,728,o),
(327,728,cs),
(292,728,o),
(286,720,o),
(288,680,cs)
);
},
{
closed = 1;
nodes = (
(470,136,ls),
(510,142,o),
(559,125,o),
(559,161,cs),
(559,214,o),
(479,250,o),
(438,244,cs),
(84,194,ls),
(33,187,o),
(17,181,o),
(16,171,cs),
(16,139,o),
(59,73,o),
(126,83,cs)
);
}
);
};
hints = (
{
horizontal = 1;
place = (-14,21);
target = up;
type = BottomGhost;
},
{
horizontal = 1;
place = (728,-20);
target = down;
type = TopGhost;
}
);
layerId = "053302AA-4A2A-42DC-B919-9CC4D126D2B5";
shapes = (
{
closed = 1;
nodes = (
(347,511,o),
(349,520,o),
(349,530,cs),
(349,577,o),
(306,628,o),
(272,628,cs),
(259,628,o),
(247,620,o),
(239,602,cs),
(158,417,o),
(101,265,o),
(60,142,cs),
(50,110,o),
(45,83,o),
(45,60,cs),
(45,-10,o),
(86,-43,o),
(132,-43,cs),
(157,-43,o),
(139,-29,o),
(156,24,cs),
(205,176,o),
(267,327,o),
(343,502,cs)
);
},
{
closed = 1;
nodes = (
(299,459,o),
(335,294,o),
(368,101,cs),
(383,12,o),
(420,-14,o),
(465,-14,cs),
(489,-14,o),
(513,2,o),
(505,16,cs),
(480,60,o),
(429,463,o),
(424,604,cs),
(421,679,o),
(363,726,o),
(323,726,cs),
(301,726,o),
(285,712,o),
(287,680,cs)
);
},
{
closed = 1;
nodes = (
(470,136,ls),
(479,137,o),
(487,137,o),
(496,137,cs),
(504,137,o),
(513,137,o),
(520,137,cs),
(542,137,o),
(559,140,o),
(559,161,cs),
(559,210,o),
(490,245,o),
(448,245,cs),
(444,245,o),
(441,244,o),
(438,244,cs),
(84,194,ls),
(33,187,o),
(17,181,o),
(16,171,cs),
(16,141,o),
(53,82,o),
(112,82,cs),
(117,82,o),
(121,82,o),
(126,83,cs)
);
}
);
width = 590;
},
{
associatedMasterId = "053302AA-4A2A-42DC-B919-9CC4D126D2B5";
background = {
shapes = (
{
closed = 1;
nodes = (
(489,193,l),
(546,205,o),
(565,213,o),
(565,223,cs),
(564,241,o),
(503,290,o),
(465,307,c),
(407,579,ls),
(388,667,o),
(357,728,o),
(261,728,cs),
(236,728,o),
(222,724,o),
(213,710,c),
(221,681,o),
(228,660,o),
(237,633,c),
(182,511,o),
(112,346,o),
(63,235,c),
(21,230,o),
(-4,214,o),
(-4,206,cs),
(-4,196,o),
(10,173,o),
(28,155,c),
(-15,57,ls),
(-34,15,o),
(21,-14,o),
(82,-14,cs),
(105,-14,o),
(127,-3,o),
(136,20,cs),
(179,129,l),
(338,162,l),
(360,51,ls),
(368,13,o),
(445,-14,o),
(490,-14,cs),
(514,-14,o),
(531,1,o),
(528,16,cs)
);
},
{
closed = 1;
nodes = (
(295,455,l),
(297,455,l),
(316,288,l),
(231,270,l)
);
}
);
};
hints = (
{
horizontal = 1;
place = (-14,21);
target = up;
type = BottomGhost;
},
{
horizontal = 1;
place = (728,-20);
target = down;
type = TopGhost;
}
);
layerId = "EA1561C9-D81A-4638-BF1F-74A0B01A045B";
name = "Mar 23 20, 17:59";
shapes = (
{
closed = 1;
nodes = (
(489,193,l),
(546,205,o),
(565,213,o),
(565,223,cs),
(564,241,o),
(503,290,o),
(465,307,c),
(407,579,ls),
(388,667,o),
(357,728,o),
(261,728,cs),
(236,728,o),
(222,724,o),
(213,710,c),
(221,681,o),
(228,660,o),
(237,633,c),
(182,511,o),
(112,346,o),
(63,235,c),
(21,230,o),
(-4,214,o),
(-4,206,cs),
(-4,196,o),
(10,173,o),
(28,155,c),
(-15,57,ls),
(-34,15,o),
(21,-14,o),
(82,-14,cs),
(105,-14,o),
(127,-3,o),
(136,20,cs),
(179,129,l),
(338,162,l),
(360,51,ls),
(368,13,o),
(445,-14,o),
(490,-14,cs),
(514,-14,o),
(531,1,o),
(528,16,cs)
);
},
{
closed = 1;
nodes = (
(295,455,l),
(297,455,l),
(316,288,l),
(231,270,l)
);
}
);
width = 570;
}
);
note = A;
unicode = 65;
},
{
color = 4;
glyphname = AE;
kernLeft = A;
kernRight = E;
lastChange = "2023-04-27 14:59:30 +0000";
layers = (
{
anchors = (
{
name = top.case;
pos = (458,740);
}
);
background = {
shapes = (
{
closed = 1;
nodes = (
(291,310,l),
(352,460,l),
(341,320,l)
);
},
{
closed = 1;
nodes = (
(514,599,l),
(526,600,o),
(617,615,o),
(696,615,cs),
(707,615,o),
(717,614,o),
(729,614,cs),
(736,614,o),
(739,617,o),
(739,624,cs),
(739,677,o),
(644,732,o),
(573,732,cs),
(519,732,o),
(390,715,o),
(352,715,cs),
(302,715,o),
(259,720,o),
(297,637,c),
(270,583,o),
(204,462,o),
(113,273,c),
(56,262,o),
(25,247,o),
(25,237,cs),
(25,224,o),
(44,195,o),
(66,173,c),
(54,139,o),
(26,104,o),
(26,70,cs),
(26,28,o),
(54,-14,o),
(108,-14,cs),
(130,-14,o),
(150,-3,o),
(160,20,cs),
(226,166,l),
(332,188,l),
(329,130,ls),
(325,44,o),
(410,-14,o),
(483,-14,c),
(723,87,ls),
(733,91,o),
(735,95,o),
(735,105,cs),
(735,135,o),
(666,179,o),
(627,179,cs),
(587,179,o),
(536,156,o),
(483,121,c),
(496,316,l),
(566,323,o),
(673,332,o),
(673,352,cs),
(673,385,o),
(599,439,o),
(566,439,cs),
(553,439,o),
(528,436,o),
(504,432,c)
);
}
);
};
hints = (
{
horizontal = 1;
place = (-14,21);
target = up;
type = BottomGhost;
},
{
horizontal = 1;
place = (615,117);
type = Stem;
},
{
place = (346,163);
type = Stem;
}
);
layerId = "053302AA-4A2A-42DC-B919-9CC4D126D2B5";
shapes = (
{
closed = 1;
nodes = (
(285,310,l),
(350,526,l),
(359,526,l),
(343,320,l)
);
},
{
closed = 1;
nodes = (
(516,599,l),
(528,600,o),
(619,615,o),
(698,615,cs),
(709,615,o),
(719,614,o),
(731,614,cs),
(738,614,o),
(741,617,o),
(741,624,cs),
(741,677,o),
(646,732,o),
(575,732,cs),
(521,732,o),
(392,715,o),
(354,715,cs),
(314,715,o),
(258,718,o),
(258,676,cs),
(258,666,o),
(262,653,o),
(269,637,c),
(242,583,o),
(196,462,o),
(115,273,c),
(58,262,o),
(27,247,o),
(27,237,cs),
(27,224,o),
(46,195,o),
(68,173,c),
(51,144,o),
(28,108,o),
(28,74,cs),
(28,32,o),
(56,-14,o),
(110,-14,cs),
(150,-14,o),
(142,2,o),
(169,53,cs),
(228,166,l),
(334,188,l),
(331,130,ls),
(329,86,o),
(341,51,o),
(384,31,c),
(407,0,o),
(449,-14,o),
(485,-14,c),
(725,87,ls),
(735,91,o),
(737,95,o),
(737,105,cs),
(737,135,o),
(668,179,o),
(629,179,cs),
(589,179,o),
(538,156,o),
(485,121,c),
(498,316,l),
(568,323,o),
(675,332,o),
(675,352,cs),
(675,385,o),
(601,439,o),
(568,439,cs),
(555,439,o),
(530,436,o),
(506,432,c)
);
}
);
width = 753;
}
);
metricRight = E;
note = AE;
unicode = 198;
},
{
color = 4;
glyphname = B;
kernLeft = B;
lastChange = "2023-04-27 15:02:32 +0000";
layers = (
{
background = {
shapes = (
{
closed = 1;
nodes = (
(187,602,o),
(311,614,o),
(353,614,c),
(399,563,o),
(358,446,o),
(202,309,c),
(202,214,l),
(306,216,o),
(361,196,o),
(361,173,cs),
(361,148,o),
(313,117,o),
(208,99,c),
(236,478,ls),
(244,588,o),
(229,640,o),
(157,651,c),
(95,677,l),
(58,139,ls),
(55,94,o),
(73,58,o),
(116,42,c),
(137,-2,o),
(183,-9,o),
(222,-9,cs),
(317,-9,o),
(514,81,o),
(514,171,cs),
(514,239,o),
(437,294,o),
(263,294,c),
(277,251,l),
(472,363,o),
(517,476,o),
(517,551,cs),
(517,638,o),
(401,733,o),
(251,733,cs),
(188,733,o),
(113,721,o),
(58,721,cs),
(49,721,o),
(39,717,o),
(39,705,cs),
(39,668,o),
(109,602,o),
(151,602,cs)
);
}
);
};
hints = (
{
horizontal = 1;
place = (-9,21);
target = up;
type = BottomGhost;
},
{
horizontal = 1;
place = (614,119);
type = Stem;
},
{
place = (75,162);
type = Stem;
},
{
place = (356,158);
type = Stem;
}
);
layerId = "053302AA-4A2A-42DC-B919-9CC4D126D2B5";
shapes = (
{
closed = 1;
nodes = (
(187,602,o),
(301,614,o),
(343,614,c),
(357,600,o),
(365,580,o),
(365,557,cs),
(365,496,o),
(315,408,o),
(202,309,c),
(202,214,l),
(306,216,o),
(361,196,o),
(361,173,cs),
(361,148,o),
(313,117,o),
(208,99,c),
(236,478,ls),
(237,495,o),
(238,511,o),
(238,525,cs),
(238,603,o),
(218,642,o),
(157,651,c),
(95,677,l),
(58,139,ls),
(55,94,o),
(73,58,o),
(116,42,c),
(137,-2,o),
(183,-9,o),
(222,-9,cs),
(317,-9,o),
(514,81,o),
(514,171,cs),
(514,239,o),
(437,294,o),
(263,294,c),
(277,251,l),
(472,363,o),
(517,476,o),
(517,551,cs),
(517,638,o),
(401,733,o),
(251,733,cs),
(188,733,o),
(113,721,o),
(58,721,cs),
(49,721,o),
(39,717,o),
(39,705,cs),
(39,668,o),
(109,602,o),
(151,602,cs)
);
}
);
width = 558;
}
);
note = B;
unicode = 66;
},
{
color = 4;
glyphname = C;
kernLeft = C;
kernRight = C;
lastChange = "2023-04-27 15:02:43 +0000";
layers = (
{
anchors = (
{
name = bottom;
pos = (276,-35);
},
{
name = cedilla;
pos = (252,10);
},
{
name = top.case;
pos = (338,740);
}
);
background = {
shapes = (
{
closed = 1;
nodes = (
(338,115,o),
(180,128,c),
(180,346,o),
(270,628,o),
(363,609,c),
(338,573,o),
(331,513,o),
(329,491,cs),
(327,462,o),
(389,388,o),
(422,388,cs),
(437,388,o),
(440,396,o),
(446,410,cs),
(466,466,o),
(496,526,o),
(498,570,cs),
(501,617,o),
(481,668,o),
(428,686,c),
(401,724,o),
(370,730,o),
(326,730,cs),
(143,730,o),
(27,428,o),
(27,215,cs),
(27,141,o),
(46,85,o),
(82,61,c),
(116,-4,o),
(194,-13,o),
(250,-13,cs),
(371,-13,o),
(464,86,o),
(470,205,cs),
(472,248,o),
(463,283,o),
(432,283,cs),
(402,283,o)
);
}
);
};
hints = (
{
horizontal = 1;
place = (-14,21);
target = up;
type = BottomGhost;
},
{
horizontal = 1;
place = (728,-20);
target = down;
type = TopGhost;
},
{
place = (23,157);
type = Stem;
}
);
layerId = "053302AA-4A2A-42DC-B919-9CC4D126D2B5";
shapes = (
{
closed = 1;
nodes = (
(314,128,o),
(180,128,c),
(180,346,o),
(262,605,o),
(369,621,c),
(344,585,o),
(329,526,o),
(329,491,cs),
(329,444,o),
(376,388,o),
(422,388,cs),
(437,388,o),
(440,396,o),
(446,410,cs),
(466,466,o),
(496,526,o),
(498,570,cs),
(501,617,o),
(481,668,o),
(428,686,c),
(401,724,o),
(370,730,o),
(326,730,cs),
(143,730,o),
(27,428,o),
(27,215,cs),
(27,141,o),
(46,85,o),
(82,61,c),
(116,-4,o),
(194,-13,o),
(250,-13,cs),
(374,-13,o),
(473,97,o),
(473,220,cs),
(473,257,o),
(461,278,o),
(432,283,c),
(385,221,o)
);
}
);
width = 502;
},
{
anchors = (
{
name = bottom;
pos = (276,-35);
},
{
name = cedilla;
pos = (252,10);
},
{
name = top.case;
pos = (338,740);
}
);
associatedMasterId = "053302AA-4A2A-42DC-B919-9CC4D126D2B5";
background = {
shapes = (
{
closed = 1;
nodes = (
(183,303,o),
(228,464,o),
(302,583,c),
(304,583,l),
(327,510,ls),
(336,483,o),
(386,462,o),
(426,462,cs),
(451,462,o),
(474,470,o),
(482,487,c),
(482,569,o),
(408,728,o),
(328,728,cs),
(106,728,o),
(23,347,o),
(23,135,cs),
(23,44,o),
(101,-14,o),
(177,-14,c),
(475,119,ls),
(485,123,o),
(487,127,o),
(487,137,cs),
(487,156,o),
(420,211,o),
(381,211,cs),
(305,211,o),
(234,165,o),
(180,126,c)
);
}
);
};
hints = (
{
horizontal = 1;
place = (-14,21);
target = up;
type = BottomGhost;
},
{
horizontal = 1;
place = (728,-20);
target = down;
type = TopGhost;
},
{
place = (23,157);
type = Stem;
}
);
layerId = "3FF2D263-F4F1-4D23-8219-88665CED32BB";
name = "Apr 16 20, 18:07";
shapes = (
{
closed = 1;
nodes = (
(106,728,o),
(23,347,o),
(23,135,cs),
(23,44,o),
(101,-14,o),
(177,-14,c),
(475,119,ls),
(485,123,o),
(487,127,o),
(487,137,cs),
(487,156,o),
(420,211,o),
(381,211,cs),
(305,211,o),
(234,165,o),
(180,126,c),
(183,303,o),
(227,464,o),
(326,617,cs),
(335,617,o),
(336,611,o),
(336,602,cs),
(336,579,o),
(328,528,o),
(328,480,cs),
(328,453,o),
(410,393,o),
(443,393,cs),
(457,393,o),
(464,402,o),
(464,414,cs),
(464,473,o),
(470,523,o),
(470,576,cs),
(470,631,o),
(393,727,o),
(310,727,cs)
);
}
);
width = 502;
},
{
anchors = (
{
name = bottom;
pos = (276,-35);
},
{
name = cedilla;
pos = (252,10);
},
{
name = top.case;
pos = (338,740);
}
);
associatedMasterId = "053302AA-4A2A-42DC-B919-9CC4D126D2B5";
background = {
shapes = (
{
closed = 1;
nodes = (
(183,303,o),
(230,464,o),
(316,583,c),
(318,583,l),
(341,510,ls),
(350,483,o),
(400,462,o),
(440,462,cs),
(465,462,o),
(488,470,o),
(496,487,c),
(496,569,o),
(422,728,o),
(342,728,cs),
(120,728,o),
(23,347,o),
(23,135,cs),
(23,44,o),
(101,-14,o),
(177,-14,c),
(475,119,ls),
(485,123,o),
(487,127,o),
(487,137,cs),
(487,156,o),
(420,211,o),
(381,211,cs),
(305,211,o),
(234,165,o),
(180,126,c)
);
}
);
};
hints = (
{
horizontal = 1;
place = (-14,21);
target = up;
type = BottomGhost;
},
{
horizontal = 1;
place = (728,-20);
target = down;
type = TopGhost;
},
{
place = (23,157);
type = Stem;
}
);
layerId = "287FA8E5-8148-4FC0-B6ED-72FC7ACA7764";
name = "Jun 2 20, 19:18";
shapes = (
{
closed = 1;
nodes = (
(183,303,o),
(228,464,o),
(302,583,c),
(304,583,l),
(327,510,ls),
(336,483,o),
(386,462,o),
(426,462,cs),
(451,462,o),
(474,470,o),
(482,487,c),
(482,569,o),
(408,728,o),
(328,728,cs),
(106,728,o),
(23,347,o),
(23,135,cs),
(23,44,o),
(101,-14,o),
(177,-14,c),
(475,119,ls),
(485,123,o),
(487,127,o),
(487,137,cs),
(487,156,o),
(420,211,o),
(381,211,cs),
(305,211,o),
(234,165,o),
(180,126,c)
);
}
);
width = 502;
}
);
note = C;
unicode = 67;
},
{
color = 4;
glyphname = D;
kernLeft = B;
kernRight = D;
lastChange = "2023-04-27 15:23:50 +0000";
layers = (
{
anchors = (
{
name = top.case;
pos = (292,740);
}
);
background = {
shapes = (
{
closed = 1;
nodes = (
(192,589,cs),
(226,589,o),
(319,597,o),
(382,597,c),
(493,472,o),
(334,211,o),
(177,88,c),
(201,85,l),
(226,410,ls),
(238,565,o),
(192,644,o),
(91,658,c),
(54,139,ls),
(51,94,o),
(72,67,o),
(118,40,c),
(134,-2,o),
(169,-14,o),
(208,-14,cs),
(291,-14,o),
(575,269,o),
(575,506,cs),
(575,600,o),
(454,723,o),
(298,723,cs),
(251,723,o),
(119,715,o),
(54,715,cs),
(45,715,o),
(35,711,o),
(35,699,cs),
(35,646,o),
(141,589,o)
);
}
);
};
hints = (
{
horizontal = 1;
place = (-14,21);
target = up;
type = BottomGhost;
},
{
horizontal = 1;
place = (600,123);
type = Stem;
},
{
place = (71,151);
type = Stem;
},
{
place = (410,165);
type = Stem;
}
);
layerId = "053302AA-4A2A-42DC-B919-9CC4D126D2B5";
shapes = (
{
closed = 1;
nodes = (
(192,589,cs),
(226,589,o),
(307,597,o),
(370,597,c),
(401,573,o),
(414,537,o),
(414,494,cs),
(414,365,o),
(296,175,o),
(177,88,c),
(201,85,l),
(226,410,ls),
(227,426,o),
(228,441,o),
(228,456,cs),
(228,581,o),
(182,645,o),
(91,658,c),
(54,139,ls),
(51,94,o),
(72,67,o),
(118,40,c),
(134,-2,o),
(169,-14,o),
(208,-14,cs),
(291,-14,o),
(575,269,o),
(575,506,cs),
(575,590,o),
(494,723,o),
(272,723,cs),
(225,723,o),
(119,715,o),
(54,715,cs),
(45,715,o),
(35,711,o),
(35,699,cs),
(35,646,o),
(141,589,o)
);
}
);
width = 590;
}
);
note = D;
unicode = 68;
},
{
color = 4;
glyphname = Eth;
kernLeft = Dcroat;
kernRight = D;
lastChange = "2023-04-27 15:23:43 +0000";
layers = (
{
background = {
shapes = (
{
closed = 1;
nodes = (
(91,522,l),
(88,479,l),
(241,495,l),
(244,529,l)
);
},
{
closed = 1;
nodes = (
(70,228,l),
(64,139,ls),
(58,52,o),
(137,-14,o),
(218,-14,c),
(352,42,o),
(585,231,o),
(585,496,cs),
(585,660,o),
(461,723,o),
(300,723,cs),
(233,723,o),
(129,715,o),
(64,715,cs),
(55,715,o),
(45,711,o),
(45,699,cs),
(45,678,o),
(74,642,o),
(98,624,c),
(91,522,l),
(244,529,l),
(248,583,l),
(274,593,o),
(302,600,o),
(329,600,cs),
(378,600,o),
(420,573,o),
(420,523,cs),
(420,380,o),
(342,221,o),
(216,151,c),
(223,250,l)
);
},
{
closed = 1;
nodes = (
(226,287,l),
(230,338,l),
(324,345,ls),
(350,347,o),
(368,357,o),
(368,366,cs),
(368,396,o),
(321,465,o),
(279,460,cs),
(238,455,l),
(241,495,l),
(88,479,l),
(85,435,l),
(63,433,ls),
(15,427,o),
(-2,412,o),
(-2,400,cs),
(-2,383,o),
(30,340,o),
(59,327,c),
(77,328,l),
(73,275,l)
);
}
);
};
hints = (
{
horizontal = 1;
place = (-14,21);
target = up;
type = BottomGhost;
},
{
horizontal = 1;
place = (327,21);
target = up;
type = BottomGhost;
},
{
horizontal = 1;
place = (600,123);
type = Stem;
},
{
place = (61,151);
type = Stem;
},
{
place = (400,165);
type = Stem;
},
{
horizontal = 1;
place = (336,124);
type = Stem;
}
);
layerId = "053302AA-4A2A-42DC-B919-9CC4D126D2B5";
shapes = (
{
closed = 1;
nodes = (
(324,365,ls),
(350,367,o),
(368,377,o),
(368,386,cs),
(368,416,o),
(321,485,o),
(279,480,cs),
(65,453,ls),
(17,447,o),
(0,432,o),
(0,420,cs),
(0,403,o),
(32,360,o),
(61,347,c)
);
},
{
pos = (10,0);
ref = D;
}
);
width = 600;
}
);
metricRight = D;
note = Eth;
unicode = 208;
},
{
color = 4;
glyphname = E;
kernLeft = B;
kernRight = E;
lastChange = "2023-04-27 15:36:44 +0000";
layers = (
{
anchors = (
{
name = bottom;
pos = (261,-35);
},
{
name = ogonek;
pos = (343,60);
},
{
name = top.case;
pos = (259,740);
}
);
background = {
shapes = (
{
closed = 1;
nodes = (
(110,660,l),
(74,139,l),
(67,48,o),
(152,-14,o),
(228,-14,c),
(468,87,ls),
(478,91,o),
(480,95,o),
(480,105,cs),
(480,135,o),
(411,179,o),
(372,179,cs),
(321,179,o),
(251,141,o),
(183,89,c),
(224,55,l),
(262,653,l)
);
},
{
closed = 1;
nodes = (
(350,329,ls),
(401,335,o),
(418,341,o),
(419,351,cs),
(419,382,o),
(347,445,o),
(301,439,cs),
(115,416,ls),
(64,410,o),
(47,403,o),
(46,393,cs),
(45,361,o),
(110,298,o),
(177,307,cs)
);
},
{
closed = 1;
nodes = (
(202,589,o),
(337,615,o),
(441,615,cs),
(452,615,o),
(462,614,o),
(474,614,cs),
(481,614,o),
(484,617,o),
(484,624,cs),
(484,677,o),
(389,732,o),
(318,732,cs),
(264,732,o),
(112,715,o),
(74,715,cs),
(61,715,o),
(55,709,o),
(55,699,cs),
(55,664,o),
(132,589,o),
(162,589,cs)
);
}
);
};
hints = (
{
horizontal = 1;
place = (-14,21);
target = up;
type = BottomGhost;
},
{
horizontal = 1;
place = (615,117);
type = Stem;
},
{
place = (101,153);
type = Stem;
}
);
layerId = "053302AA-4A2A-42DC-B919-9CC4D126D2B5";
shapes = (
{
closed = 1;
nodes = (
(110,660,l),
(88,486,o),
(86,313,o),
(74,139,cs),
(71,92,o),
(87,51,o),
(126,34,c),
(145,0,o),
(191,-14,o),
(228,-14,c),
(468,87,ls),
(478,91,o),
(480,95,o),
(480,105,cs),
(480,135,o),
(411,179,o),
(372,179,cs),
(321,179,o),
(251,141,o),
(183,89,c),
(224,55,l),
(227,256,o),
(238,456,o),
(262,653,c)
);
},
{
closed = 1;
nodes = (
(202,589,o),
(337,615,o),
(441,615,cs),
(452,615,o),
(462,614,o),
(474,614,cs),
(481,614,o),
(484,617,o),
(484,624,cs),
(484,677,o),
(433,732,o),
(318,732,cs),
(264,732,o),
(112,715,o),
(74,715,cs),
(61,715,o),
(55,709,o),
(55,699,cs),
(55,664,o),
(132,589,o),
(162,589,cs)
);
},
{
closed = 1;
nodes = (
(260,310,o),
(362,331,o),
(406,331,cs),
(431,331,o),
(443,335,o),
(443,359,cs),
(443,391,o),
(363,443,o),
(323,443,cs),
(272,443,o),
(213,434,o),
(123,418,cs),
(106,415,o),
(101,407,o),
(101,391,cs),
(101,366,o),
(157,310,o),
(200,310,cs)
);
}
);
width = 496;
}
);
note = E;
unicode = 69;
},
{
color = 4;
glyphname = Emacron;
kernLeft = B;
kernRight = E;
lastChange = "2023-04-27 15:36:44 +0000";
layers = (
{
hints = (
{
horizontal = 1;
place = (-14,21);
target = up;
type = BottomGhost;
},
{
horizontal = 1;
place = (615,117);
type = Stem;
},
{
place = (101,153);
type = Stem;
},
{
horizontal = 1;
place = (810,124);
type = Stem;
},
{
horizontal = 1;
place = (801,21);
target = up;
type = BottomGhost;
}
);
layerId = "053302AA-4A2A-42DC-B919-9CC4D126D2B5";
shapes = (
{
closed = 1;
nodes = (
(468,87,ls),
(478,91,o),
(480,95,o),
(480,105,cs),
(480,135,o),
(411,179,o),
(372,179,cs),
(332,179,o),
(281,156,o),
(228,121,c),
(244,311,l),
(314,317,o),
(420,332,o),
(420,352,cs),
(420,382,o),
(334,437,o),
(307,437,cs),
(294,437,o),
(273,435,o),
(250,431,c),
(259,599,l),
(271,600,o),
(362,615,o),
(441,615,cs),
(452,615,o),
(462,614,o),
(474,614,cs),
(481,614,o),
(484,617,o),
(484,624,cs),
(484,677,o),
(389,732,o),
(318,732,cs),
(264,732,o),
(112,715,o),
(74,715,cs),
(61,715,o),
(55,709,o),
(55,699,cs),
(55,678,o),
(84,642,o),
(108,624,c),
(94,414,l),
(62,408,o),
(39,401,o),
(39,390,cs),
(39,375,o),
(62,351,o),
(88,331,c),
(74,139,ls),
(68,48,o),
(152,-14,o),
(228,-14,c)
);
},
{
closed = 1;
nodes = (
(392,819,ls),
(418,821,o),
(436,831,o),
(436,840,cs),
(436,870,o),
(389,934,o),
(347,934,c),
(165,907,ls),
(117,900,o),
(100,886,o),
(100,874,cs),
(100,857,o),
(132,814,o),
(161,801,c)
);
}
);
width = 496;
}
);
note = Emacron;
unicode = 274;
},
{
color = 4;
glyphname = Schwa;
lastChange = "2023-04-27 15:46:43 +0000";
layers = (
{
background = {
shapes = (
{
pos = (-13,0);
ref = O;
}
);
};
layerId = "053302AA-4A2A-42DC-B919-9CC4D126D2B5";
shapes = (
{
closed = 1;
nodes = (
(299,597,cs),
(352,597,o),
(386,573,o),
(386,484,cs),
(386,324,o),
(331,95,o),
(228,95,cs),
(204,95,o),
(184,122,o),
(184,141,cs),
(184,232,o),
(311,383,o),
(397,383,cs),
(424,383,o),
(435,394,o),
(435,409,cs),
(435,442,o),
(382,497,o),
(345,497,cs),
(211,497,o),
(48,318,o),
(42,219,cs),
(35,125,o),
(153,-13,o),
(255,-13,cs),
(471,-13,o),
(545,244,o),
(545,448,cs),
(545,582,o),
(440,727,o),
(317,727,cs),
(170,727,o),
(23,631,o),
(23,569,cs),
(23,519,o),
(43,488,o),
(82,465,c),
(164,551,o),
(236,597,o)
);
}
);
width = 573;
}
);
metricRight = O;
unicode = 399;
},
{
color = 4;
glyphname = F;
kernLeft = B;
lastChange = "2023-04-27 15:46:43 +0000";
layers = (
{
background = {
shapes = (
{
closed = 1;
nodes = (
(117,632,l),
(87,182,ls),
(76,13,o),
(154,-14,o),
(199,-14,cs),
(211,-14,o),
(219,-11,o),
(221,1,cs),
(270,632,l)
);
},
{
closed = 1;
nodes = (
(359,329,ls),
(410,336,o),
(427,341,o),
(428,351,cs),
(428,382,o),
(356,445,o),
(310,439,cs),
(115,412,ls),
(64,405,o),
(47,399,o),
(46,389,cs),
(45,357,o),
(110,293,o),
(177,303,cs)
);
},
{
closed = 1;
nodes = (
(205,589,o),
(346,615,o),
(450,615,cs),
(461,615,o),
(471,614,o),
(483,614,cs),
(490,614,o),
(493,617,o),
(493,624,cs),
(493,677,o),
(398,732,o),
(327,732,cs),
(273,732,o),
(121,716,o),
(83,716,cs),
(70,716,o),
(64,710,o),
(64,700,cs),
(64,665,o),
(135,589,o),
(165,589,cs)
);
}
);
};
hints = (
{
horizontal = 1;
place = (-14,21);
target = up;
type = BottomGhost;
},
{
horizontal = 1;
place = (599,133);
type = Stem;
},
{
place = (114,142);
type = Stem;
},
{
horizontal = 1;
place = (615,117);
type = Stem;
}
);
layerId = "053302AA-4A2A-42DC-B919-9CC4D126D2B5";
shapes = (
{
closed = 1;
nodes = (
(117,632,l),
(87,182,ls),
(86,171,o),
(86,161,o),
(86,151,cs),
(86,10,o),
(157,-14,o),
(199,-14,cs),
(211,-14,o),
(220,-11,o),
(221,1,cs),
(270,632,l)
);
},
{
closed = 1;
nodes = (
(205,589,o),
(346,615,o),
(450,615,cs),
(461,615,o),
(471,614,o),
(483,614,cs),
(490,614,o),
(493,617,o),
(493,624,cs),
(493,679,o),
(433,732,o),
(327,732,cs),
(273,732,o),
(121,716,o),
(83,716,cs),
(70,716,o),
(64,710,o),
(64,700,cs),
(64,665,o),
(135,589,o),
(165,589,cs)
);
},
{
closed = 1;
nodes = (
(240,310,o),
(342,331,o),
(386,331,cs),
(411,331,o),
(423,335,o),
(423,359,cs),
(423,391,o),
(343,443,o),
(303,443,cs),
(252,443,o),
(193,434,o),
(103,418,cs),
(86,415,o),
(81,407,o),
(81,391,cs),
(81,366,o),
(137,310,o),
(180,310,cs)
);
}
);
width = 474;
}
);
note = F;
unicode = 70;
},
{
color = 4;
glyphname = G;
kernLeft = C;
kernRight = G;
lastChange = "2023-04-27 15:46:43 +0000";
layers = (
{
anchors = (
{
name = bottom;
pos = (202,-55);
},
{
name = top.case;
pos = (327,740);
}
);
background = {
shapes = (
{
closed = 1;
nodes = (
(337,-5,ls),
(332,-108,o),
(382,-161,o),
(447,-161,cs),
(459,-161,o),
(469,-158,o),
(469,-146,cs),
(469,0,o),
(476,151,o),
(498,291,c),
(351,291,l)
);
},
{
closed = 1;
nodes = (
(250,-14,o),
(346,18,o),
(373,57,c),
(370,176,l),
(306,142,o),
(234,123,o),
(169,129,c),
(169,347,o),
(268,629,o),
(383,610,c),
(358,574,o),
(356,536,o),
(354,514,cs),
(352,485,o),
(414,411,o),
(447,411,cs),
(462,411,o),
(465,419,o),
(471,433,cs),
(491,489,o),
(516,527,o),
(518,571,cs),
(521,618,o),
(501,669,o),
(448,687,c),
(421,725,o),
(390,731,o),
(346,731,cs),
(153,731,o),
(33,429,o),
(33,216,cs),
(33,142,o),
(52,86,o),
(88,62,c),
(113,15,o),
(169,-14,o),
(225,-14,cs)
);
},
{
closed = 1;
nodes = (
(412,240,o),
(587,261,o),
(631,261,cs),
(656,261,o),
(668,265,o),
(668,289,cs),
(668,321,o),
(588,373,o),
(548,373,cs),
(497,373,o),
(365,364,o),
(275,348,cs),
(258,345,o),
(253,337,o),
(253,321,cs),
(253,296,o),
(309,240,o),
(352,240,cs)
);
}
);
};
hints = (
{
horizontal = 1;
place = (-161,21);
target = up;
type = BottomGhost;
},
{
horizontal = 1;
place = (-14,21);
target = up;
type = BottomGhost;
},
{
horizontal = 1;
place = (252,127);
type = Stem;
},
{
horizontal = 1;
place = (728,-20);
target = down;
type = TopGhost;
},
{
place = (6,163);
type = Stem;
},
{
place = (330,167);
type = Stem;
}
);
layerId = "053302AA-4A2A-42DC-B919-9CC4D126D2B5";
shapes = (
{
closed = 1;
nodes = (
(337,-5,ls),
(332,-108,o),
(382,-161,o),
(447,-161,cs),
(459,-161,o),
(469,-158,o),
(469,-146,cs),
(469,0,o),
(476,151,o),
(498,291,c),
(351,291,l)
);
},
{
closed = 1;
nodes = (
(250,-14,o),
(346,18,o),
(373,57,c),
(370,176,l),
(314,146,o),
(252,128,o),
(193,128,cs),
(185,128,o),
(177,128,o),
(169,129,c),
(169,347,o),
(267,624,o),
(390,616,c),
(366,578,o),
(354,536,o),
(354,514,cs),
(354,463,o),
(414,411,o),
(447,411,cs),
(462,411,o),
(465,419,o),
(471,433,cs),
(492,493,o),
(518,532,o),
(518,580,cs),
(518,624,o),
(498,670,o),
(448,687,c),
(421,725,o),
(390,731,o),
(346,731,cs),
(153,731,o),
(33,429,o),
(33,216,cs),
(33,142,o),
(52,86,o),
(88,62,c),
(113,15,o),
(169,-14,o),
(225,-14,cs)
);
},
{
closed = 1;
nodes = (
(412,240,o),
(572,261,o),
(631,261,cs),
(656,261,o),
(668,265,o),
(668,289,cs),
(668,321,o),
(588,373,o),
(535,373,cs),
(483,373,o),
(351,361,o),
(275,348,cs),
(258,345,o),
(253,337,o),
(253,321,cs),
(253,296,o),
(309,240,o),
(352,240,cs)
);
}
);
width = 547;
},
{
anchors = (
{
name = bottom;
pos = (202,-55);
},
{
name = top.case;
pos = (327,740);
}
);
associatedMasterId = "053302AA-4A2A-42DC-B919-9CC4D126D2B5";
background = {
shapes = (
{
closed = 1;
nodes = (
(326,-92,l),
(323,-141,o),
(408,-161,o),
(447,-161,cs),
(459,-161,o),
(467,-158,o),
(469,-146,cs),
(481,-47,o),
(491,164,o),
(498,291,c),
(343,291,l)
);
},
{
closed = 1;
nodes = (
(599,267,ls),
(650,272,o),
(667,279,o),
(668,289,cs),
(668,320,o),
(596,381,o),
(550,377,cs),
(285,353,ls),
(234,348,o),
(217,340,o),
(216,330,cs),
(215,298,o),
(280,238,o),
(347,244,cs)
);
},
{
closed = 1;
nodes = (
(353,207,l),
(290,185,o),
(215,151,o),
(169,129,c),
(173,313,o),
(210,466,o),
(297,589,c),
(325,508,ls),
(336,475,o),
(388,464,o),
(429,464,cs),
(453,464,o),
(479,467,o),
(479,487,cs),
(479,569,o),
(405,728,o),
(325,728,cs),
(103,728,o),
(6,351,o),
(6,139,cs),
(6,43,o),
(84,-14,o),
(150,-14,cs),
(187,-14,o),
(289,38,o),
(347,65,c)
);
}
);
};
hints = (
{
horizontal = 1;
place = (-161,21);
target = up;
type = BottomGhost;
},
{
horizontal = 1;
place = (-14,21);
target = up;
type = BottomGhost;
},
{
horizontal = 1;
place = (252,127);
type = Stem;
},
{
horizontal = 1;
place = (728,-20);
target = down;
type = TopGhost;
},
{
place = (6,163);
type = Stem;
},
{
place = (330,167);
type = Stem;
}
);
layerId = "F42320C1-B341-48E3-8487-B15C8066FE42";
name = "Apr 16 20, 18:09";
shapes = (
{
closed = 1;
nodes = (
(326,-92,l),
(323,-141,o),
(408,-161,o),
(447,-161,cs),
(459,-161,o),
(467,-158,o),
(469,-146,cs),
(481,-47,o),
(491,164,o),
(498,291,c),
(343,291,l)
);
},
{
closed = 1;
nodes = (
(599,267,ls),
(650,272,o),
(667,279,o),
(668,289,cs),
(668,320,o),
(596,381,o),
(550,377,cs),
(296,353,ls),
(245,348,o),
(228,340,o),
(227,330,cs),
(226,298,o),
(291,238,o),
(358,244,cs)
);
},
{
closed = 1;
nodes = (
(364,207,l),
(300,186,o),
(226,151,o),
(180,129,c),
(184,313,o),
(221,466,o),
(308,589,c),
(336,508,ls),
(347,475,o),
(399,464,o),
(440,464,cs),
(464,464,o),
(490,467,o),
(490,487,cs),
(490,569,o),
(416,728,o),
(336,728,cs),
(114,728,o),
(17,351,o),
(17,139,cs),
(17,43,o),
(95,-14,o),
(161,-14,cs),
(198,-14,o),
(300,38,o),
(358,65,c)
);
}
);
width = 547;
}
);
note = G;
unicode = 71;
},
{
color = 4;
glyphname = H;
kernLeft = H;
lastChange = "2023-04-28 09:52:01 +0000";
layers = (
{
anchors = (
{
name = top.case;
pos = (310,740);
}
);
background = {
shapes = (
{
closed = 1;
nodes = (
(210,24,o),
(205,44,o),
(208,92,cs),
(218,234,o),
(242,494,o),
(242,545,cs),
(242,698,o),
(172,728,o),
(125,728,cs),
(100,728,o),
(90,698,o),
(90,673,cs),
(87,497,o),
(69,320,o),
(58,144,c),
(52,5,o),
(149,-13,o),
(188,-13,cs),
(200,-13,o),
(210,-10,o),
(210,2,cs)
);
},
{
closed = 1;
nodes = (
(512,310,ls),
(563,314,o),
(580,322,o),
(581,332,cs),
(581,363,o),
(509,424,o),
(463,420,cs),
(65,386,ls),
(14,382,o),
(-3,373,o),
(-4,363,cs),
(-5,331,o),
(60,271,o),
(127,277,cs)
);
},
{
closed = 1;
nodes = (
(487,24,o),
(482,44,o),
(485,92,cs),
(495,234,o),
(519,494,o),
(519,597,cs),
(519,698,o),
(449,728,o),
(402,728,cs),
(377,728,o),
(367,698,o),
(367,673,cs),
(364,497,o),
(346,320,o),
(335,109,cs),
(329,5,o),
(426,-13,o),
(465,-13,cs),
(477,-13,o),
(487,-10,o),
(487,2,cs)
);
}
);
};
hints = (
{
horizontal = 1;
place = (-13,21);
target = up;
type = BottomGhost;
},
{
horizontal = 1;
place = (728,-20);
target = down;
type = TopGhost;
},
{
place = (77,154);
type = Stem;
},
{
place = (359,153);
type = Stem;
}
);
layerId = "053302AA-4A2A-42DC-B919-9CC4D126D2B5";
shapes = (
{
closed = 1;
nodes = (
(477,-13,o),
(487,-10,o),
(487,2,cs),
(487,19,o),
(484,35,o),
(484,63,cs),
(484,71,o),
(484,81,o),
(485,92,cs),
(495,234,o),
(519,494,o),
(519,597,cs),
(519,698,o),
(449,728,o),
(402,728,cs),
(377,728,o),
(367,698,o),
(367,673,cs),
(364,497,o),
(346,320,o),
(335,109,cs),
(329,5,o),
(426,-13,o),
(465,-13,cs)
);
},
{
closed = 1;
nodes = (
(200,-13,o),
(210,-10,o),
(210,2,cs),
(210,19,o),
(207,35,o),
(207,63,cs),
(207,71,o),
(207,81,o),
(208,92,cs),
(218,234,o),
(242,494,o),
(242,545,cs),
(242,698,o),
(172,728,o),
(125,728,cs),
(100,728,o),
(90,698,o),
(90,673,cs),
(87,497,o),
(69,320,o),
(58,144,c),
(52,5,o),
(149,-13,o),
(188,-13,cs)
);
},
{
closed = 1;
nodes = (
(168,271,o),
(496,310,o),
(540,310,cs),
(565,310,o),
(577,314,o),
(577,338,cs),
(577,370,o),
(497,422,o),
(457,422,cs),
(406,422,o),
(121,395,o),
(31,379,cs),
(14,376,o),
(9,368,o),
(9,352,cs),
(9,327,o),
(65,271,o),
(108,271,cs)
);
}
);
width = 580;
}
);
note = H;
unicode = 72;
},
{
color = 4;
glyphname = Hbar;
kernLeft = H;
lastChange = "2023-04-28 09:52:10 +0000";
layers = (
{
background = {
shapes = (
{
closed = 1;
nodes = (
(585,345,o),
(543,392,o),
(512,411,c),
(516,492,l),
(535,493,l),
(558,498,o),
(579,505,o),
(579,514,cs),
(579,530,o),
(548,569,o),
(521,592,c),
(522,616,o),
(523,631,o),
(523,634,cs),
(523,698,o),
(453,728,o),
(406,728,cs),
(388,728,o),
(374,723,o),
(371,713,c),
(371,713,o),
(369,665,o),
(367,597,c),
(240,585,l),
(241,613,o),
(242,631,o),
(242,634,cs),
(242,698,o),
(172,728,o),
(125,728,cs),
(107,728,o),
(93,723,o),
(90,713,c),
(90,713,o),
(88,653,o),
(85,571,c),
(81,571,l),
(49,565,o),
(15,552,o),
(15,541,cs),
(15,526,o),
(47,487,o),
(77,475,c),
(80,475,l),
(77,386,l),
(58,384,o),
(-4,380,o),
(-4,364,cs),
(-4,346,o),
(41,295,o),
(72,278,c),
(72,207,o),
(57,78,o),
(57,53,cs),
(57,5,o),
(138,-13,o),
(177,-13,cs),
(189,-13,o),
(197,-10,o),
(199,2,cs),
(208,76,o),
(217,178,o),
(223,277,c),
(353,289,l),
(352,223,o),
(338,83,o),
(338,52,cs),
(338,3,o),
(419,-13,o),
(458,-13,cs),
(470,-13,o),
(478,-10,o),
(480,2,cs),
(490,83,o),
(499,197,o),
(506,305,c),
(520,306,o),
(585,312,o),
(585,327,cs)
);
},
{
closed = 1;
nodes = (
(231,401,l),
(235,481,l),
(362,486,l),
(359,411,l)
);
}
);
};
hints = (
{
horizontal = 1;
place = (-13,21);
target = up;
type = BottomGhost;
},
{
horizontal = 1;
place = (475,21);
target = up;
type = BottomGhost;
},
{
horizontal = 1;
place = (608,-20);
target = down;
type = TopGhost;
},
{
horizontal = 1;
place = (728,-20);
target = down;
type = TopGhost;
},
{
place = (77,154);
type = Stem;
},
{
place = (359,153);
type = Stem;
}
);
layerId = "053302AA-4A2A-42DC-B919-9CC4D126D2B5";
shapes = (
{
closed = 1;
nodes = (
(508,492,ls),
(559,496,o),
(576,504,o),
(577,514,cs),
(577,545,o),
(505,606,o),
(459,602,cs),
(85,571,ls),
(34,567,o),
(17,558,o),
(16,548,cs),
(15,516,o),
(80,456,o),
(147,462,cs)
);
},
{
ref = H;
}
);
width = 580;
}
);
note = Hbar;
unicode = 294;
},
{
color = 4;
glyphname = I;
kernLeft = H;
lastChange = "2023-04-28 09:53:04 +0000";
layers = (
{
anchors = (
{
name = bottom;
pos = (123,-35);
},
{
name = ogonek;
pos = (105,10);
},
{
name = top.case;
pos = (166,740);
}
);
background = {
shapes = (
{
closed = 1;
nodes = (
(85,553,o),
(52,120,o),
(52,53,cs),
(52,5,o),
(133,-13,o),
(172,-13,cs),
(184,-13,o),
(192,-10,o),
(194,2,cs),
(220,208,o),
(237,619,o),
(237,634,cs),
(237,699,o),
(167,728,o),
(120,728,cs),
(102,728,o),
(88,723,o),
(85,713,c)
);
}
);
};
hints = (
{
horizontal = 1;
place = (-13,21);
target = up;
type = BottomGhost;
},
{
horizontal = 1;
place = (728,-20);
target = down;
type = TopGhost;
},
{
place = (85,152);
type = Stem;
}
);
layerId = "053302AA-4A2A-42DC-B919-9CC4D126D2B5";
shapes = (
{
closed = 1;
nodes = (
(85,502,o),
(52,228,o),
(52,105,cs),
(52,14,o),
(132,-13,o),
(172,-13,cs),
(184,-13,o),
(192,-10,o),
(194,2,cs),
(216,176,o),
(237,529,o),
(237,600,cs),
(237,699,o),
(167,728,o),
(128,728,cs),
(102,728,o),
(85,723,o),
(85,713,cs)
);
}
);
width = 285;
}
);
note = I;
unicode = 73;
},
{
color = 4;
glyphname = J;
kernLeft = J;
kernRight = J;
lastChange = "2023-04-28 09:59:12 +0000";
layers = (
{
anchors = (
{
name = top.case;
pos = (230,740);
}
);
background = {
shapes = (
{
closed = 1;
nodes = (
(233,623,l),
(230,472,o),
(215,181,o),
(208,72,c),
(262,83,l),
(220,133,o),
(150,188,o),
(81,188,cs),
(45,188,o),
(10,168,o),
(10,129,cs),
(10,119,o),
(15,115,o),
(23,109,cs),
(204,-14,l),
(280,-14,o),
(354,49,o),
(360,142,cs),
(375,354,o),
(387,596,o),
(387,634,c)
);
},
{
closed = 1;
nodes = (
(201,608,o),
(240,625,o),
(344,625,cs),
(355,625,o),
(365,624,o),
(377,624,cs),
(384,624,o),
(387,627,o),
(387,634,cs),
(387,687,o),
(292,742,o),
(221,742,cs),
(167,742,o),
(92,731,o),
(54,731,cs),
(41,731,o),
(35,725,o),
(35,715,cs),
(35,680,o),
(112,608,o),
(155,608,cs)
);
}
);
};
hints = (
{
horizontal = 1;
place = (-14,21);
target = up;
type = BottomGhost;
},
{
horizontal = 1;
place = (735,-20);
target = down;
type = TopGhost;
},
{
place = (130,257);
type = Stem;
},
{
place = (233,154);
type = Stem;
},
{
place = (210,150);
type = Stem;
}
);
layerId = "053302AA-4A2A-42DC-B919-9CC4D126D2B5";
shapes = (
{
closed = 1;
nodes = (
(233,623,l),
(230,472,o),
(221,209,o),
(208,72,c),
(262,83,l),
(220,133,o),
(150,188,o),
(81,188,cs),
(45,188,o),
(10,168,o),
(10,129,cs),
(10,119,o),
(14,114,o),
(23,109,cs),
(90,71,o),
(144,-14,o),
(204,-14,cs),
(280,-14,o),
(354,49,o),
(362,165,cs),
(375,354,o),
(387,596,o),
(387,634,c)
);
},
{
closed = 1;
nodes = (
(201,608,o),
(240,625,o),
(344,625,cs),
(355,625,o),
(365,624,o),
(377,624,cs),
(384,624,o),
(387,627,o),
(387,634,cs),
(387,657,o),
(377,679,o),
(335,695,c),
(315,725,o),
(261,742,o),
(221,742,cs),
(167,742,o),
(92,731,o),
(54,731,cs),
(41,731,o),
(35,725,o),
(35,715,cs),
(35,676,o),
(90,608,o),
(155,608,cs)
);
}
);
width = 423;
},
{
associatedMasterId = "053302AA-4A2A-42DC-B919-9CC4D126D2B5";
background = {
shapes = (
{
closed = 1;
nodes = (
(143,735,o),
(130,729,o),
(130,717,cs),
(130,670,o),
(178,633,o),
(233,623,c),
(230,472,o),
(218,227,o),
(211,118,c),
(209,118,l),
(180,165,o),
(142,189,o),
(95,189,cs),
(41,189,o),
(-7,153,o),
(-7,104,cs),
(-7,94,o),
(-4,95,o),
(6,90,cs),
(204,-14,l),
(280,-14,o),
(354,49,o),
(360,142,cs),
(375,354,o),
(387,596,o),
(387,634,cs),
(387,728,o),
(253,735,o),
(152,735,cs)
);
}
);
};
hints = (
{
horizontal = 1;
place = (-14,21);
target = up;
type = BottomGhost;
},
{
horizontal = 1;
place = (735,-20);
target = down;
type = TopGhost;
},
{
place = (130,257);
type = Stem;
},
{
place = (233,154);
type = Stem;
},
{
place = (210,150);
type = Stem;
}
);
layerId = "4624B450-2973-40A1-86CB-5DFBDD3EE177";
name = "Mar 23 20, 18:15";
shapes = (
{
closed = 1;
nodes = (
(143,735,o),
(130,729,o),
(130,717,cs),
(130,670,o),
(178,633,o),
(233,623,c),
(230,472,o),
(218,227,o),
(211,118,c),
(209,118,l),
(180,165,o),
(142,189,o),
(95,189,cs),
(41,189,o),
(-7,153,o),
(-7,104,cs),
(-7,94,o),
(-4,95,o),
(6,90,cs),
(204,-14,l),
(280,-14,o),
(354,49,o),
(360,142,cs),
(375,354,o),
(387,596,o),
(387,634,cs),
(387,728,o),
(253,735,o),
(152,735,cs)
);
}
);
width = 423;
}
);
note = J;
unicode = 74;
},
{
color = 4;
glyphname = K;
kernLeft = H;
kernRight = K;
lastChange = "2023-04-28 09:59:12 +0000";
layers = (
{
anchors = (
{
name = bottom;
pos = (300,-35);
}
);
background = {
shapes = (
{
closed = 1;
nodes = (
(92,524,o),
(75,268,o),
(64,127,cs),
(55,5,o),
(142,-13,o),
(184,-13,cs),
(196,-13,o),
(205,-10,o),
(206,2,cs),
(210,53,o),
(215,115,o),
(223,182,c),
(484,-85,ls),
(530,-133,o),
(599,-149,o),
(634,-149,cs),
(652,-149,o),
(657,-132,o),
(645,-116,cs),
(316,301,l),
(435,425,o),
(562,560,o),
(562,628,cs),
(562,690,o),
(518,721,o),
(454,729,c),
(412,643,o),
(332,517,o),
(233,407,c),
(237,484,o),
(244,544,o),
(244,601,cs),
(244,698,o),
(174,728,o),
(127,728,cs),
(109,728,o),
(95,723,o),
(92,713,c)
);
}
);
};
hints = (
{
horizontal = 1;
place = (-149,21);
target = up;
type = BottomGhost;
},
{
horizontal = 1;
place = (-13,21);
target = up;
type = BottomGhost;
},
{
horizontal = 1;
place = (729,-20);
target = down;
type = TopGhost;
},
{
place = (92,141);
type = Stem;
},
{
place = (59,174);
type = Stem;
},
{
horizontal = 1;
place = (728,-20);
target = down;
type = TopGhost;
}
);
layerId = "053302AA-4A2A-42DC-B919-9CC4D126D2B5";
shapes = (
{
closed = 1;
nodes = (
(92,524,o),
(75,268,o),
(64,127,cs),
(55,5,o),
(136,-13,o),
(178,-13,cs),
(190,-13,o),
(199,-10,o),
(200,2,cs),
(204,53,o),
(209,121,o),
(217,188,c),
(484,-85,ls),
(530,-133,o),
(599,-149,o),
(634,-149,cs),
(645,-149,o),
(652,-142,o),
(652,-133,cs),
(652,-128,o),
(650,-122,o),
(645,-116,cs),
(305,301,l),
(427,422,o),
(552,560,o),
(552,628,cs),
(552,690,o),
(527,729,o),
(454,729,c),
(412,643,o),
(325,509,o),
(226,399,c),
(230,476,o),
(237,544,o),
(237,601,cs),
(237,698,o),
(174,728,o),
(127,728,cs),
(109,728,o),
(95,723,o),
(92,713,c)
);
}
);
width = 562;
}
);
note = K;
unicode = 75;
},
{
color = 4;
glyphname = L;
kernLeft = H;
kernRight = L;
lastChange = "2023-04-28 09:59:12 +0000";
layers = (
{
anchors = (
{
name = bottom;
pos = (201,-35);
},
{
name = caron;
pos = (372,560);
},
{
name = top.case;
pos = (175,740);
}
);
background = {
shapes = (
{
closed = 1;
nodes = (
(197,120,l),
(213,303,o),
(233,463,o),
(233,625,cs),
(233,688,o),
(168,727,o),
(121,728,cs),
(103,727,o),
(88,723,o),
(85,713,c),
(71,495,o),
(56,288,o),
(43,140,cs),
(35,47,o),
(119,-13,o),
(195,-15,c),
(436,87,ls),
(446,91,o),
(448,95,o),
(448,105,cs),
(448,144,o),
(379,179,o),
(340,179,cs),
(295,179,o),
(242,151,o),
(200,120,c)
);
}
);
};
hints = (
{
horizontal = 1;
place = (-15,21);
target = up;
type = BottomGhost;
},
{
horizontal = 1;
place = (728,-20);
target = down;
type = TopGhost;
},
{
place = (85,148);
type = Stem;
}
);
layerId = "053302AA-4A2A-42DC-B919-9CC4D126D2B5";
shapes = (
{
closed = 1;
nodes = (
(197,120,l),
(213,303,o),
(233,452,o),
(233,575,cs),
(233,677,o),
(168,727,o),
(121,728,cs),
(103,727,o),
(88,723,o),
(85,713,c),
(74,461,o),
(56,288,o),
(43,140,cs),
(39,93,o),
(59,57,o),
(96,35,c),
(119,2,o),
(157,-14,o),
(195,-15,c),
(436,87,ls),
(446,91,o),
(448,95,o),
(448,105,cs),
(448,144,o),
(379,179,o),
(340,179,cs),
(295,179,o),
(242,151,o),
(200,120,c)
);
}
);
width = 471;
}
);
note = L;
unicode = 76;
},
{
color = 4;
glyphname = Lslash;
kernLeft = Dcroat;
kernRight = L;
lastChange = "2023-04-28 09:59:12 +0000";
layers = (
{
background = {
shapes = (
{
closed = 1;
nodes = (
(236,120,l),
(241,181,o),
(247,239,o),
(252,296,c),
(331,362,o),
(391,415,o),
(397,421,cs),
(407,432,o),
(409,447,o),
(409,460,cs),
(409,496,o),
(375,548,o),
(340,548,cs),
(335,548,o),
(329,546,o),
(326,543,c),
(326,543,o),
(303,521,o),
(268,488,c),
(270,534,o),
(272,579,o),
(272,625,cs),
(272,688,o),
(207,727,o),
(160,728,cs),
(142,727,o),
(127,723,o),
(124,713,c),
(98,334,l),
(46,289,o),
(-3,247,o),
(-37,221,cs),
(-45,215,o),
(-48,207,o),
(-48,199,cs),
(-48,169,o),
(-6,130,o),
(17,118,cs),
(25,114,o),
(31,115,o),
(39,122,cs),
(83,157,l),
(83,151,o),
(82,145,o),
(82,140,cs),
(74,47,o),
(158,-13,o),
(234,-15,c),
(475,87,ls),
(485,91,o),
(487,95,o),
(487,105,cs),
(487,144,o),
(418,179,o),
(379,179,cs),
(334,179,o),
(281,151,o),
(239,120,c)
);
}
);
};
hints = (
{
horizontal = 1;
place = (-15,21);
target = up;
type = BottomGhost;
},
{
horizontal = 1;
place = (728,-20);
target = down;
type = TopGhost;
},
{
place = (124,148);
type = Stem;
}
);
layerId = "053302AA-4A2A-42DC-B919-9CC4D126D2B5";
shapes = (
{
closed = 1;
nodes = (
(162,268,l),
(260,313,o),
(318,340,o),
(374,372,cs),
(384,379,o),
(388,391,o),
(391,402,cs),
(392,407,o),
(393,413,o),
(393,419,cs),
(393,451,o),
(374,491,o),
(346,491,cs),
(344,491,o),
(341,490,o),
(340,489,c),
(340,489,o),
(260,447,o),
(173,401,c)
);
},
{
closed = 1;
nodes = (
(175,421,l),
(84,373,o),
(-15,321,o),
(-32,314,cs),
(-42,309,o),
(-49,300,o),
(-49,291,cs),
(-49,265,o),
(-25,230,o),
(-9,215,cs),
(-6,213,o),
(-3,212,o),
(0,212,cs),
(3,212,o),
(6,213,o),
(10,215,c),
(71,243,o),
(121,267,o),
(163,288,c)
);
},
{
pos = (-5,0);
ref = L;
}
);
width = 466;
}
);
metricRight = L;
note = Lslash;
unicode = 321;
},
{
color = 4;
glyphname = M;
kernLeft = B;
lastChange = "2023-04-28 10:04:14 +0000";
layers = (
{
background = {
shapes = (
{
closed = 1;
nodes = (
(531,303,o),
(539,160,o),
(551,57,cs),
(557,5,o),
(605,-14,o),
(647,-14,cs),
(660,-14,o),
(671,-12,o),
(678,-9,c),
(657,112,o),
(648,457,o),
(658,600,cs),
(661,638,o),
(644,679,o),
(610,696,c),
(586,738,o),
(517,736,o),
(509,712,cs),
(452,533,o),
(418,427,o),
(375,288,c),
(373,288,l),
(280,593,ls),
(248,699,o),
(172,746,o),
(109,746,cs),
(97,746,o),
(84,741,o),
(84,728,cs),
(84,708,o),
(106,679,o),
(120,648,c),
(63,427,o),
(35,232,o),
(20,97,cs),
(10,7,o),
(77,-17,o),
(122,-17,cs),
(143,-17,o),
(162,-9,o),
(155,24,cs),
(139,100,o),
(184,317,o),
(209,438,c),
(211,438,l),
(306,118,ls),
(310,104,o),
(326,92,o),
(347,86,c),
(372,70,o),
(407,63,o),
(414,82,cs),
(536,412,l),
(538,412,l)
);
}
);
};
hints = (
{
horizontal = 1;
place = (-14,21);
target = up;
type = BottomGhost;
},
{
horizontal = 1;
place = (746,-20);
target = down;
type = TopGhost;
},
{
place = (529,144);
type = Stem;
},
{
horizontal = 1;
place = (-13,21);
target = up;
type = BottomGhost;
}
);
layerId = "053302AA-4A2A-42DC-B919-9CC4D126D2B5";
shapes = (
{
closed = 1;
nodes = (
(536,384,o),
(535,354,o),
(535,322,cs),
(535,232,o),
(542,133,o),
(551,57,cs),
(557,5,o),
(605,-14,o),
(647,-14,cs),
(660,-14,o),
(671,-12,o),
(678,-9,c),
(662,82,o),
(653,302,o),
(653,450,cs),
(653,498,o),
(654,538,o),
(656,564,cs),
(661,644,o),
(643,689,o),
(592,711,cs),
(577,718,o),
(563,722,o),
(551,722,cs),
(527,722,o),
(508,707,o),
(496,670,cs),
(452,533,o),
(418,427,o),
(375,288,c),
(373,288,l),
(280,593,ls),
(248,699,o),
(172,746,o),
(109,746,cs),
(97,746,o),
(84,741,o),
(84,728,cs),
(84,708,o),
(106,679,o),
(120,648,c),
(63,427,o),
(35,232,o),
(20,97,cs),
(19,91,o),
(19,85,o),
(19,80,cs),
(19,4,o),
(80,-17,o),
(122,-17,cs),
(140,-17,o),
(156,-11,o),
(156,11,cs),
(156,15,o),
(156,19,o),
(155,24,cs),
(153,35,o),
(152,49,o),
(152,65,cs),
(152,161,o),
(188,335,o),
(209,438,c),
(211,438,l),
(306,118,ls),
(310,104,o),
(326,92,o),
(347,86,c),
(361,77,o),
(379,71,o),
(393,71,cs),
(403,71,o),
(411,74,o),
(414,82,cs),
(536,412,l),
(538,412,l)
);
}
);
width = 737;
}
);
note = M;
unicode = 77;
},
{
color = 4;
glyphname = N;
kernLeft = B;
lastChange = "2023-04-28 10:04:14 +0000";
layers = (
{
anchors = (
{
name = bottom;
pos = (284,-35);
},
{
name = top.case;
pos = (327,740);
}
);
background = {
shapes = (
{
closed = 1;
nodes = (
(545,247,o),
(582,503,o),
(582,597,cs),
(582,697,o),
(538,728,o),
(493,728,cs),
(475,728,o),
(461,723,o),
(458,713,cs),
(450,627,o),
(435,421,o),
(422,253,c),
(420,253,l),
(217,632,ls),
(180,700,o),
(113,729,o),
(69,729,cs),
(53,729,o),
(45,721,o),
(45,710,cs),
(45,705,o),
(46,700,o),
(49,695,cs),
(111,591,l),
(85,591,o),
(78,559,o),
(71,477,cs),
(54,290,o),
(48,168,o),
(49,126,cs),
(51,48,o),
(101,0,o),
(156,0,cs),
(168,0,o),
(175,3,o),
(175,15,cs),
(179,115,o),
(186,247,o),
(204,357,c),
(206,357,l),
(361,82,ls),
(377,53,o),
(396,28,o),
(426,16,c),
(452,-7,o),
(483,-14,o),
(513,-14,cs),
(531,-14,o),
(545,-4,o),
(545,13,cs)
);
}
);
};
hints = (
{
horizontal = 1;
place = (0,21);
target = up;
type = BottomGhost;
},
{
horizontal = 1;
place = (728,-20);
target = down;
type = TopGhost;
},
{
place = (350,168);
type = Stem;
},
{
horizontal = 1;
place = (729,-20);
target = down;
type = TopGhost;
},
{
horizontal = 1;
place = (-14,21);
target = up;
type = BottomGhost;
}
);
layerId = "053302AA-4A2A-42DC-B919-9CC4D126D2B5";
shapes = (
{
closed = 1;
nodes = (
(545,247,o),
(582,503,o),
(582,597,cs),
(582,697,o),
(538,728,o),
(493,728,cs),
(475,728,o),
(461,723,o),
(458,713,cs),
(450,627,o),
(435,421,o),
(422,253,c),
(420,253,l),
(217,632,ls),
(180,700,o),
(113,729,o),
(69,729,cs),
(53,729,o),
(45,721,o),
(45,710,cs),
(45,705,o),
(46,700,o),
(49,695,cs),
(111,591,l),
(85,591,o),
(78,559,o),
(71,477,cs),
(55,303,o),
(49,185,o),
(49,136,cs),
(49,52,o),
(86,0,o),
(143,0,cs),
(155,0,o),
(162,3,o),
(162,15,cs),
(166,115,o),
(177,279,o),
(195,389,c),
(197,389,l),
(371,82,ls),
(387,53,o),
(406,28,o),
(436,16,c),
(462,-7,o),
(483,-14,o),
(513,-14,cs),
(531,-14,o),
(545,-4,o),
(545,13,cs)
);
}
);
width = 638;
}
);
note = N;
unicode = 78;
},
{
color = 4;
glyphname = Ntilde;
kernLeft = B;
lastChange = "2023-04-28 10:04:24 +0000";
layers = (
{
background = {
shapes = (
{
closed = 1;
nodes = (
(452,-14,o),
(464,-6,o),
(466,13,cs),
(485,224,o),
(518,552,o),
(518,634,cs),
(518,697,o),
(467,728,o),
(422,728,cs),
(404,728,o),
(390,723,o),
(387,713,c),
(387,713,o),
(363,469,o),
(351,282,c),
(349,282,l),
(197,632,ls),
(166,704,o),
(93,729,o),
(49,729,cs),
(33,729,o),
(25,721,o),
(25,710,cs),
(25,705,o),
(27,700,o),
(29,695,cs),
(62,625,l),
(58,552,o),
(32,144,o),
(24,70,cs),
(19,21,o),
(101,0,o),
(146,0,cs),
(158,0,o),
(163,3,o),
(165,15,cs),
(179,115,o),
(186,207,o),
(194,317,c),
(196,317,l),
(296,82,ls),
(322,21,o),
(374,-14,o),
(434,-14,cs)
);
},
{
closed = 1;
nodes = (
(327,760,o),
(300,772,o),
(273,796,cs),
(254,813,o),
(240,822,o),
(227,822,cs),
(214,822,o),
(202,813,o),
(187,791,cs),
(178,778,o),
(168,772,o),
(160,772,cs),
(144,772,o),
(130,801,o),
(130,844,cs),
(130,886,o),
(181,942,o),
(230,942,cs),
(256,942,o),
(282,930,o),
(309,906,cs),
(328,889,o),
(342,880,o),
(355,880,cs),
(368,880,o),
(380,889,o),
(395,911,cs),
(404,924,o),
(414,930,o),
(422,930,cs),
(438,930,o),
(452,901,o),
(452,858,cs),
(452,816,o),
(401,760,o),
(352,760,cs)
);
}
);
};
guides = (
{
pos = (231,760);
}
);
hints = (
{
horizontal = 1;
place = (0,21);
target = up;
type = BottomGhost;
},
{
horizontal = 1;
place = (728,-20);
target = down;
type = TopGhost;
},
{
horizontal = 1;
place = (756,178);
type = Stem;
},
{
place = (350,168);
type = Stem;
},
{
horizontal = 1;
place = (729,-20);
target = down;
type = TopGhost;
},
{
horizontal = 1;
place = (-14,21);
target = up;
type = BottomGhost;
},
{
horizontal = 1;
place = (770,164);
type = Stem;
},
{
horizontal = 1;
place = (939,-20);
target = down;
type = TopGhost;
}
);
layerId = "053302AA-4A2A-42DC-B919-9CC4D126D2B5";
shapes = (
{
ref = N;
},
{
pos = (341,0);
ref = tildecomb.case;
}
);
width = 638;
},
{
associatedMasterId = "053302AA-4A2A-42DC-B919-9CC4D126D2B5";
hints = (
{
horizontal = 1;
place = (0,21);
target = up;
type = BottomGhost;
},
{
horizontal = 1;
place = (728,-20);
target = down;
type = TopGhost;
},
{
horizontal = 1;
place = (756,178);
type = Stem;
},
{
place = (350,168);
type = Stem;
},
{
horizontal = 1;
place = (729,-20);
target = down;
type = TopGhost;
},
{
horizontal = 1;
place = (-14,21);
target = up;
type = BottomGhost;
},
{
horizontal = 1;
place = (770,164);
type = Stem;
},
{
horizontal = 1;
place = (939,-20);
target = down;
type = TopGhost;
}
);
layerId = "F8FA0EFF-09DD-4AD6-BCA2-E239CBC27ED0";
name = "Apr 6 20, 17:58";
shapes = (
{
closed = 1;
nodes = (
(485,224,o),
(518,552,o),
(518,634,cs),
(518,697,o),
(467,728,o),
(422,728,cs),
(404,728,o),
(390,723,o),
(387,713,c),
(387,713,o),
(363,469,o),
(351,282,c),
(349,282,l),
(197,632,ls),
(166,704,o),
(93,729,o),
(49,729,cs),
(33,729,o),
(25,721,o),
(25,710,cs),
(25,705,o),
(27,700,o),
(29,695,cs),
(62,625,l),
(58,552,o),
(32,144,o),
(24,70,cs),
(19,21,o),
(101,0,o),
(146,0,cs),
(158,0,o),
(163,3,o),
(165,15,cs),
(179,115,o),
(186,207,o),
(194,317,c),
(196,317,l),
(296,82,ls),
(322,21,o),
(374,-14,o),
(434,-14,cs),
(452,-14,o),
(464,-6,o),
(466,13,cs)
);
},
{
closed = 1;
nodes = (
(384,770,o),
(425,839,o),
(446,885,c),
(438,911,o),
(419,932,o),
(378,939,c),
(361,914,o),
(352,896,o),
(327,870,c),
(288,918,o),
(261,934,o),
(233,934,cs),
(199,934,o),
(142,866,o),
(122,812,c),
(130,784,o),
(171,756,o),
(195,756,c),
(208,782,o),
(213,795,o),
(227,825,c),
(263,795,o),
(285,770,o),
(333,770,cs)
);
}
);
width = 543;
},
{
associatedMasterId = "053302AA-4A2A-42DC-B919-9CC4D126D2B5";
background = {
shapes = (
{
closed = 1;
nodes = (
(452,-14,o),
(464,-6,o),
(466,13,cs),
(485,224,o),
(518,552,o),
(518,634,cs),
(518,697,o),
(467,728,o),
(422,728,cs),
(404,728,o),
(390,723,o),
(387,713,c),
(387,713,o),
(363,469,o),
(351,282,c),
(349,282,l),
(197,632,ls),
(166,704,o),
(93,729,o),
(49,729,cs),
(33,729,o),
(25,721,o),
(25,710,cs),
(25,705,o),
(27,700,o),
(29,695,cs),
(62,625,l),
(58,552,o),
(32,144,o),
(24,70,cs),
(19,21,o),
(101,0,o),
(146,0,cs),
(158,0,o),
(163,3,o),
(165,15,cs),
(179,115,o),
(186,207,o),
(194,317,c),
(196,317,l),
(296,82,ls),
(322,21,o),
(374,-14,o),
(434,-14,cs)
);
},
{
closed = 1;
nodes = (
(398,760,o),
(452,819,o),
(452,856,cs),
(452,891,o),
(441,934,o),
(419,934,cs),
(401,934,o),
(389,876,o),
(352,876,cs),
(319,876,o),
(300,940,o),
(230,940,cs),
(184,940,o),
(130,881,o),
(130,844,cs),
(130,809,o),
(141,766,o),
(163,766,cs),
(181,766,o),
(193,824,o),
(230,824,cs),
(263,824,o),
(282,760,o),
(352,760,cs)
);
}
);
};
guides = (
{
pos = (231,760);
}
);
hints = (
{
horizontal = 1;
place = (0,21);
target = up;
type = BottomGhost;
},
{
horizontal = 1;
place = (728,-20);
target = down;
type = TopGhost;
},
{
horizontal = 1;
place = (756,178);
type = Stem;
},
{
place = (350,168);
type = Stem;
},
{
horizontal = 1;
place = (729,-20);
target = down;
type = TopGhost;
},
{
horizontal = 1;
place = (-14,21);
target = up;
type = BottomGhost;
},
{
horizontal = 1;
place = (770,164);
type = Stem;
},
{
horizontal = 1;
place = (939,-20);
target = down;
type = TopGhost;
}
);
layerId = "8BE039AC-3CDF-46A2-87E0-CF7B108EBFDD";
name = "Apr 6 20, 18:05";
shapes = (
{
closed = 1;
nodes = (
(452,-14,o),
(464,-6,o),
(466,13,cs),
(485,224,o),
(518,552,o),
(518,634,cs),
(518,697,o),
(467,728,o),
(422,728,cs),
(404,728,o),
(390,723,o),
(387,713,c),
(387,713,o),
(363,469,o),
(351,282,c),
(349,282,l),
(197,632,ls),
(166,704,o),
(93,729,o),
(49,729,cs),
(33,729,o),
(25,721,o),
(25,710,cs),
(25,705,o),
(27,700,o),
(29,695,cs),
(62,625,l),
(58,552,o),
(32,144,o),
(24,70,cs),
(19,21,o),
(101,0,o),
(146,0,cs),
(158,0,o),
(163,3,o),
(165,15,cs),
(179,115,o),
(186,207,o),
(194,317,c),
(196,317,l),
(296,82,ls),
(322,21,o),
(374,-14,o),
(434,-14,cs)
);
},
{
closed = 1;
nodes = (
(398,760,o),
(452,819,o),
(452,856,cs),
(452,891,o),
(441,934,o),
(419,934,cs),
(401,934,o),
(389,876,o),
(352,876,cs),
(319,876,o),
(300,940,o),
(230,940,cs),
(184,940,o),
(130,881,o),
(130,844,cs),
(130,809,o),
(141,766,o),
(163,766,cs),
(181,766,o),
(193,824,o),
(230,824,cs),
(263,824,o),
(282,760,o),
(352,760,cs)
);
}
);
width = 543;
}
);
note = Ntilde;
unicode = 209;
},
{
color = 4;
glyphname = Eng;
kernLeft = B;
lastChange = "2023-04-28 10:04:14 +0000";
layers = (
{
background = {
shapes = (
{
closed = 1;
nodes = (
(545,247,o),
(582,503,o),
(582,597,cs),
(582,697,o),
(538,728,o),
(493,728,cs),
(475,728,o),
(461,723,o),
(458,713,cs),
(450,627,o),
(435,421,o),
(422,253,c),
(420,253,l),
(217,632,ls),
(180,700,o),
(113,729,o),
(69,729,cs),
(53,729,o),
(45,721,o),
(45,710,cs),
(45,705,o),
(46,700,o),
(49,695,cs),
(111,591,l),
(85,591,o),
(78,559,o),
(71,477,cs),
(54,290,o),
(48,168,o),
(49,126,cs),
(51,48,o),
(101,0,o),
(156,0,cs),
(168,0,o),
(175,3,o),
(175,15,cs),
(179,115,o),
(186,247,o),
(204,357,c),
(206,357,l),
(361,82,ls),
(377,53,o),
(396,28,o),
(426,16,c),
(452,-7,o),
(483,-14,o),
(513,-14,cs),
(531,-14,o),
(545,-4,o),
(545,13,cs)
);
}
);
};
hints = (
{
horizontal = 1;
place = (-171,21);
target = up;
type = BottomGhost;
},
{
horizontal = 1;
place = (-2,21);
target = up;
type = BottomGhost;
},
{
horizontal = 1;
place = (728,-20);
target = down;
type = TopGhost;
},
{
place = (350,168);
type = Stem;
},
{
horizontal = 1;
place = (729,-20);
target = down;
type = TopGhost;
},
{
horizontal = 1;
place = (0,21);
target = up;
type = BottomGhost;
},
{
horizontal = 1;
place = (-11,21);
target = up;
type = BottomGhost;
}
);
layerId = "053302AA-4A2A-42DC-B919-9CC4D126D2B5";
shapes = (
{
closed = 1;
nodes = (
(394,-42,l),
(386,-24,o),
(355,-11,o),
(334,-11,cs),
(280,-11,o),
(232,-37,o),
(232,-85,cs),
(232,-92,o),
(235,-96,o),
(245,-101,cs),
(389,-171,l),
(465,-171,o),
(545,-108,o),
(545,-15,cs),
(545,248,o),
(582,503,o),
(582,597,cs),
(582,697,o),
(538,728,o),
(493,728,cs),
(475,728,o),
(461,723,o),
(458,713,cs),
(450,627,o),
(435,411,o),
(422,243,c),
(420,243,l),
(217,632,ls),
(181,701,o),
(113,729,o),
(69,729,cs),
(53,729,o),
(45,721,o),
(45,710,cs),
(45,705,o),
(46,700,o),
(49,695,cs),
(111,591,l),
(85,591,o),
(78,559,o),
(71,477,cs),
(54,290,o),
(48,168,o),
(49,126,cs),
(51,48,o),
(101,0,o),
(156,0,cs),
(168,0,o),
(175,3,o),
(175,15,cs),
(179,115,o),
(186,247,o),
(204,357,c),
(206,357,l),
(361,72,ls),
(377,43,o),
(396,18,o),
(426,6,c),
(402,52,l)
);
}
);
width = 638;
}
);
metricLeft = N;
metricRight = N;
note = Eng;
unicode = 330;
},
{
color = 4;
glyphname = O;
kernLeft = C;
kernRight = D;
lastChange = "2023-04-28 10:25:41 +0000";
layers = (
{
anchors = (
{
name = bottom;
pos = (276,-35);
},
{
name = horn;
pos = (435,728);
},
{
name = ogonek;
pos = (310,10);
},
{
name = top.case;
pos = (343,740);
}
);
background = {
shapes = (
{
closed = 1;
nodes = (
(129,727,o),
(29,516,o),
(29,320,cs),
(29,173,o),
(70,79,o),
(171,30,c),
(195,-6,o),
(237,-15,o),
(279,-15,cs),
(456,-15,o),
(558,223,o),
(558,417,cs),
(558,548,o),
(529,649,o),
(436,683,c),
(412,717,o),
(364,727,o),
(314,727,cs)
);
},
{
closed = 1;
nodes = (
(202,112,o),
(186,190,o),
(191,284,cs),
(199,430,o),
(255,610,o),
(349,606,cs),
(389,603,o),
(404,542,o),
(400,462,cs),
(392,314,o),
(322,105,o),
(242,109,cs)
);
}
);
};
hints = (
{
horizontal = 1;
place = (-15,122);
type = Stem;
},
{
horizontal = 1;
place = (608,119);
type = Stem;
},
{
place = (29,166);
type = Stem;
},
{
place = (394,164);
type = Stem;
}
);
layerId = "053302AA-4A2A-42DC-B919-9CC4D126D2B5";
shapes = (
{
closed = 1;
nodes = (
(129,727,o),
(29,516,o),
(29,320,cs),
(29,173,o),
(69,81,o),
(170,32,c),
(194,-4,o),
(237,-15,o),
(279,-15,cs),
(456,-15,o),
(558,223,o),
(558,417,cs),
(558,548,o),
(539,638,o),
(446,672,c),
(422,710,o),
(364,727,o),
(314,727,cs)
);
},
{
closed = 1;
nodes = (
(206,119,o),
(190,171,o),
(190,252,cs),
(190,398,o),
(246,597,o),
(346,617,c),
(384,607,o),
(402,541,o),
(402,471,cs),
(402,324,o),
(326,119,o),
(242,99,c)
);
}
);
width = 586;
}
);
note = O;
unicode = 79;
},
{
color = 4;
glyphname = Odieresis;
kernLeft = C;
kernRight = D;
lastChange = "2023-04-28 10:25:41 +0000";
layers = (
{
hints = (
{
horizontal = 1;
place = (-15,122);
type = Stem;
},
{
horizontal = 1;
place = (608,119);
type = Stem;
},
{
place = (29,166);
type = Stem;
},
{
place = (394,164);
type = Stem;
},
{
horizontal = 1;
place = (783,165);
type = Stem;
},
{
place = (136,146);
type = Stem;
},
{
place = (329,146);
type = Stem;
},
{
place = (136,168);
type = Stem;
},
{
place = (329,168);
type = Stem;
}
);
layerId = "053302AA-4A2A-42DC-B919-9CC4D126D2B5";
shapes = (
{
closed = 1;
nodes = (
(129,727,o),
(29,516,o),
(29,320,cs),
(29,150,o),
(96,-15,o),
(279,-15,cs),
(456,-15,o),
(558,223,o),
(558,417,cs),
(558,604,o),
(481,727,o),
(314,727,cs)
);
},
{
closed = 1;
nodes = (
(215,107,o),
(195,185,o),
(195,279,cs),
(195,425,o),
(242,608,o),
(336,608,cs),
(376,608,o),
(394,547,o),
(394,467,cs),
(394,319,o),
(335,107,o),
(255,107,cs)
);
},
{
closed = 1;
nodes = (
(282,859,o),
(304,895,o),
(304,926,cs),
(304,934,o),
(299,936,o),
(287,939,cs),
(264,945,o),
(244,948,o),
(225,948,cs),
(208,948,o),
(182,947,o),
(166,944,cs),
(137,937,o),
(136,900,o),
(136,875,cs),
(136,800,o),
(185,783,o),
(252,783,cs),
(263,783,o),
(270,784,o),
(282,787,c)
);
},
{
closed = 1;
nodes = (
(475,859,o),
(497,895,o),
(497,926,cs),
(497,934,o),
(492,936,o),
(480,939,cs),
(457,945,o),
(437,948,o),
(418,948,cs),
(401,948,o),
(375,947,o),
(359,944,cs),
(330,937,o),
(329,900,o),
(329,875,cs),
(329,800,o),
(378,783,o),
(445,783,cs),
(456,783,o),
(463,784,o),
(475,787,c)
);
}
);
width = 586;
}
);
note = Odieresis;
unicode = 214;
},
{
color = 4;
glyphname = Ohorn;
lastChange = "2023-04-28 10:25:41 +0000";
layers = (
{
anchors = (
{
name = bottom;
pos = (276,-35);
},
{
name = ogonek;
pos = (310,10);
},
{
name = top.case;
pos = (313,740);
}
);
background = {
shapes = (
{
closed = 1;
nodes = (
(129,727,o),
(29,516,o),
(29,320,cs),
(29,173,o),
(69,81,o),
(170,32,c),
(194,-4,o),
(237,-15,o),
(279,-15,cs),
(456,-15,o),
(558,223,o),
(558,417,cs),
(558,548,o),
(539,638,o),
(446,672,c),
(422,710,o),
(364,727,o),
(314,727,cs)
);
},
{
closed = 1;
nodes = (
(206,119,o),
(190,171,o),
(190,252,cs),
(190,398,o),
(246,597,o),
(346,617,c),
(384,607,o),
(402,541,o),
(402,471,cs),
(402,324,o),
(326,119,o),
(242,99,c)
);
},
{
closed = 1;
nodes = (
(409,605,l),
(446,592,o),
(481,587,o),
(514,587,cs),
(634,587,o),
(672,682,o),
(672,772,cs),
(672,814,o),
(594,864,o),
(553,864,cs),
(543,864,o),
(529,862,o),
(529,841,cs),
(529,764,o),
(497,715,o),
(437,715,cs),
(409,715,o),
(386,715,o),
(362,722,c)
);
}
);
};
hints = (
{
horizontal = 1;
place = (-15,122);
type = Stem;
},
{
horizontal = 1;
place = (608,119);
type = Stem;
},
{
place = (29,166);
type = Stem;
},
{
place = (394,164);
type = Stem;
}
);
layerId = "053302AA-4A2A-42DC-B919-9CC4D126D2B5";
shapes = (
{
closed = 1;
nodes = (
(456,-15,o),
(558,223,o),
(558,417,cs),
(558,504,o),
(550,573,o),
(517,619,c),
(456,607,l),
(483,599,o),
(507,596,o),
(528,596,cs),
(637,596,o),
(672,688,o),
(672,772,cs),
(672,814,o),
(594,864,o),
(553,864,cs),
(543,864,o),
(529,862,o),
(529,841,cs),
(529,764,o),
(497,715,o),
(437,715,cs),
(399,715,o),
(364,727,o),
(314,727,cs),
(129,727,o),
(29,516,o),
(29,320,cs),
(29,173,o),
(69,81,o),
(170,32,c),
(194,-4,o),
(237,-15,o),
(279,-15,cs)
);
},
{
closed = 1;
nodes = (
(206,119,o),
(190,171,o),
(190,252,cs),
(190,398,o),
(246,597,o),
(346,617,c),
(384,607,o),
(402,541,o),
(402,471,cs),
(402,324,o),
(326,119,o),
(242,99,c)
);
}
);
width = 586;
}
);
unicode = 416;
},
{
color = 4;
glyphname = Oslash;
kernLeft = C;
kernRight = D;
lastChange = "2023-04-28 10:25:31 +0000";
layers = (
{
anchors = (
{
name = top.case;
pos = (343,740);
}
);
background = {
shapes = (
{
closed = 1;
nodes = (
(129,727,o),
(29,516,o),
(29,320,cs),
(29,241,o),
(43,164,o),
(76,103,c),
(45,55,ls),
(42,50,o),
(40,45,o),
(40,40,cs),
(40,8,o),
(107,-27,o),
(133,-27,cs),
(139,-27,o),
(143,-23,o),
(148,-16,cs),
(166,11,l),
(197,-5,o),
(235,-15,o),
(279,-15,cs),
(456,-15,o),
(558,223,o),
(558,417,cs),
(558,479,o),
(549,535,o),
(531,581,c),
(558,625,o),
(575,653,o),
(576,657,cs),
(578,664,o),
(578,670,o),
(578,676,cs),
(578,722,o),
(531,763,o),
(490,763,cs),
(481,763,o),
(474,759,o),
(470,753,c),
(470,753,o),
(457,732,o),
(437,697,c),
(403,717,o),
(362,727,o),
(314,727,cs)
);
},
{
closed = 1;
nodes = (
(215,107,o),
(195,185,o),
(195,279,cs),
(195,425,o),
(242,608,o),
(336,608,cs),
(376,608,o),
(394,547,o),
(394,467,cs),
(394,319,o),
(335,107,o),
(255,107,cs)
);
}
);
};
hints = (
{
horizontal = 1;
place = (-15,122);
type = Stem;
},
{
horizontal = 1;
place = (608,119);
type = Stem;
},
{
place = (29,166);
type = Stem;
},
{
place = (394,164);
type = Stem;
},
{
horizontal = 1;
place = (18.661,21);
target = up;
type = BottomGhost;
},
{
horizontal = 1;
place = (803.963,-20);
target = down;
type = TopGhost;
}
);
layerId = "053302AA-4A2A-42DC-B919-9CC4D126D2B5";
shapes = (
{
closed = 1;
nodes = (
(125,128,o),
(102,86,o),
(87,60,cs),
(63,17,o),
(54,-15,o),
(54,-38,cs),
(54,-83,o),
(88,-95,o),
(105,-98,cs),
(112,-99,o),
(116,-95,o),
(121,-89,cs),
(135,-64,o),
(161,-26,o),
(185,19,cs),
(217,78,l),
(152,179,l)
);
},
{
closed = 1;
nodes = (
(524,647,ls),
(527,653,o),
(545,686,o),
(548,703,cs),
(549,712,o),
(550,722,o),
(550,731,cs),
(550,769,o),
(538,805,o),
(515,807,cs),
(503,810,o),
(495,805,o),
(490,799,cs),
(467,758,o),
(435,701,o),
(400,636,c),
(473,553,l)
);
},
{
ref = O;
}
);
width = 586;
}
);
metricLeft = O;
metricRight = O;
note = Oslash;
unicode = 216;
},
{
color = 4;
glyphname = OE;
kernLeft = C;
kernRight = E;
lastChange = "2023-04-28 10:25:31 +0000";
layers = (
{
background = {
anchors = (
{
name = bottom;
pos = (566,-35);
},
{
name = ogonek;
pos = (648,60);
},
{
name = top.case;
pos = (564,740);
}
);
hints = (
{
horizontal = 1;
place = (-14,21);
target = up;
type = BottomGhost;
},
{
horizontal = 1;
place = (615,117);
type = Stem;
},
{
place = (406,153);
type = Stem;
},
{
horizontal = 1;
place = (-15,122);
type = Stem;
},
{
horizontal = 1;
place = (608,119);
type = Stem;
},
{
place = (29,166);
type = Stem;
},
{
place = (394,164);
type = Stem;
}
);
shapes = (
{
closed = 1;
nodes = (
(421,660,l),
(385,139,l),
(378,48,o),
(463,-14,o),
(539,-14,c),
(779,87,ls),
(789,91,o),
(791,95,o),
(791,105,cs),
(791,135,o),
(722,179,o),
(683,179,cs),
(632,179,o),
(562,141,o),
(494,89,c),
(535,55,l),
(573,653,l)
);
},
{
closed = 1;
nodes = (
(515,310,l),
(661,329,ls),
(712,335,o),
(729,341,o),
(730,351,cs),
(730,382,o),
(658,445,o),
(612,439,cs),
(515,427,l)
);
},
{
closed = 1;
nodes = (
(513,589,o),
(648,615,o),
(752,615,cs),
(763,615,o),
(773,614,o),
(785,614,cs),
(792,614,o),
(795,617,o),
(795,624,cs),
(795,677,o),
(700,732,o),
(629,732,cs),
(575,732,o),
(423,715,o),
(385,715,cs),
(372,715,o),
(366,709,o),
(366,699,cs),
(366,664,o),
(443,589,o),
(473,589,cs)
);
},
{
closed = 1;
nodes = (
(129,727,o),
(29,516,o),
(29,320,cs),
(29,150,o),
(96,-15,o),
(279,-15,cs),
(384,-15,o),
(463,69,o),
(509,178,c),
(536,570,l),
(502,668,o),
(430,727,o),
(314,727,cs)
);
},
{
closed = 1;
nodes = (
(216,107,o),
(195,185,o),
(195,279,cs),
(195,425,o),
(245,608,o),
(344,608,cs),
(387,608,o),
(406,547,o),
(406,467,cs),
(406,319,o),
(343,107,o),
(259,107,cs)
);
}
);
};
hints = (
{
horizontal = 1;
place = (-15,118);
type = Stem;
},
{
horizontal = 1;
place = (309,128);
type = Stem;
},
{
horizontal = 1;
place = (615,117);
type = Stem;
},
{
place = (29,160);
type = Stem;
},
{
place = (353,197);
type = Stem;
},
{
horizontal = 1;
place = (615,100);
type = Stem;
},
{
place = (372,159);
type = Stem;
},
{
horizontal = 1;
place = (-14,21);
target = up;
type = BottomGhost;
},
{
horizontal = 1;
place = (-15,194);
type = Stem;
},
{
place = (400,150);
type = Stem;
}
);
layerId = "053302AA-4A2A-42DC-B919-9CC4D126D2B5";
shapes = (
{
closed = 1;
nodes = (
(384,-15,o),
(463,69,o),
(509,178,c),
(536,570,l),
(502,668,o),
(430,727,o),
(314,727,cs),
(129,727,o),
(29,516,o),
(29,320,cs),
(29,150,o),
(96,-15,o),
(279,-15,cs)
);
},
{
closed = 1;
nodes = (
(216,107,o),
(195,185,o),
(195,279,cs),
(195,425,o),
(245,608,o),
(344,608,cs),
(387,608,o),
(406,547,o),
(406,467,cs),
(406,319,o),
(343,107,o),
(259,107,cs)
);
},
{
closed = 1;
nodes = (
(779,87,ls),
(789,91,o),
(791,95,o),
(791,105,cs),
(791,135,o),
(722,179,o),
(683,179,cs),
(632,179,o),
(562,141,o),
(494,89,c),
(535,55,l),
(573,653,l),
(421,660,l),
(385,139,l),
(378,48,o),
(463,-14,o),
(539,-14,c)
);
},
{
closed = 1;
nodes = (
(661,329,ls),
(712,335,o),
(729,341,o),
(730,351,cs),
(730,382,o),
(658,445,o),
(612,439,cs),
(515,427,l),
(515,310,l)
);
},
{
closed = 1;
nodes = (
(513,589,o),
(648,615,o),
(752,615,cs),
(763,615,o),
(773,614,o),
(785,614,cs),
(792,614,o),
(795,617,o),
(795,624,cs),
(795,677,o),
(700,732,o),
(629,732,cs),
(575,732,o),
(423,715,o),
(385,715,cs),
(372,715,o),
(366,709,o),
(366,699,cs),
(366,664,o),
(443,589,o),
(473,589,cs)
);
}
);
width = 807;
}
);
metricLeft = O;
metricRight = E;
note = OE;
unicode = 338;
},
{
color = 4;
glyphname = P;
kernLeft = B;
lastChange = "2023-04-28 10:36:49 +0000";
layers = (
{
background = {
shapes = (
{
closed = 1;
nodes = (
(458,316,o),
(547,410,o),
(547,532,cs),
(547,612,o),
(426,728,o),
(274,728,cs),
(222,728,o),
(124,721,o),
(69,721,cs),
(60,721,o),
(50,717,o),
(50,705,cs),
(50,670,o),
(118,602,o),
(162,602,cs),
(217,602,o),
(277,610,o),
(379,608,c),
(423,547,o),
(399,415,o),
(215,292,c),
(194,279,o),
(233,167,o),
(360,251,cs)
);
},
{
closed = 1;
nodes = (
(197,-13,o),
(206,-10,o),
(207,2,cs),
(218,178,o),
(232,305,o),
(245,456,cs),
(259,629,o),
(183,632,o),
(108,657,c),
(99,485,o),
(85,280,o),
(72,162,cs),
(59,32,o),
(140,-13,o),
(185,-13,cs)
);
}
);
};
hints = (
{
horizontal = 1;
place = (-13,21);
target = up;
type = BottomGhost;
},
{
horizontal = 1;
place = (728,-20);
target = down;
type = TopGhost;
},
{
place = (102,146);
type = Stem;
},
{
place = (382,165);
type = Stem;
}
);
layerId = "053302AA-4A2A-42DC-B919-9CC4D126D2B5";
shapes = (
{
closed = 1;
nodes = (
(458,316,o),
(547,410,o),
(547,532,cs),
(547,612,o),
(426,728,o),
(274,728,cs),
(222,728,o),
(124,721,o),
(69,721,cs),
(60,721,o),
(50,717,o),
(50,705,cs),
(50,670,o),
(118,602,o),
(162,602,cs),
(206,602,o),
(251,605,o),
(320,605,cs),
(337,605,o),
(356,604,o),
(376,604,c),
(390,587,o),
(397,564,o),
(397,538,cs),
(397,471,o),
(347,380,o),
(215,292,c),
(212,290,o),
(210,285,o),
(210,278,cs),
(210,257,o),
(230,220,o),
(276,220,cs),
(298,220,o),
(326,228,o),
(360,251,cs)
);
},
{
closed = 1;
nodes = (
(197,-13,o),
(206,-10,o),
(207,2,cs),
(218,178,o),
(232,305,o),
(245,456,cs),
(246,470,o),
(247,483,o),
(247,495,cs),
(247,630,o),
(177,634,o),
(108,657,c),
(99,485,o),
(85,280,o),
(72,162,cs),
(71,153,o),
(71,144,o),
(71,135,cs),
(71,26,o),
(143,-13,o),
(185,-13,cs)
);
}
);
width = 551;
}
);
note = P;
unicode = 80;
},
{
color = 4;
glyphname = Thorn;
kernLeft = H;
lastChange = "2023-04-28 10:36:49 +0000";
layers = (
{
background = {
shapes = (
{
closed = 1;
nodes = (
(100,624,l),
(87,623,o),
(74,623,o),
(62,623,cs),
(53,623,o),
(43,619,o),
(43,607,cs),
(43,586,o),
(73,548,o),
(97,529,c),
(90,353,o),
(78,106,o),
(71,57,cs),
(64,8,o),
(152,-13,o),
(191,-13,cs),
(203,-13,o),
(212,-10,o),
(213,2,cs),
(219,55,l),
(444,155,o),
(531,341,o),
(531,455,cs),
(531,554,o),
(434,632,o),
(253,632,c),
(254,697,o),
(186,728,o),
(139,728,cs),
(121,728,o),
(104,723,o),
(104,713,cs)
);
},
{
closed = 1;
nodes = (
(260,512,o),
(273,514,o),
(286,514,cs),
(326,514,o),
(367,497,o),
(367,454,cs),
(367,372,o),
(315,260,o),
(232,209,c),
(239,315,o),
(245,427,o),
(248,509,c)
);
}
);
};
hints = (
{
horizontal = 1;
place = (-13,21);
target = up;
type = BottomGhost;
},
{
horizontal = 1;
place = (514,118);
type = Stem;
},
{
horizontal = 1;
place = (728,-20);
target = down;
type = TopGhost;
},
{
place = (35,210);
type = Stem;
},
{
place = (359,164);
type = Stem;
},
{
horizontal = 1;
place = (-13,21);
target = up;
type = BottomGhost;
},
{
horizontal = 1;
place = (728,-20);
target = down;
type = TopGhost;
},
{
place = (102,146);
type = Stem;
},
{
place = (382,165);
type = Stem;
}
);
layerId = "053302AA-4A2A-42DC-B919-9CC4D126D2B5";
metricLeft = "=P";
shapes = (
{
closed = 1;
nodes = (
(439,167,o),
(555,310,o),
(555,447,cs),
(555,553,o),
(450,628,o),
(295,628,cs),
(222,628,o),
(124,621,o),
(69,621,cs),
(60,621,o),
(50,617,o),
(50,605,cs),
(50,570,o),
(118,502,o),
(162,502,cs),
(217,502,o),
(254,515,o),
(308,515,cs),
(364,515,o),
(389,483,o),
(389,437,cs),
(389,366,o),
(328,262,o),
(223,192,c),
(205,58,l)
);
},
{
pos = (21,0);
ref = I;
}
);
width = 559;
}
);
metricLeft = "=H";
metricRight = P;
note = Thorn;
unicode = 222;
},
{
color = 4;
glyphname = Q;
kernLeft = C;
kernRight = D;
lastChange = "2023-04-28 10:36:49 +0000";
layers = (
{
background = {
shapes = (
{
closed = 0;
nodes = (
(29,320,ls),
(29,156,o),
(91,-3,o),
(259,-14,c),
(450,-110,l),
(500,-131,o),
(557,-147,o),
(592,-147,cs),
(610,-147,o),
(617,-128,o),
(603,-114,cs),
(431,55,l)
);
},
{
ref = O;
}
);
};
hints = (
{
horizontal = 1;
place = (-147,21);
target = up;
type = BottomGhost;
},
{
horizontal = 1;
place = (124,-20);
target = down;
type = TopGhost;
},
{
horizontal = 1;
place = (608,119);
type = Stem;
},
{
place = (29,166);
type = Stem;
},
{
place = (394,164);
type = Stem;
},
{
horizontal = 1;
place = (-15,122);
type = Stem;
}
);
layerId = "053302AA-4A2A-42DC-B919-9CC4D126D2B5";
shapes = (
{
closed = 1;
nodes = (
(226,45,l),
(450,-105,ls),
(494,-134,o),
(551,-154,o),
(586,-158,cs),
(599,-160,o),
(607,-151,o),
(607,-141,cs),
(607,-136,o),
(606,-132,o),
(602,-127,cs),
(418,104,l)
);
},
{
ref = O;
}
);
width = 586;
}
);
note = Q;
unicode = 81;
},
{
color = 4;
glyphname = R;
kernLeft = B;
kernRight = R;
lastChange = "2023-04-28 10:36:49 +0000";
layers = (
{
anchors = (
{
name = bottom;
pos = (291,-35);
},
{
name = top.case;
pos = (293,740);
}
);
background = {
shapes = (
{
closed = 1;
nodes = (
(197,602,o),
(321,614,o),
(363,614,c),
(409,563,o),
(368,446,o),
(212,309,c),
(212,214,l),
(316,216,o),
(371,196,o),
(371,173,cs),
(371,148,o),
(323,117,o),
(218,99,c),
(246,478,ls),
(254,588,o),
(239,640,o),
(167,651,c),
(105,677,l),
(68,139,ls),
(65,94,o),
(83,58,o),
(126,42,c),
(147,-2,o),
(193,-9,o),
(232,-9,cs),
(327,-9,o),
(524,81,o),
(524,171,cs),
(524,239,o),
(447,294,o),
(273,294,c),
(287,251,l),
(482,363,o),
(527,460,o),
(527,535,cs),
(527,629,o),
(417,733,o),
(261,733,cs),
(198,733,o),
(123,721,o),
(68,721,cs),
(59,721,o),
(49,717,o),
(49,705,cs),
(49,668,o),
(119,602,o),
(161,602,cs)
);
}
);
};
hints = (
{
horizontal = 1;
place = (-150,21);
target = up;
type = BottomGhost;
},
{
horizontal = 1;
place = (-13,21);
target = up;
type = BottomGhost;
},
{
horizontal = 1;
place = (728,-20);
target = down;
type = TopGhost;
},
{
place = (96,140);
type = Stem;
},
{
place = (369,165);
type = Stem;
}
);
layerId = "053302AA-4A2A-42DC-B919-9CC4D126D2B5";
shapes = (
{
closed = 1;
nodes = (
(98,679,l),
(74,505,o),
(66,303,o),
(66,209,cs),
(66,35,o),
(141,-13,o),
(180,-13,cs),
(191,-13,o),
(202,-10,o),
(202,1,cs),
(202,1,o),
(202,1,o),
(202,2,cs),
(201,19,o),
(200,39,o),
(200,62,cs),
(200,221,o),
(228,501,o),
(251,667,c)
);
},
{
closed = 1;
nodes = (
(145,590,cs),
(191,590,o),
(268,612,o),
(329,612,c),
(358,604,o),
(372,577,o),
(372,541,cs),
(372,467,o),
(312,354,o),
(190,285,c),
(170,209,l),
(492,-94,ls),
(533,-132,o),
(605,-150,o),
(635,-150,cs),
(648,-150,o),
(653,-144,o),
(653,-136,cs),
(653,-127,o),
(646,-115,o),
(640,-108,cs),
(293,298,l),
(279,222,l),
(442,321,o),
(529,456,o),
(529,525,cs),
(529,615,o),
(414,728,o),
(263,728,cs),
(200,728,o),
(102,716,o),
(47,716,cs),
(38,716,o),
(28,712,o),
(28,700,cs),
(28,648,o),
(98,590,o)
);
}
);
width = 563;
}
);
note = R;
unicode = 82;
},
{
color = 4;
glyphname = S;
kernLeft = S;
kernRight = S;
lastChange = "2023-04-28 10:51:23 +0000";
layers = (
{
anchors = (
{
name = bottom;
pos = (244,-35);
},
{
name = cedilla;
pos = (247,10);
},
{
name = top.case;
pos = (314,740);
}
);
background = {
shapes = (
{
closed = 1;
nodes = (
(326,56,o),
(139,108,o),
(72,213,c),
(42,213,o),
(27,185,o),
(27,141,cs),
(27,55,o),
(104,-13,o),
(255,-13,cs),
(386,-13,o),
(473,57,o),
(473,157,cs),
(473,214,o),
(446,264,o),
(317,314,cs),
(286,326,ls),
(212,355,o),
(199,371,o),
(199,394,cs),
(199,480,o),
(297,617,o),
(342,617,cs),
(351,617,o),
(351,611,o),
(351,602,cs),
(351,579,o),
(323,520,o),
(323,480,cs),
(323,427,o),
(385,373,o),
(418,373,cs),
(432,373,o),
(436,382,o),
(439,394,cs),
(454,452,o),
(491,530,o),
(491,583,cs),
(491,610,o),
(472,664,o),
(418,681,c),
(388,720,o),
(359,725,o),
(313,725,cs),
(174,725,o),
(53,500,o),
(53,381,cs),
(53,305,o),
(80,268,o),
(193,225,cs),
(227,212,ls),
(309,181,o),
(326,162,o),
(326,137,cs)
);
}
);
};
hints = (
{
horizontal = 1;
place = (-14,21);
target = up;
type = BottomGhost;
},
{
horizontal = 1;
place = (727,-20);
target = down;
type = TopGhost;
},
{
place = (287,183);
type = Stem;
}
);
layerId = "053302AA-4A2A-42DC-B919-9CC4D126D2B5";
shapes = (
{
closed = 1;
nodes = (
(314,112,o),
(294,101,o),
(265,101,cs),
(208,101,o),
(116,144,o),
(72,213,c),
(42,213,o),
(27,185,o),
(27,141,cs),
(27,55,o),
(104,-13,o),
(255,-13,cs),
(394,-13,o),
(480,50,o),
(480,157,cs),
(480,211,o),
(461,258,o),
(317,314,cs),
(286,326,ls),
(227,349,o),
(209,371,o),
(209,394,cs),
(209,480,o),
(297,617,o),
(342,617,cs),
(351,617,o),
(351,611,o),
(351,602,cs),
(351,579,o),
(323,520,o),
(323,480,cs),
(323,427,o),
(385,373,o),
(418,373,cs),
(432,373,o),
(436,382,o),
(439,394,cs),
(454,452,o),
(491,530,o),
(491,583,cs),
(491,610,o),
(472,664,o),
(418,681,c),
(388,720,o),
(359,725,o),
(313,725,cs),
(174,725,o),
(45,500,o),
(45,381,cs),
(45,305,o),
(80,268,o),
(193,225,cs),
(227,212,ls),
(309,181,o),
(314,162,o),
(314,137,cs)
);
}
);
width = 523;
}
);
note = S;
unicode = 83;
},
{
color = 4;
glyphname = T;
kernLeft = T;
kernRight = T;
lastChange = "2023-04-28 10:51:46 +0000";
layers = (
{
anchors = (
{
name = bottom;
pos = (242,-35);
},
{
name = cedilla;
pos = (245,10);
},
{
name = top.case;
pos = (270,740);
}
);
background = {
shapes = (
{
closed = 1;
nodes = (
(162,79,ls),
(159,29,o),
(247,-14,o),
(287,-14,cs),
(310,-14,o),
(317,-8,o),
(318,11,cs),
(354,597,l),
(405,600,o),
(450,603,o),
(483,603,cs),
(496,603,o),
(508,602,o),
(522,602,cs),
(530,602,o),
(533,609,o),
(533,614,cs),
(533,676,o),
(412,732,o),
(352,732,cs),
(288,732,o),
(47,702,o),
(9,702,cs),
(0,702,o),
(-10,698,o),
(-10,686,cs),
(-10,599,o),
(130,579,o),
(190,585,c)
);
}
);
};
hints = (
{
horizontal = 1;
place = (-14,21);
target = up;
type = BottomGhost;
},
{
horizontal = 1;
place = (603,129);
type = Stem;
},
{
place = (162,173);
type = Stem;
},
{
place = (190,146);
type = Stem;
}
);
layerId = "053302AA-4A2A-42DC-B919-9CC4D126D2B5";
shapes = (
{
closed = 1;
nodes = (
(196,641,l),
(171,173,ls),
(163,30,o),
(234,-14,o),
(283,-14,cs),
(306,-14,o),
(313,-8,o),
(314,11,cs),
(351,641,l)
);
},
{
closed = 1;
nodes = (
(223,571,o),
(362,596,o),
(486,596,cs),
(498,596,o),
(508,595,o),
(521,595,cs),
(529,595,o),
(532,598,o),
(532,606,cs),
(532,663,o),
(430,732,o),
(354,732,cs),
(296,732,o),
(51,704,o),
(10,704,cs),
(-4,704,o),
(-10,697,o),
(-10,687,cs),
(-10,638,o),
(56,571,o),
(131,571,cs)
);
}
);
width = 519;
}
);
note = T;
unicode = 84;
},
{
color = 4;
glyphname = Tbar;
kernLeft = T;
kernRight = T;
lastChange = "2023-04-28 10:58:58 +0000";
layers = (
{
background = {
shapes = (
{
closed = 1;
nodes = (
(162,79,ls),
(159,29,o),
(247,-14,o),
(287,-14,cs),
(310,-14,o),
(317,-8,o),
(318,11,cs),
(338,340,l),
(414,345,ls),
(440,347,o),
(458,357,o),
(458,366,cs),
(458,396,o),
(411,460,o),
(369,460,c),
(345,457,l),
(354,597,l),
(405,600,o),
(450,603,o),
(483,603,cs),
(496,603,o),
(508,602,o),
(522,602,cs),
(530,602,o),
(533,609,o),
(533,614,cs),
(533,676,o),
(412,732,o),
(352,732,cs),
(288,732,o),
(47,702,o),
(9,702,cs),
(0,702,o),
(-10,698,o),
(-10,686,cs),
(-10,599,o),
(130,579,o),
(190,585,c),
(182,438,l),
(134,433,ls),
(86,427,o),
(69,412,o),
(69,400,cs),
(69,383,o),
(101,340,o),
(130,327,c),
(176,330,l)
);
}
);
};
hints = (
{
horizontal = 1;
place = (-14,21);
target = up;
type = BottomGhost;
},
{
horizontal = 1;
place = (336,124);
type = Stem;
},
{
horizontal = 1;
place = (603,129);
type = Stem;
},
{
place = (163,173);
type = Stem;
},
{
horizontal = 1;
place = (327,21);
target = up;
type = BottomGhost;
},
{
place = (190,146);
type = Stem;
}
);
layerId = "053302AA-4A2A-42DC-B919-9CC4D126D2B5";
shapes = (
{
closed = 1;
nodes = (
(250,323,o),
(319,346,o),
(425,346,cs),
(435,346,o),
(443,346,o),
(455,346,cs),
(461,346,o),
(464,348,o),
(464,355,cs),
(464,399,o),
(410,459,o),
(359,459,cs),
(302,459,o),
(113,428,o),
(78,428,cs),
(66,428,o),
(61,422,o),
(61,414,cs),
(61,375,o),
(113,323,o),
(171,323,cs)
);
},
{
ref = T;
}
);
width = 519;
}
);
metricLeft = T;
metricRight = T;
note = Tbar;
unicode = 358;
},
{
color = 4;
glyphname = U;
kernLeft = U;
kernRight = J;
lastChange = "2023-04-28 11:00:04 +0000";
layers = (
{
anchors = (
{
name = bottom;
pos = (287,-35);
},
{
name = horn;
pos = (469,731);
},
{
name = ogonek;
pos = (308,10);
},
{
name = top.case;
pos = (310,740);
}
);
background = {
shapes = (
{
closed = 1;
nodes = (
(358,-11,o),
(482,25,o),
(500,185,cs),
(517,339,o),
(535,502,o),
(535,634,cs),
(535,697,o),
(465,728,o),
(415,728,cs),
(396,728,o),
(381,723,o),
(378,713,c),
(378,713,o),
(366,301,o),
(354,223,cs),
(343,153,o),
(318,139,o),
(281,139,cs),
(240,139,o),
(221,178,o),
(221,228,cs),
(221,366,o),
(239,514,o),
(239,634,cs),
(239,697,o),
(172,728,o),
(122,728,cs),
(103,728,o),
(88,723,o),
(85,713,c),
(85,713,o),
(65,262,o),
(65,183,cs),
(65,46,o),
(195,-11,o),
(279,-11,cs)
);
}
);
};
hints = (
{
horizontal = 1;
place = (-11,150);
type = Stem;
},
{
horizontal = 1;
place = (728,-20);
target = down;
type = TopGhost;
},
{
place = (65,156);
type = Stem;
},
{
place = (65,174);
type = Stem;
}
);
layerId = "053302AA-4A2A-42DC-B919-9CC4D126D2B5";
shapes = (
{
closed = 1;
nodes = (
(358,-11,o),
(482,25,o),
(500,185,cs),
(517,339,o),
(530,502,o),
(533,598,cs),
(537,697,o),
(465,728,o),
(415,728,cs),
(396,728,o),
(379,723,o),
(377,686,cs),
(374,626,o),
(364,287,o),
(354,223,cs),
(343,153,o),
(318,139,o),
(281,139,cs),
(240,139,o),
(221,178,o),
(221,228,cs),
(221,373,o),
(238,530,o),
(238,577,cs),
(238,698,o),
(171,728,o),
(122,728,cs),
(103,728,o),
(85,723,o),
(84,691,cs),
(82,643,o),
(65,242,o),
(65,183,cs),
(65,46,o),
(195,-11,o),
(279,-11,cs)
);
}
);
width = 584;
}
);
note = U;
unicode = 85;
},
{
color = 4;
glyphname = V;
kernLeft = V;
kernRight = V;
lastChange = "2023-04-28 11:09:01 +0000";
layers = (
{
background = {
shapes = (
{
closed = 1;
nodes = (
(388,206,o),
(535,582,o),
(546,617,cs),
(569,690,o),
(512,732,o),
(467,732,cs),
(449,732,o),
(436,723,o),
(433,714,cs),
(412,647,o),
(317,330,o),
(226,177,c),
(223,177,l),
(172,611,ls),
(165,672,o),
(121,723,o),
(66,723,cs),
(50,723,o),
(38,719,o),
(33,711,c),
(87,134,ls),
(93,75,o),
(120,40,o),
(172,23,c),
(198,-3,o),
(225,-15,o),
(264,-15,cs),
(276,-15,o),
(281,-6,o),
(285,1,cs)
);
}
);
};
hints = (
{
horizontal = 1;
place = (-75,21);
target = up;
type = BottomGhost;
},
{
horizontal = 1;
place = (666,-20);
target = down;
type = TopGhost;
}
);
layerId = "053302AA-4A2A-42DC-B919-9CC4D126D2B5";
shapes = (
{
closed = 1;
nodes = (
(419,206,o),
(566,582,o),
(577,617,cs),
(581,629,o),
(582,639,o),
(582,649,cs),
(582,702,o),
(536,732,o),
(498,732,cs),
(480,732,o),
(467,723,o),
(464,714,cs),
(443,647,o),
(348,330,o),
(257,177,c),
(254,177,l),
(218,595,ls),
(211,672,o),
(152,723,o),
(97,723,cs),
(81,723,o),
(69,719,o),
(64,711,c),
(118,134,ls),
(124,75,o),
(151,40,o),
(203,23,c),
(229,-3,o),
(256,-15,o),
(295,-15,cs),
(307,-15,o),
(312,-6,o),
(316,1,cs)
);
}
);
width = 570;
},
{
associatedMasterId = "053302AA-4A2A-42DC-B919-9CC4D126D2B5";
background = {
shapes = (
{
angle = 180;
pos = (576,685);
ref = A;
}
);
};
hints = (
{
horizontal = 1;
place = (-15,21);
target = up;
type = BottomGhost;
},
{
horizontal = 1;
place = (726,-20);
target = down;
type = TopGhost;
}
);
layerId = "AB5B1AA5-6090-4EDE-97F9-D4ACB140BD36";
name = "Mar 23 20, 18:52";
shapes = (
{
closed = 1;
nodes = (
(444,206,o),
(563,609,o),
(563,636,cs),
(562,691,o),
(492,726,o),
(447,726,cs),
(431,726,o),
(419,722,o),
(415,714,c),
(415,714,o),
(337,377,o),
(290,221,c),
(287,221,l),
(203,611,ls),
(190,672,o),
(119,723,o),
(64,723,cs),
(48,723,o),
(36,719,o),
(32,711,c),
(141,134,ls),
(160,35,o),
(246,-15,o),
(343,-15,cs),
(355,-15,o),
(359,-6,o),
(362,1,cs)
);
}
);
width = 570;
}
);
note = V;
unicode = 86;
},
{
color = 4;
glyphname = W;
kernLeft = V;
kernRight = V;
lastChange = "2023-04-28 11:09:01 +0000";
layers = (
{
anchors = (
{
name = top.case;
pos = (426,740);
}
);
background = {
shapes = (
{
closed = 1;
nodes = (
(392,181,ls),
(391,112,o),
(414,58,o),
(464,37,c),
(491,3,o),
(529,-6,o),
(556,-6,cs),
(568,-6,o),
(574,-2,o),
(579,9,cs),
(674,214,o),
(810,577,o),
(817,591,cs),
(822,602,o),
(825,613,o),
(826,623,cs),
(833,692,o),
(782,721,o),
(745,721,cs),
(727,721,o),
(713,716,o),
(709,706,c),
(709,706,o),
(616,380,o),
(526,196,c),
(524,196,l),
(516,545,ls),
(515,575,o),
(491,603,o),
(455,614,c),
(419,640,o),
(374,643,o),
(365,617,cs),
(316,471,o),
(274,324,o),
(214,199,c),
(212,199,l),
(190,623,ls),
(187,680,o),
(141,720,o),
(75,720,cs),
(57,720,o),
(50,714,o),
(52,687,cs),
(81,175,ls),
(84,116,o),
(104,68,o),
(146,48,c),
(171,9,o),
(216,-6,o),
(245,-6,cs),
(257,-6,o),
(263,-2,o),
(268,9,cs),
(310,100,o),
(354,248,o),
(392,360,c),
(394,360,l)
);
}
);
};
hints = (
{
horizontal = 1;
place = (-6,21);
target = up;
type = BottomGhost;
},
{
horizontal = 1;
place = (721,-20);
target = down;
type = TopGhost;
},
{
horizontal = 1;
place = (720,-20);
target = down;
type = TopGhost;
}
);
layerId = "053302AA-4A2A-42DC-B919-9CC4D126D2B5";
shapes = (
{
closed = 1;
nodes = (
(392,181,ls),
(391,112,o),
(414,58,o),
(464,37,c),
(491,3,o),
(529,-6,o),
(556,-6,cs),
(568,-6,o),
(574,-2,o),
(579,9,cs),
(674,214,o),
(778,489,o),
(806,563,cs),
(816,589,o),
(821,613,o),
(821,634,cs),
(821,687,o),
(791,721,o),
(745,721,cs),
(727,721,o),
(713,716,o),
(709,706,c),
(709,706,o),
(616,380,o),
(526,196,c),
(524,196,l),
(516,545,ls),
(515,575,o),
(491,603,o),
(455,614,c),
(436,628,o),
(414,635,o),
(397,635,cs),
(381,635,o),
(369,629,o),
(365,617,cs),
(316,471,o),
(274,324,o),
(214,199,c),
(212,199,l),
(190,623,ls),
(187,680,o),
(141,720,o),
(75,720,cs),
(57,720,o),
(50,714,o),
(52,687,cs),
(81,175,ls),
(84,116,o),
(104,68,o),
(146,48,c),
(171,9,o),
(216,-6,o),
(245,-6,cs),
(257,-6,o),
(263,-2,o),
(268,9,cs),
(310,100,o),
(354,248,o),
(392,360,c),
(394,360,l)
);
}
);
width = 846;
}
);
note = W;
unicode = 87;
},
{
color = 4;
glyphname = X;
kernRight = K;
lastChange = "2023-04-28 11:09:01 +0000";
layers = (
{
background = {
shapes = (
{
closed = 1;
nodes = (
(179,335,o),
(103,221,o),
(36,125,cs),
(-25,36,o),
(19,-37,o),
(69,-35,cs),
(76,-35,o),
(82,-31,o),
(85,-26,c),
(310,303,l),
(247,438,l)
);
},
{
closed = 1;
nodes = (
(292,133,cs),
(345,17,o),
(416,-59,o),
(526,11,c),
(283,593,ls),
(226,730,o),
(115,767,o),
(53,698,c),
(172,404,o),
(200,334,o)
);
},
{
closed = 1;
nodes = (
(509,563,ls),
(584,673,o),
(538,760,o),
(481,758,cs),
(476,758,o),
(471,757,o),
(467,754,c),
(472,754,o),
(378,605,o),
(262,429,c),
(325,295,l)
);
}
);
};
hints = (
{
horizontal = 1;
place = (-84,21);
target = up;
type = BottomGhost;
},
{
horizontal = 1;
place = (704,-20);
target = down;
type = TopGhost;
}
);
layerId = "053302AA-4A2A-42DC-B919-9CC4D126D2B5";
shapes = (
{
closed = 1;
nodes = (
(179,335,o),
(103,221,o),
(36,125,cs),
(15,94,o),
(6,65,o),
(6,41,cs),
(6,-5,o),
(35,-35,o),
(67,-35,cs),
(75,-35,o),
(82,-31,o),
(85,-26,c),
(310,303,l),
(247,438,l)
);
},
{
closed = 1;
nodes = (
(302,133,cs),
(341,48,o),
(384,-16,o),
(448,-16,cs),
(471,-16,o),
(497,-8,o),
(526,11,c),
(273,593,ls),
(233,685,o),
(175,732,o),
(123,732,cs),
(97,732,o),
(73,721,o),
(53,698,c),
(172,404,o),
(210,334,o)
);
},
{
closed = 1;
nodes = (
(509,563,ls),
(537,604,o),
(548,642,o),
(548,673,cs),
(548,725,o),
(518,758,o),
(483,758,cs),
(477,758,o),
(472,757,o),
(467,754,c),
(472,754,o),
(378,605,o),
(262,429,c),
(325,295,l)
);
}
);
width = 557;
},
{
associatedMasterId = "053302AA-4A2A-42DC-B919-9CC4D126D2B5";
background = {
shapes = (
{
closed = 1;
nodes = (
(367,348,l),
(519,610,ls),
(525,620,o),
(527,630,o),
(527,641,cs),
(527,693,o),
(472,752,o),
(430,752,cs),
(425,752,o),
(420,751,o),
(417,748,c),
(417,748,o),
(340,596,o),
(280,506,c),
(207,619,ls),
(155,699,o),
(132,703,o),
(90,703,cs),
(67,703,o),
(44,693,o),
(26,669,c),
(26,669,o),
(131,501,o),
(206,379,c),
(31,90,ls),
(25,79,o),
(21,70,o),
(21,62,cs),
(21,24,o),
(86,-36,o),
(115,-36,cs),
(122,-36,o),
(127,-32,o),
(130,-27,cs),
(162,24,o),
(241,141,o),
(286,214,c),
(365,86,ls),
(395,37,o),
(441,1,o),
(483,1,cs),
(503,1,o),
(530,11,o),
(542,33,c)
);
}
);
};
hints = (
{
horizontal = 1;
place = (-84,21);
target = up;
type = BottomGhost;
},
{
horizontal = 1;
place = (704,-20);
target = down;
type = TopGhost;
}
);
layerId = "3C4AE2FA-9D4F-4DC3-B86B-2ED0AE5A3C60";
name = "Mar 23 20, 18:54";
shapes = (
{
closed = 1;
nodes = (
(367,348,l),
(519,610,ls),
(525,620,o),
(527,630,o),
(527,641,cs),
(527,693,o),
(472,752,o),
(430,752,cs),
(425,752,o),
(420,751,o),
(417,748,c),
(417,748,o),
(340,596,o),
(280,506,c),
(207,619,ls),
(155,699,o),
(132,703,o),
(90,703,cs),
(67,703,o),
(44,693,o),
(26,669,c),
(26,669,o),
(131,501,o),
(206,379,c),
(31,90,ls),
(25,79,o),
(21,70,o),
(21,62,cs),
(21,24,o),
(86,-36,o),
(115,-36,cs),
(122,-36,o),
(127,-32,o),
(130,-27,cs),
(162,24,o),
(241,141,o),
(286,214,c),
(365,86,ls),
(395,37,o),
(441,1,o),
(483,1,cs),
(503,1,o),
(530,11,o),
(542,33,c)
);
}
);
width = 557;
}
);
note = X;
unicode = 88;
},
{
color = 4;
glyphname = Y;
kernLeft = Y;
kernRight = Y;
lastChange = "2023-04-28 11:09:01 +0000";
layers = (
{
anchors = (
{
name = bottom;
pos = (214,-58);
},
{
name = top.case;
pos = (305,740);
}
);
background = {
shapes = (
{
closed = 1;
nodes = (
(586,660,o),
(556,731,o),
(513,731,cs),
(497,731,o),
(490,723,o),
(468,690,cs),
(395,584,o),
(349,507,o),
(255,367,c),
(311,348,l),
(217,624,ls),
(172,755,o),
(4,768,o),
(42,662,cs),
(191,246,l),
(304,208,l),
(408,370,o),
(538,571,o),
(551,594,cs)
);
},
{
closed = 1;
nodes = (
(184,339,l),
(165,190,o),
(157,141,o),
(152,91,cs),
(140,-21,o),
(222,-39,o),
(261,-39,cs),
(273,-39,o),
(282,-36,o),
(284,-24,cs),
(299,72,o),
(321,198,o),
(337,323,c)
);
}
);
};
hints = (
{
horizontal = 1;
place = (-43,21);
target = up;
type = BottomGhost;
},
{
horizontal = 1;
place = (728,-20);
target = down;
type = TopGhost;
}
);
layerId = "053302AA-4A2A-42DC-B919-9CC4D126D2B5";
shapes = (
{
closed = 1;
nodes = (
(562,614,o),
(566,635,o),
(566,654,cs),
(566,697,o),
(543,731,o),
(513,731,cs),
(497,731,o),
(487,723,o),
(468,690,cs),
(395,564,o),
(349,488,o),
(255,367,c),
(311,348,l),
(217,624,ls),
(192,697,o),
(130,733,o),
(85,733,cs),
(57,733,o),
(36,719,o),
(36,690,cs),
(36,682,o),
(38,673,o),
(42,662,cs),
(191,246,l),
(304,208,l),
(408,370,o),
(538,571,o),
(551,594,cs)
);
},
{
closed = 1;
nodes = (
(184,339,l),
(165,190,o),
(157,141,o),
(152,91,cs),
(151,83,o),
(151,76,o),
(151,70,cs),
(151,-23,o),
(225,-39,o),
(261,-39,cs),
(273,-39,o),
(282,-36,o),
(284,-24,cs),
(299,72,o),
(321,198,o),
(337,323,c)
);
}
);
width = 570;
}
);
note = Y;
unicode = 89;
},
{
color = 4;
glyphname = Z;
kernLeft = Z;
kernRight = Z;
lastChange = "2023-04-28 11:09:01 +0000";
layers = (
{
anchors = (
{
name = bottom;
pos = (254,-35);
},
{
name = top.case;
pos = (273,740);
}
);
background = {
shapes = (
{
closed = 1;
nodes = (
(469,86,o),
(377,126,o),
(322,126,cs),
(276,126,o),
(166,104,o),
(131,93,c),
(150,9,l),
(252,198,o),
(377,410,o),
(498,569,cs),
(509,584,o),
(516,591,o),
(518,602,cs),
(521,629,o),
(498,666,o),
(457,678,c),
(437,701,o),
(393,721,o),
(361,721,cs),
(304,721,o),
(84,682,o),
(62,679,cs),
(54,678,o),
(40,673,o),
(40,662,cs),
(40,626,o),
(75,559,o),
(169,559,cs),
(207,559,o),
(312,593,o),
(358,596,c),
(374,646,l),
(56,131,ls),
(42,109,o),
(37,88,o),
(37,66,cs),
(37,31,o),
(118,-27,o),
(162,-27,cs),
(214,-27,o),
(351,15,o),
(412,22,cs),
(456,27,o),
(469,32,o),
(469,46,cs)
);
}
);
};
hints = (
{
horizontal = 1;
place = (-14,139);
type = Stem;
},
{
horizontal = 1;
place = (597,132);
type = Stem;
},
{
horizontal = 1;
place = (-4,21);
target = up;
type = BottomGhost;
},
{
horizontal = 1;
place = (-6,21);
target = up;
type = BottomGhost;
}
);
layerId = "053302AA-4A2A-42DC-B919-9CC4D126D2B5";
shapes = (
{
closed = 1;
nodes = (
(469,86,o),
(377,126,o),
(322,126,cs),
(276,126,o),
(166,104,o),
(131,93,c),
(169,17,l),
(265,203,o),
(384,412,o),
(498,569,cs),
(511,586,o),
(518,593,o),
(518,607,cs),
(518,633,o),
(496,667,o),
(457,678,c),
(437,701,o),
(393,721,o),
(361,721,cs),
(304,721,o),
(84,682,o),
(62,679,cs),
(54,678,o),
(40,673,o),
(40,662,cs),
(40,626,o),
(75,559,o),
(169,559,cs),
(207,559,o),
(312,593,o),
(358,596,c),
(351,646,l),
(56,131,ls),
(42,109,o),
(37,88,o),
(37,66,cs),
(37,50,o),
(58,31,o),
(85,18,c),
(102,-13,o),
(138,-27,o),
(162,-27,cs),
(214,-27,o),
(351,15,o),
(412,22,cs),
(456,27,o),
(469,32,o),
(469,46,cs)
);
}
);
width = 506;
},
{
associatedMasterId = "053302AA-4A2A-42DC-B919-9CC4D126D2B5";
hints = (
{
horizontal = 1;
place = (-14,139);
type = Stem;
},
{
horizontal = 1;
place = (597,132);
type = Stem;
},
{
horizontal = 1;
place = (-4,21);
target = up;
type = BottomGhost;
},
{
horizontal = 1;
place = (-6,21);
target = up;
type = BottomGhost;
}
);
layerId = "2C4CB880-A6E4-41B4-9FDC-0112A39036F0";
name = "Mar 23 20, 18:58";
shapes = (
{
closed = 1;
nodes = (
(467,104,o),
(349,125,o),
(294,125,cs),
(258,125,o),
(224,120,o),
(192,119,c),
(192,119,o),
(367,433,o),
(474,590,c),
(484,590,o),
(488,596,o),
(488,602,cs),
(488,655,o),
(404,715,o),
(340,721,cs),
(287,726,o),
(88,728,o),
(50,729,cs),
(41,729,o),
(28,723,o),
(28,711,cs),
(28,617,o),
(172,597,o),
(236,597,cs),
(263,597,o),
(284,600,o),
(300,602,c),
(48,191,ls),
(36,172,o),
(31,147,o),
(31,126,cs),
(31,29,o),
(143,-14,o),
(220,-14,cs),
(272,-14,o),
(332,-4,o),
(394,-4,cs),
(420,-4,o),
(433,-6,o),
(446,-6,cs),
(464,-6,o),
(467,11,o),
(467,28,cs)
);
}
);
width = 506;
}
);
note = Z;
unicode = 90;
},
{
color = 4;
glyphname = a;
kernLeft = a;
kernRight = a;
lastChange = "2023-04-28 14:12:04 +0000";
layers = (
{
anchors = (
{
name = bottom;
pos = (244,-35);
},
{
name = ogonek;
pos = (357,10);
},
{
name = top;
pos = (288,605);
}
);
background = {
shapes = (
{
closed = 1;
nodes = (
(293,169,l),
(267,142,o),
(203,110,o),
(173,111,cs),
(162,111,o),
(155,115,o),
(155,128,cs),
(155,166,o),
(211,217,o),
(255,217,cs),
(269,217,o),
(283,212,o),
(295,200,c)
);
},
{
closed = 1;
nodes = (
(200,583,o),
(51,513,o),
(51,479,cs),
(51,448,o),
(121,397,o),
(162,397,cs),
(191,397,o),
(253,453,o),
(301,468,c),
(305,421,o),
(301,358,o),
(294,308,c),
(263,322,o),
(239,324,o),
(209,324,cs),
(99,324,o),
(7,238,o),
(7,122,cs),
(7,39,o),
(90,-14,o),
(164,-14,cs),
(232,-14,o),
(298,45,o),
(331,104,c),
(279,97,l),
(279,34,o),
(376,-14,o),
(425,-14,c),
(438,145,o),
(452,328,o),
(457,435,cs),
(461,513,o),
(351,583,o),
(292,583,cs)
);
}
);
};
hints = (
{
horizontal = 1;
place = (-14,125);
type = Stem;
},
{
horizontal = 1;
place = (217,107);
type = Stem;
},
{
horizontal = 1;
place = (583,-20);
target = down;
type = TopGhost;
}
);
layerId = "053302AA-4A2A-42DC-B919-9CC4D126D2B5";
shapes = (
{
closed = 1;
nodes = (
(293,169,l),
(267,142,o),
(205,111,o),
(174,111,cs),
(163,111,o),
(155,114,o),
(155,128,cs),
(155,166,o),
(211,217,o),
(255,217,cs),
(269,217,o),
(283,212,o),
(295,200,c)
);
},
{
closed = 1;
nodes = (
(340,575,o),
(306,584,o),
(271,584,cs),
(165,584,o),
(51,505,o),
(51,479,cs),
(51,448,o),
(121,397,o),
(162,397,cs),
(209,397,o),
(242,468,o),
(287,468,cs),
(304,468,o),
(309,445,o),
(309,414,cs),
(309,379,o),
(302,335,o),
(298,308,c),
(267,322,o),
(239,324,o),
(209,324,cs),
(99,324,o),
(7,240,o),
(7,124,cs),
(7,88,o),
(20,60,o),
(61,37,c),
(84,-3,o),
(122,-14,o),
(164,-14,cs),
(232,-14,o),
(298,45,o),
(331,104,c),
(279,97,l),
(279,34,o),
(376,-14,o),
(425,-14,c),
(443,-14,o),
(449,-1,o),
(449,18,cs),
(449,49,o),
(435,96,o),
(437,128,cs),
(448,256,o),
(460,382,o),
(460,419,cs),
(460,498,o),
(433,535,o),
(369,554,c)
);
}
);
width = 492;
}
);
note = a;
unicode = 97;
},
{
color = 4;
glyphname = ae;
kernLeft = a;
kernRight = e;
lastChange = "2023-04-28 11:12:34 +0000";
layers = (
{
anchors = (
{
name = top;
pos = (403,605);
}
);
background = {
shapes = (
{
closed = 1;
nodes = (
(293,169,l),
(236,125,o),
(208,111,o),
(153,111,c),
(160,168,o),
(211,217,o),
(255,217,cs),
(269,217,o),
(283,212,o),
(295,200,c)
);
},
{
closed = 1;
nodes = (
(200,583,o),
(51,513,o),
(51,479,cs),
(51,448,o),
(121,397,o),
(162,397,cs),
(191,397,o),
(253,453,o),
(301,468,c),
(305,421,o),
(301,358,o),
(294,308,c),
(263,322,o),
(239,324,o),
(209,324,cs),
(99,324,o),
(7,238,o),
(7,122,cs),
(7,39,o),
(90,-14,o),
(173,-14,cs),
(221,-14,o),
(268,3,o),
(301,42,c),
(321,8,o),
(388,-14,o),
(425,-14,c),
(438,145,o),
(452,328,o),
(457,435,cs),
(461,513,o),
(351,583,o),
(292,583,cs)
);
},
{
closed = 1;
nodes = (
(445,117,cs),
(404,117,o),
(382,140,o),
(384,201,cs),
(388,305,o),
(464,473,o),
(538,473,cs),
(552,473,o),
(559,465,o),
(559,452,cs),
(557,389,o),
(453,253,o),
(383,253,cs),
(311,253,o),
(378,173,o),
(421,173,cs),
(530,173,o),
(678,322,o),
(688,402,cs),
(697,476,o),
(592,583,o),
(516,583,cs),
(341,583,o),
(265,377,o),
(245,212,cs),
(232,110,o),
(328,-12,o),
(408,-12,cs),
(514,-12,o),
(671,65,o),
(681,144,cs),
(685,179,o),
(668,201,o),
(637,216,c),
(567,156,o),
(496,117,o)
);
}
);
};
hints = (
{
horizontal = 1;
place = (-14,125);
type = Stem;
},
{
horizontal = 1;
place = (217,107);
type = Stem;
},
{
horizontal = 1;
place = (583,-20);
target = down;
type = TopGhost;
},
{
horizontal = 1;
place = (-12,131);
type = Stem;
},
{
horizontal = 1;
place = (153,110);
type = Stem;
},
{
place = (585,149);
type = Stem;
},
{
horizontal = 1;
place = (-14,125);
type = Stem;
},
{
horizontal = 1;
place = (217,107);
type = Stem;
},
{
horizontal = 1;
place = (583,-20);
target = down;
type = TopGhost;
},
{
horizontal = 1;
place = (-12,131);
type = Stem;
},
{
horizontal = 1;
place = (153,110);
type = Stem;
},
{
horizontal = 1;
place = (583,-20);
target = down;
type = TopGhost;
},
{
place = (792,149);
type = Stem;
}
);
layerId = "053302AA-4A2A-42DC-B919-9CC4D126D2B5";
metricRight = "=35";
shapes = (
{
closed = 1;
nodes = (
(513,-12,o),
(670,65,o),
(680,144,cs),
(684,179,o),
(667,201,o),
(636,216,c),
(566,156,o),
(495,117,o),
(444,117,cs),
(405,117,o),
(383,138,o),
(383,194,cs),
(383,297,o),
(461,473,o),
(537,473,cs),
(551,473,o),
(558,465,o),
(558,452,cs),
(556,389,o),
(452,253,o),
(382,253,cs),
(359,253,o),
(350,245,o),
(350,234,cs),
(350,210,o),
(391,173,o),
(420,173,cs),
(533,173,o),
(688,333,o),
(688,411,cs),
(688,484,o),
(588,583,o),
(515,583,cs),
(340,583,o),
(264,377,o),
(244,212,cs),
(243,206,o),
(243,199,o),
(243,193,cs),
(243,95,o),
(332,-12,o),
(407,-12,cs)
);
},
{
closed = 1;
nodes = (
(221,-14,o),
(271,0,o),
(313,58,c),
(282,161,l),
(232,123,o),
(204,111,o),
(153,111,c),
(160,168,o),
(211,217,o),
(255,217,cs),
(259,217,o),
(264,217,o),
(268,215,c),
(282,313,l),
(257,322,o),
(235,324,o),
(209,324,cs),
(99,324,o),
(7,238,o),
(7,122,cs),
(7,39,o),
(90,-14,o),
(173,-14,cs)
);
},
{
closed = 1;
nodes = (
(457,449,l),
(448,521,o),
(347,583,o),
(292,583,cs),
(200,583,o),
(51,513,o),
(51,479,cs),
(51,448,o),
(121,397,o),
(162,397,cs),
(191,397,o),
(253,453,o),
(301,468,c),
(302,454,o),
(303,439,o),
(303,423,cs),
(303,407,o),
(302,391,o),
(301,375,c)
);
}
);
width = 723;
}
);
metricLeft = a;
metricRight = e;
note = ae;
unicode = 230;
},
{
color = 4;
glyphname = b;
kernLeft = b;
kernRight = b;
lastChange = "2023-04-28 11:18:11 +0000";
layers = (
{
background = {
shapes = (
{
closed = 1;
nodes = (
(218,584,o),
(175,554,o),
(151,525,c),
(201,470,l),
(219,663,ls),
(219,667,o),
(220,686,o),
(220,691,cs),
(220,726,o),
(166,774,o),
(122,774,cs),
(100,774,o),
(77,771,o),
(73,740,cs),
(57,597,o),
(39,258,o),
(33,156,cs),
(30,102,o),
(37,-37,o),
(163,29,c),
(179,0,o),
(214,-14,o),
(250,-14,cs),
(389,-14,o),
(500,171,o),
(500,333,cs),
(500,395,o),
(487,467,o),
(407,509,c),
(373,562,o),
(321,584,o),
(268,584,cs)
);
},
{
closed = 1;
nodes = (
(211,457,l),
(188,357,l),
(230,437,o),
(263,471,o),
(307,471,cs),
(339,471,o),
(354,428,o),
(354,372,cs),
(354,266,o),
(307,95,o),
(219,95,cs),
(185,95,o),
(152,121,o),
(132,153,c),
(167,54,l)
);
}
);
};
hints = (
{
horizontal = 1;
place = (-14,132);
type = Stem;
},
{
horizontal = 1;
place = (448,132);
type = Stem;
},
{
horizontal = 1;
place = (774,-20);
target = down;
type = TopGhost;
},
{
place = (352,153);
type = Stem;
}
);
layerId = "053302AA-4A2A-42DC-B919-9CC4D126D2B5";
shapes = (
{
closed = 1;
nodes = (
(204,457,l),
(188,357,l),
(230,437,o),
(257,458,o),
(301,458,cs),
(333,458,o),
(348,415,o),
(348,359,cs),
(348,253,o),
(307,95,o),
(219,95,cs),
(185,95,o),
(152,121,o),
(132,153,c),
(160,54,l)
);
},
{
closed = 1;
nodes = (
(225,725,o),
(154,774,o),
(100,774,cs),
(80,774,o),
(76,762,o),
(74,748,cs),
(54,609,o),
(33,249,o),
(33,145,cs),
(33,97,o),
(40,12,o),
(105,12,cs),
(120,12,o),
(140,17,o),
(163,29,c),
(179,0,o),
(214,-14,o),
(250,-14,cs),
(389,-14,o),
(500,171,o),
(500,333,cs),
(500,395,o),
(487,456,o),
(417,511,c),
(377,561,o),
(321,584,o),
(268,584,cs),
(218,584,o),
(175,554,o),
(151,525,c),
(201,470,l),
(218,651,ls)
);
}
);
width = 532;
}
);
note = b;
unicode = 98;
},
{
color = 4;
glyphname = c;
kernLeft = c;
kernRight = c;
lastChange = "2023-04-28 11:18:11 +0000";
layers = (
{
anchors = (
{
name = bottom;
pos = (220,-35);
},
{
name = cedilla;
pos = (216,10);
},
{
name = top;
pos = (270,605);
}
);
background = {
shapes = (
{
closed = 1;
nodes = (
(291,92,o),
(172,121,c),
(146,262,o),
(222,489,o),
(304,474,c),
(284,445,o),
(272,414,o),
(271,396,cs),
(270,374,o),
(336,307,o),
(365,307,cs),
(378,307,o),
(380,314,o),
(384,324,cs),
(400,370,o),
(423,417,o),
(423,452,cs),
(423,490,o),
(404,531,o),
(357,545,c),
(331,575,o),
(304,580,o),
(265,580,cs),
(112,580,o),
(17,405,o),
(17,212,cs),
(17,134,o),
(28,79,o),
(79,43,c),
(112,-9,o),
(172,-13,o),
(222,-13,cs),
(327,-13,o),
(417,70,o),
(417,165,cs),
(417,200,o),
(397,221,o),
(371,221,cs),
(356,221,o)
);
}
);
};
hints = (
{
horizontal = 1;
place = (-13,21);
target = up;
type = BottomGhost;
},
{
horizontal = 1;
place = (580,-20);
target = down;
type = TopGhost;
},
{
place = (12,154);
type = Stem;
},
{
place = (283,129);
type = Stem;
}
);
layerId = "053302AA-4A2A-42DC-B919-9CC4D126D2B5";
shapes = (
{
closed = 1;
nodes = (
(304,117,o),
(206,117,cs),
(195,117,o),
(184,118,o),
(172,121,c),
(168,140,o),
(167,161,o),
(167,183,cs),
(167,319,o),
(233,487,o),
(304,474,c),
(284,445,o),
(272,414,o),
(271,396,cs),
(270,374,o),
(336,307,o),
(365,307,cs),
(378,307,o),
(380,314,o),
(384,324,cs),
(400,370,o),
(423,417,o),
(423,452,cs),
(423,490,o),
(404,531,o),
(357,545,c),
(331,575,o),
(304,580,o),
(265,580,cs),
(112,580,o),
(17,405,o),
(17,212,cs),
(17,134,o),
(30,84,o),
(76,40,c),
(116,-5,o),
(172,-13,o),
(222,-13,cs),
(327,-13,o),
(417,70,o),
(417,165,cs),
(417,200,o),
(397,221,o),
(371,221,cs),
(358,221,o)
);
}
);
width = 433;
},
{
anchors = (
{
name = bottom;
pos = (220,-35);
},
{
name = cedilla;
pos = (216,10);
},
{
name = top;
pos = (270,605);
}
);
associatedMasterId = "053302AA-4A2A-42DC-B919-9CC4D126D2B5";
background = {
shapes = (
{
closed = 1;
nodes = (
(131,583,o),
(27,430,o),
(27,253,cs),
(27,84,o),
(130,-15,o),
(240,-15,cs),
(418,-15,o),
(495,148,o),
(495,343,cs),
(495,479,o),
(366,583,o),
(251,583,cs)
);
},
{
closed = 1;
nodes = (
(135,95,o),
(179,472,o),
(301,472,cs),
(386,472,o),
(342,95,o),
(220,95,cs)
);
}
);
};
hints = (
{
horizontal = 1;
place = (-13,21);
target = up;
type = BottomGhost;
},
{
horizontal = 1;
place = (580,-20);
target = down;
type = TopGhost;
},
{
place = (12,154);
type = Stem;
},
{
place = (283,129);
type = Stem;
}
);
layerId = "55CBD253-12B6-45AF-B4DA-7AE5F7190B07";
name = "Apr 7 20, 18:51";
shapes = (
{
closed = 1;
nodes = (
(160,180,cs),
(160,271,o),
(214,468,o),
(277,468,cs),
(293,468,o),
(294,460,o),
(294,451,cs),
(294,441,o),
(278,403,o),
(278,385,cs),
(278,365,o),
(326,320,o),
(355,320,cs),
(368,320,o),
(374,329,o),
(379,339,cs),
(394,369,o),
(423,414,o),
(423,464,cs),
(423,523,o),
(339,580,o),
(254,580,cs),
(59,580,o),
(14,320,o),
(14,220,cs),
(14,60,o),
(111,-13,o),
(214,-13,cs),
(316,-13,o),
(423,58,o),
(423,150,cs),
(423,188,o),
(401,228,o),
(373,228,cs),
(355,228,o),
(308,99,o),
(213,99,cs),
(182,99,o),
(160,124,o)
);
}
);
width = 433;
},
{
anchors = (
{
name = bottom;
pos = (220,-35);
},
{
name = cedilla;
pos = (216,10);
},
{
name = top;
pos = (270,605);
}
);
associatedMasterId = "053302AA-4A2A-42DC-B919-9CC4D126D2B5";
background = {
shapes = (
{
closed = 1;
nodes = (
(259,444,l),
(273,421,o),
(283,389,o),
(283,359,cs),
(283,344,o),
(281,330,o),
(277,314,c),
(374,314,o),
(412,374,o),
(412,434,cs),
(412,505,o),
(356,580,o),
(271,580,cs),
(76,580,o),
(12,321,o),
(12,136,cs),
(12,31,o),
(102,-13,o),
(195,-13,cs),
(303,-13,o),
(413,48,o),
(413,140,cs),
(413,178,o),
(399,212,o),
(364,223,c),
(297,161,o),
(241,136,o),
(166,119,c),
(166,266,o),
(189,375,o),
(257,444,c)
);
}
);
};
hints = (
{
horizontal = 1;
place = (-13,21);
target = up;
type = BottomGhost;
},
{
horizontal = 1;
place = (580,-20);
target = down;
type = TopGhost;
},
{
place = (12,154);
type = Stem;
},
{
place = (283,129);
type = Stem;
}
);
layerId = "1B0C6EA3-6BC5-46C2-9A03-5A30A2A90038";
name = "Apr 7 20, 18:53";
shapes = (
{
closed = 1;
nodes = (
(284,466,c),
(236,470,l),
(293,423,o),
(280,362,o),
(280,332,cs),
(280,318,o),
(286,314,o),
(297,314,cs),
(340,314,o),
(412,355,o),
(412,434,cs),
(412,505,o),
(356,580,o),
(271,580,cs),
(76,580,o),
(12,321,o),
(12,136,cs),
(12,31,o),
(102,-13,o),
(195,-13,cs),
(303,-13,o),
(413,48,o),
(413,140,cs),
(413,178,o),
(391,218,o),
(363,218,cs),
(345,218,o),
(280,128,o),
(120,110,c),
(167,61,l),
(159,284,o),
(204,424,o)
);
}
);
width = 433;
},
{
anchors = (
{
name = bottom;
pos = (220,-35);
},
{
name = cedilla;
pos = (216,10);
},
{
name = top;
pos = (270,605);
}
);
associatedMasterId = "053302AA-4A2A-42DC-B919-9CC4D126D2B5";
background = {
shapes = (
{
closed = 1;
nodes = (
(259,444,l),
(273,421,o),
(283,389,o),
(283,359,cs),
(283,344,o),
(281,330,o),
(277,314,c),
(374,314,o),
(412,374,o),
(412,434,cs),
(412,505,o),
(356,580,o),
(271,580,cs),
(76,580,o),
(12,321,o),
(12,136,cs),
(12,31,o),
(102,-13,o),
(195,-13,cs),
(303,-13,o),
(413,48,o),
(413,140,cs),
(413,178,o),
(399,212,o),
(364,223,c),
(297,161,o),
(241,136,o),
(166,119,c),
(166,266,o),
(189,375,o),
(257,444,c)
);
}
);
};
hints = (
{
horizontal = 1;
place = (-13,21);
target = up;
type = BottomGhost;
},
{
horizontal = 1;
place = (580,-20);
target = down;
type = TopGhost;
},
{
place = (12,154);
type = Stem;
},
{
place = (283,129);
type = Stem;
}
);
layerId = "4537E6D0-87CB-4B34-9998-D3B33305622B";
name = "Apr 7 20, 18:55";
shapes = (
{
closed = 1;
nodes = (
(284,466,c),
(236,470,l),
(293,423,o),
(280,362,o),
(280,332,cs),
(280,318,o),
(286,314,o),
(297,314,cs),
(340,314,o),
(412,355,o),
(412,434,cs),
(412,505,o),
(356,580,o),
(271,580,cs),
(76,580,o),
(12,321,o),
(12,136,cs),
(12,31,o),
(102,-13,o),
(195,-13,cs),
(303,-13,o),
(413,48,o),
(413,140,cs),
(413,178,o),
(391,218,o),
(363,218,cs),
(345,218,o),
(280,128,o),
(120,110,c),
(167,61,l),
(159,284,o),
(204,424,o)
);
}
);
width = 433;
}
);
note = c;
unicode = 99;
},
{
color = 4;
glyphname = d;
kernLeft = c;
kernRight = d;
lastChange = "2023-04-28 11:18:11 +0000";
layers = (
{
anchors = (
{
name = caron;
pos = (644,568);
}
);
background = {
shapes = (
{
closed = 1;
nodes = (
(259,-14,o),
(319,15,o),
(366,85,c),
(318,179,l),
(290,137,o),
(232,115,o),
(205,115,cs),
(181,115,o),
(166,131,o),
(166,158,cs),
(166,397,o),
(270,551,o),
(372,423,c),
(380,516,l),
(335,562,o),
(292,584,o),
(250,584,cs),
(124,584,o),
(21,415,o),
(21,231,cs),
(21,176,o),
(43,117,o),
(93,77,c),
(126,17,o),
(179,-14,o),
(222,-14,cs)
);
},
{
closed = 1;
nodes = (
(454,-15,o),
(460,-7,o),
(460,6,cs),
(460,159,o),
(485,423,o),
(508,651,cs),
(515,725,o),
(444,774,o),
(390,774,cs),
(370,774,o),
(366,762,o),
(364,748,cs),
(332,524,o),
(323,357,o),
(316,149,cs),
(312,21,o),
(400,-15,o),
(444,-15,cs)
);
}
);
};
hints = (
{
horizontal = 1;
place = (-14,137);
type = Stem;
},
{
horizontal = 1;
place = (400,119);
type = Stem;
},
{
horizontal = 1;
place = (758,-20);
target = down;
type = TopGhost;
},
{
place = (22,151);
type = Stem;
},
{
place = (353,79);
type = Stem;
},
{
place = (353,157);
type = Stem;
}
);
layerId = "053302AA-4A2A-42DC-B919-9CC4D126D2B5";
shapes = (
{
closed = 1;
nodes = (
(259,-14,o),
(319,15,o),
(366,85,c),
(320,185,l),
(292,143,o),
(239,123,o),
(212,123,cs),
(188,123,o),
(173,139,o),
(173,166,cs),
(173,344,o),
(227,470,o),
(296,470,cs),
(320,470,o),
(346,456,o),
(372,423,c),
(380,516,l),
(335,562,o),
(292,584,o),
(250,584,cs),
(124,584,o),
(21,415,o),
(21,231,cs),
(21,176,o),
(43,117,o),
(93,77,c),
(126,17,o),
(179,-14,o),
(222,-14,cs)
);
},
{
closed = 1;
nodes = (
(454,-15,o),
(460,-7,o),
(460,6,cs),
(460,159,o),
(485,423,o),
(508,651,cs),
(515,725,o),
(444,774,o),
(390,774,cs),
(370,774,o),
(366,762,o),
(364,748,cs),
(332,524,o),
(323,357,o),
(316,149,cs),
(312,21,o),
(400,-15,o),
(444,-15,cs)
);
}
);
width = 538;
},
{
associatedMasterId = "053302AA-4A2A-42DC-B919-9CC4D126D2B5";
hints = (
{
horizontal = 1;
place = (-14,137);
type = Stem;
},
{
horizontal = 1;
place = (400,119);
type = Stem;
},
{
horizontal = 1;
place = (758,-20);
target = down;
type = TopGhost;
},
{
place = (22,151);
type = Stem;
},
{
place = (353,79);
type = Stem;
},
{
place = (353,157);
type = Stem;
}
);
layerId = "A5D5821F-EA9C-4050-A9FD-CC264CEB16AA";
name = "Mar 23 20, 19:14";
shapes = (
{
closed = 1;
nodes = (
(103,519,o),
(22,422,o),
(22,219,cs),
(22,125,o),
(114,-14,o),
(209,-14,cs),
(416,-14,o),
(510,198,o),
(510,400,cs),
(510,583,o),
(421,758,o),
(256,758,cs),
(189,758,o),
(167,728,o),
(163,711,c),
(264,666,o),
(319,581,o),
(341,489,c),
(306,507,o),
(266,519,o),
(233,519,cs)
);
},
{
closed = 1;
nodes = (
(185,148,o),
(173,179,o),
(173,215,cs),
(173,304,o),
(212,400,o),
(297,400,cs),
(312,400,o),
(332,395,o),
(353,387,c),
(352,250,o),
(289,123,o),
(207,123,c)
);
}
);
width = 532;
}
);
note = d;
unicode = 100;
},
{
color = 4;
glyphname = eth;
kernLeft = c;
kernRight = b;
lastChange = "2023-04-28 11:18:11 +0000";
layers = (
{
background = {
shapes = (
{
closed = 1;
nodes = (
(380,457,l),
(335,498,o),
(292,518,o),
(250,518,cs),
(124,518,o),
(21,368,o),
(21,204,cs),
(21,99,o),
(142,-14,o),
(217,-14,cs),
(416,-14,o),
(510,198,o),
(510,400,cs),
(510,464,o),
(499,527,o),
(478,582,c),
(499,584,ls),
(522,586,o),
(543,596,o),
(543,605,cs),
(543,628,o),
(479,694,o),
(454,699,c),
(410,691,l),
(370,732,o),
(319,758,o),
(256,758,cs),
(189,758,o),
(167,728,o),
(163,711,c),
(197,696,o),
(226,676,o),
(250,653,c),
(243,652,ls),
(211,647,o),
(177,633,o),
(177,622,cs),
(177,607,o),
(209,568,o),
(239,556,c),
(315,562,l),
(430,373,o),
(324,93,o),
(204,93,cs),
(181,93,o),
(161,111,o),
(161,142,cs),
(161,346,o),
(270,488,o),
(372,375,c)
);
}
);
};
hints = (
{
horizontal = 1;
place = (-14,137);
type = Stem;
},
{
horizontal = 1;
place = (400,119);
type = Stem;
},
{
horizontal = 1;
place = (556,21);
target = up;
type = BottomGhost;
},
{
horizontal = 1;
place = (699,-20);
target = down;
type = TopGhost;
},
{
horizontal = 1;
place = (758,-20);
target = down;
type = TopGhost;
},
{
place = (22,151);
type = Stem;
},
{
place = (353,79);
type = Stem;
},
{
place = (353,157);
type = Stem;
}
);
layerId = "053302AA-4A2A-42DC-B919-9CC4D126D2B5";
shapes = (
{
closed = 1;
nodes = (
(380,457,l),
(335,498,o),
(292,518,o),
(250,518,cs),
(124,518,o),
(21,368,o),
(21,204,cs),
(21,99,o),
(142,-14,o),
(217,-14,cs),
(416,-14,o),
(510,198,o),
(510,400,cs),
(510,580,o),
(419,758,o),
(256,758,cs),
(189,758,o),
(167,728,o),
(163,711,c),
(286,660,o),
(364,514,o),
(364,376,cs),
(364,230,o),
(288,93,o),
(204,93,cs),
(181,93,o),
(161,111,o),
(161,142,cs),
(161,296,o),
(223,415,o),
(298,415,cs),
(322,415,o),
(347,403,o),
(372,375,c)
);
},
{
closed = 1;
nodes = (
(203,642,ls),
(187,638,o),
(177,628,o),
(177,617,cs),
(177,595,o),
(228,553,o),
(256,556,cs),
(499,584,ls),
(522,587,o),
(543,596,o),
(543,605,cs),
(543,628,o),
(480,710,o),
(439,700,cs)
);
}
);
width = 534;
}
);
note = eth;
unicode = 240;
},
{
color = 4;
glyphname = e;
kernLeft = c;
kernRight = e;
lastChange = "2023-04-28 11:18:11 +0000";
layers = (
{
anchors = (
{
name = bottom;
pos = (181,-35);
},
{
name = ogonek;
pos = (230,10);
},
{
name = top;
pos = (283,605);
}
);
background = {
shapes = (
{
closed = 1;
nodes = (
(207,117,cs),
(166,117,o),
(144,140,o),
(146,201,cs),
(150,305,o),
(226,473,o),
(300,473,cs),
(314,473,o),
(321,465,o),
(321,452,cs),
(319,389,o),
(215,253,o),
(145,253,cs),
(73,253,o),
(140,173,o),
(183,173,cs),
(292,173,o),
(440,322,o),
(450,402,cs),
(459,476,o),
(354,583,o),
(278,583,cs),
(103,583,o),
(27,377,o),
(7,212,cs),
(-6,110,o),
(90,-12,o),
(170,-12,cs),
(276,-12,o),
(433,65,o),
(443,144,cs),
(447,179,o),
(430,201,o),
(399,216,c),
(329,156,o),
(258,117,o)
);
}
);
};
hints = (
{
horizontal = 1;
place = (-12,131);
type = Stem;
},
{
horizontal = 1;
place = (153,110);
type = Stem;
},
{
horizontal = 1;
place = (583,-20);
target = down;
type = TopGhost;
},
{
place = (300,149);
type = Stem;
}
);
layerId = "053302AA-4A2A-42DC-B919-9CC4D126D2B5";
shapes = (
{
closed = 1;
nodes = (
(276,-12,o),
(433,65,o),
(443,144,cs),
(447,179,o),
(430,201,o),
(399,216,c),
(329,156,o),
(268,117,o),
(217,117,cs),
(178,117,o),
(156,138,o),
(156,194,cs),
(156,298,o),
(224,467,o),
(319,473,c),
(329,421,o),
(238,253,o),
(145,253,cs),
(122,253,o),
(113,244,o),
(113,233,cs),
(113,207,o),
(154,168,o),
(183,168,cs),
(292,168,o),
(440,322,o),
(450,402,cs),
(455,442,o),
(430,498,o),
(380,522,c),
(361,562,o),
(313,583,o),
(278,583,cs),
(122,583,o),
(6,380,o),
(6,190,cs),
(6,93,o),
(96,-12,o),
(170,-12,cs)
);
}
);
width = 474;
}
);
note = e;
unicode = 101;
},
{
color = 4;
glyphname = f;
lastChange = "2023-04-28 11:22:42 +0000";
layers = (
{
background = {
shapes = (
{
closed = 1;
nodes = (
(74,409,cs),
(63,299,o),
(65,188,o),
(62,104,cs),
(59,15,o),
(133,-14,o),
(185,-14,cs),
(197,-14,o),
(202,-5,o),
(202,2,cs),
(208,161,o),
(210,284,o),
(218,378,cs),
(235,570,o),
(241,639,o),
(270,639,cs),
(293,639,o),
(294,598,o),
(294,548,c),
(380,569,o),
(413,613,o),
(413,656,cs),
(413,712,o),
(357,767,o),
(285,767,cs),
(143,767,o),
(101,673,o)
);
},
{
closed = 1;
nodes = (
(165,356,o),
(269,353,o),
(307,355,cs),
(332,356,o),
(360,363,o),
(360,387,cs),
(360,425,o),
(291,472,o),
(240,471,cs),
(189,471,o),
(123,469,o),
(53,468,c),
(28,468,o),
(6,464,o),
(6,454,cs),
(6,437,o),
(57,356,o),
(105,356,cs)
);
}
);
};
hints = (
{
horizontal = 1;
place = (-14,21);
target = up;
type = BottomGhost;
},
{
horizontal = 1;
place = (355,118);
type = Stem;
},
{
horizontal = 1;
place = (639,128);
type = Stem;
},
{
place = (61,141);
type = Stem;
},
{
place = (294,119);
type = Stem;
}
);
layerId = "053302AA-4A2A-42DC-B919-9CC4D126D2B5";
shapes = (
{
closed = 1;
nodes = (
(74,409,cs),
(63,299,o),
(65,188,o),
(62,104,cs),
(59,15,o),
(133,-14,o),
(185,-14,cs),
(197,-14,o),
(202,-5,o),
(202,2,cs),
(208,161,o),
(210,284,o),
(218,378,cs),
(235,570,o),
(241,639,o),
(270,639,cs),
(293,639,o),
(315,608,o),
(389,608,cs),
(412,608,o),
(422,622,o),
(422,641,cs),
(422,692,o),
(361,767,o),
(261,767,cs),
(143,767,o),
(101,673,o)
);
},
{
closed = 1;
nodes = (
(165,393,o),
(279,414,o),
(323,414,cs),
(348,414,o),
(360,418,o),
(360,442,cs),
(360,474,o),
(280,526,o),
(240,526,cs),
(189,526,o),
(118,517,o),
(28,501,cs),
(11,498,o),
(6,490,o),
(6,474,cs),
(6,449,o),
(62,393,o),
(105,393,cs)
);
}
);
width = 359;
}
);
note = f;
unicode = 102;
},
{
color = 4;
glyphname = g;
kernLeft = c;
kernRight = g;
lastChange = "2023-04-28 11:22:42 +0000";
layers = (
{
anchors = (
{
name = top;
pos = (322,605);
}
);
background = {
shapes = (
{
closed = 1;
nodes = (
(353,406,o),
(339,232,o),
(321,59,cs),
(311,-34,o),
(278,-66,o),
(213,-66,cs),
(153,-66,o),
(118,-47,o),
(66,-2,c),
(39,-3,o),
(19,-21,o),
(19,-61,cs),
(19,-117,o),
(117,-181,o),
(261,-181,cs),
(376,-181,o),
(467,-103,o),
(485,150,cs),
(508,469,ls),
(513,544,o),
(451,599,o),
(389,599,cs),
(377,599,o),
(366,591,o),
(365,579,cs)
);
},
{
closed = 1;
nodes = (
(259,22,o),
(319,49,o),
(366,115,c),
(339,232,l),
(306,176,o),
(232,135,o),
(200,135,cs),
(176,135,o),
(161,150,o),
(161,175,cs),
(161,400,o),
(270,553,o),
(372,433,c),
(380,520,l),
(335,563,o),
(292,584,o),
(250,584,cs),
(124,584,o),
(21,425,o),
(21,252,cs),
(21,200,o),
(43,145,o),
(93,107,c),
(126,51,o),
(179,22,o),
(222,22,cs)
);
}
);
};
hints = (
{
horizontal = 1;
place = (-179,21);
target = up;
type = BottomGhost;
},
{
horizontal = 1;
place = (2,158);
type = Stem;
},
{
horizontal = 1;
place = (455,128);
type = Stem;
},
{
place = (15,136);
type = Stem;
},
{
horizontal = 1;
place = (585,-20);
target = down;
type = TopGhost;
}
);
layerId = "053302AA-4A2A-42DC-B919-9CC4D126D2B5";
shapes = (
{
closed = 1;
nodes = (
(353,406,o),
(339,232,o),
(321,59,cs),
(311,-34,o),
(278,-66,o),
(213,-66,cs),
(153,-66,o),
(118,-47,o),
(66,-2,c),
(39,-3,o),
(19,-21,o),
(19,-61,cs),
(19,-117,o),
(117,-181,o),
(261,-181,cs),
(376,-181,o),
(467,-103,o),
(485,150,cs),
(508,469,ls),
(513,544,o),
(451,599,o),
(389,599,cs),
(377,599,o),
(366,591,o),
(365,579,cs)
);
},
{
closed = 1;
nodes = (
(259,22,o),
(319,49,o),
(366,115,c),
(339,232,l),
(306,176,o),
(235,145,o),
(203,145,cs),
(179,145,o),
(164,160,o),
(164,185,cs),
(164,354,o),
(224,477,o),
(297,477,cs),
(321,477,o),
(347,463,o),
(372,433,c),
(380,520,l),
(335,563,o),
(292,584,o),
(250,584,cs),
(124,584,o),
(21,425,o),
(21,252,cs),
(21,200,o),
(43,145,o),
(93,107,c),
(126,51,o),
(179,22,o),
(222,22,cs)
);
}
);
width = 532;
}
);
note = g;
unicode = 103;
},
{
color = 4;
glyphname = h;
kernLeft = b;
kernRight = a;
lastChange = "2023-04-28 11:22:52 +0000";
layers = (
{
background = {
shapes = (
{
closed = 1;
nodes = (
(244,127,o),
(301,245,o),
(368,353,c),
(370,353,l),
(319,178,o),
(290,-4,o),
(448,-4,cs),
(458,-4,o),
(468,-2,o),
(478,2,c),
(475,21,o),
(473,42,o),
(473,64,cs),
(473,197,o),
(492,363,o),
(502,421,cs),
(508,455,o),
(488,487,o),
(446,500,c),
(428,517,o),
(410,526,o),
(393,526,cs),
(309,526,o),
(242,357,o),
(175,206,c),
(173,206,l),
(223,464,ls),
(238,539,o),
(179,589,o),
(120,589,cs),
(107,589,o),
(101,583,o),
(99,570,cs),
(64,410,o),
(51,259,o),
(51,136,cs),
(51,95,o),
(69,55,o),
(111,36,c),
(132,10,o),
(159,-1,o),
(195,-1,c)
);
}
);
};
hints = (
{
horizontal = 1;
place = (-14,21);
target = up;
type = BottomGhost;
},
{
horizontal = 1;
place = (775,-20);
target = down;
type = TopGhost;
},
{
place = (322,135);
type = Stem;
},
{
horizontal = 1;
place = (-10,21);
target = up;
type = BottomGhost;
}
);
layerId = "053302AA-4A2A-42DC-B919-9CC4D126D2B5";
shapes = (
{
closed = 1;
nodes = (
(218,130,o),
(276,268,o),
(361,352,c),
(331,268,o),
(322,154,o),
(322,105,cs),
(322,38,o),
(369,-14,o),
(431,-14,cs),
(441,-14,o),
(451,-12,o),
(461,-8,c),
(459,11,o),
(457,32,o),
(457,54,cs),
(457,186,o),
(481,334,o),
(493,414,cs),
(497,441,o),
(477,469,o),
(443,483,c),
(425,505,o),
(396,517,o),
(371,517,cs),
(321,517,o),
(247,412,o),
(193,288,c),
(191,288,l),
(234,648,ls),
(235,655,o),
(235,661,o),
(235,667,cs),
(235,742,o),
(176,775,o),
(141,775,cs),
(113,775,o),
(105,761,o),
(98,721,cs),
(76,594,o),
(53,250,o),
(53,126,cs),
(53,86,o),
(60,56,o),
(96,31,c),
(113,8,o),
(132,-6,o),
(168,-10,c)
);
}
);
width = 519;
}
);
note = h;
unicode = 104;
},
{
color = 4;
glyphname = hbar;
kernLeft = b;
kernRight = a;
lastChange = "2023-04-28 11:22:52 +0000";
layers = (
{
background = {
shapes = (
{
closed = 1;
nodes = (
(350,281,l),
(352,281,l),
(339,221,o),
(332,177,o),
(332,105,cs),
(332,62,o),
(381,-14,o),
(441,-14,cs),
(451,-14,o),
(461,-12,o),
(471,-8,c),
(469,11,o),
(467,32,o),
(467,54,cs),
(467,186,o),
(490,362,o),
(503,441,c),
(484,484,o),
(410,517,o),
(381,517,cs),
(371,517,o),
(360,514,o),
(356,507,cs),
(191,251,l),
(189,251,l),
(223,534,l),
(312,541,l),
(335,546,o),
(356,553,o),
(356,562,cs),
(356,585,o),
(292,651,o),
(267,656,c),
(238,650,l),
(241,676,ls),
(241,680,o),
(242,693,o),
(242,698,cs),
(242,725,o),
(172,775,o),
(119,775,cs),
(109,775,o),
(105,767,o),
(102,754,cs),
(94,718,o),
(87,672,o),
(80,621,c),
(66,619,ls),
(34,613,o),
(0,600,o),
(0,589,cs),
(0,574,o),
(32,535,o),
(62,523,c),
(68,523,l),
(52,371,o),
(41,204,o),
(41,126,cs),
(41,55,o),
(111,-10,o),
(195,-10,c)
);
}
);
};
hints = (
{
horizontal = 1;
place = (-14,21);
target = up;
type = BottomGhost;
},
{
horizontal = 1;
place = (523,21);
target = up;
type = BottomGhost;
},
{
horizontal = 1;
place = (656,-20);
target = down;
type = TopGhost;
},
{
horizontal = 1;
place = (775,-20);
target = down;
type = TopGhost;
},
{
place = (322,135);
type = Stem;
},
{
horizontal = 1;
place = (-10,21);
target = up;
type = BottomGhost;
}
);
layerId = "053302AA-4A2A-42DC-B919-9CC4D126D2B5";
shapes = (
{
closed = 1;
nodes = (
(82,523,o),
(140,526,o),
(203,532,cs),
(308,542,o),
(353,551,o),
(353,570,cs),
(353,593,o),
(293,656,o),
(262,656,cs),
(246,656,o),
(200,645,o),
(145,634,cs),
(75,620,o),
(0,604,o),
(0,589,cs),
(0,574,o),
(44,523,o),
(62,523,cs)
);
},
{
pos = (10,0);
ref = h;
}
);
width = 529;
}
);
metricRight = h;
note = hbar;
unicode = 295;
},
{
color = 4;
glyphname = idotless;
lastChange = "2023-04-28 11:22:52 +0000";
layers = (
{
anchors = (
{
name = bottom;
pos = (100,-45);
},
{
name = ogonek;
pos = (86,10);
},
{
name = top;
pos = (144,605);
}
);
layerId = "053302AA-4A2A-42DC-B919-9CC4D126D2B5";
shapes = (
{
closed = 1;
nodes = (
(179,135,o),
(217,419,o),
(217,463,cs),
(217,507,o),
(142,551,o),
(97,551,cs),
(89,551,o),
(73,548,o),
(72,538,cs),
(57,416,o),
(40,125,o),
(40,71,cs),
(40,16,o),
(109,-14,o),
(162,-14,cs),
(174,-14,o),
(179,-5,o),
(179,2,cs)
);
}
);
width = 260;
}
);
unicode = 305;
},
{
color = 4;
glyphname = jdotless;
lastChange = "2023-04-28 14:12:19 +0000";
layers = (
{
anchors = (
{
name = top;
pos = (130,605);
}
);
background = {
shapes = (
{
closed = 1;
nodes = (
(58,249,o),
(30,-84,o),
(-43,-123,c),
(-49,-137,l),
(-47,-142,o),
(-17,-190,o),
(62,-190,cs),
(209,-190,o),
(211,201,o),
(211,432,cs),
(211,456,ls),
(211,503,o),
(127,551,o),
(82,551,cs),
(65,551,o),
(58,545,o),
(58,535,cs)
);
}
);
};
layerId = "053302AA-4A2A-42DC-B919-9CC4D126D2B5";
shapes = (
{
closed = 1;
nodes = (
(58,249,o),
(30,-84,o),
(-43,-123,c),
(-49,-137,l),
(-47,-142,o),
(-17,-190,o),
(62,-190,cs),
(209,-190,o),
(211,201,o),
(211,446,cs),
(211,495,o),
(152,551,o),
(88,551,cs),
(71,551,o),
(58,545,o),
(58,525,cs)
);
}
);
width = 260;
}
);
unicode = 567;
},
{
color = 4;
glyphname = k;
kernLeft = b;
kernRight = k;
lastChange = "2023-04-28 14:12:19 +0000";
layers = (
{
anchors = (
{
name = bottom;
pos = (265,-35);
}
);
background = {
shapes = (
{
closed = 1;
nodes = (
(529,-49,o),
(535,-27,o),
(520,-10,cs),
(431,89,o),
(348,181,o),
(297,289,c),
(367,353,o),
(405,395,o),
(428,451,cs),
(472,556,o),
(369,644,o),
(330,573,cs),
(299,517,o),
(242,424,o),
(198,381,c),
(196,381,l),
(197,478,o),
(206,576,o),
(221,675,cs),
(229,728,o),
(149,775,o),
(105,775,cs),
(87,775,o),
(85,763,o),
(83,750,cs),
(59,592,o),
(34,226,o),
(34,103,cs),
(34,34,o),
(91,-14,o),
(149,-14,cs),
(169,-14,o),
(176,-9,o),
(176,-3,cs),
(174,65,o),
(175,132,o),
(185,204,c),
(187,204,l),
(230,144,o),
(277,87,o),
(327,30,cs),
(372,-22,o),
(443,-49,o),
(508,-49,cs)
);
}
);
};
hints = (
{
horizontal = 1;
place = (-49,21);
target = up;
type = BottomGhost;
},
{
horizontal = 1;
place = (-14,21);
target = up;
type = BottomGhost;
},
{
horizontal = 1;
place = (594,-20);
target = down;
type = TopGhost;
},
{
horizontal = 1;
place = (775,-20);
target = down;
type = TopGhost;
},
{
place = (34,147);
type = Stem;
}
);
layerId = "053302AA-4A2A-42DC-B919-9CC4D126D2B5";
shapes = (
{
closed = 1;
nodes = (
(176,169,o),
(198,517,o),
(221,675,cs),
(229,728,o),
(149,775,o),
(105,775,cs),
(87,775,o),
(85,763,o),
(83,750,cs),
(59,592,o),
(34,226,o),
(34,103,cs),
(34,34,o),
(91,-14,o),
(149,-14,cs),
(169,-14,o),
(176,-9,o),
(176,-3,cs)
);
},
{
closed = 1;
nodes = (
(149,262,l),
(192,202,o),
(277,87,o),
(327,30,cs),
(372,-22,o),
(443,-49,o),
(508,-49,cs),
(521,-49,o),
(528,-40,o),
(528,-30,cs),
(528,-24,o),
(526,-16,o),
(520,-10,cs),
(431,89,o),
(348,181,o),
(297,289,c),
(367,353,o),
(405,395,o),
(428,451,cs),
(436,469,o),
(439,487,o),
(439,503,cs),
(439,558,o),
(402,599,o),
(368,599,cs),
(354,599,o),
(340,591,o),
(330,573,cs),
(299,517,o),
(208,387,o),
(164,344,c)
);
}
);
width = 503;
}
);
note = k;
unicode = 107;
},
{
color = 4;
glyphname = kgreenlandic;
lastChange = "2023-04-28 14:12:19 +0000";
layers = (
{
background = {
hints = (
{
horizontal = 1;
place = (-14,21);
target = up;
type = BottomGhost;
},
{
horizontal = 1;
place = (579,-20);
target = down;
type = TopGhost;
},
{
place = (319,134);
type = Stem;
},
{
horizontal = 1;
place = (-11,21);
target = up;
type = BottomGhost;
}
);
shapes = (
{
closed = 1;
nodes = (
(537,-49,o),
(541,-29,o),
(528,-10,cs),
(315,289,l),
(444,469,ls),
(485,527,o),
(433,594,o),
(365,594,cs),
(348,594,o),
(339,587,o),
(322,560,cs),
(189,344,l),
(170,232,l),
(337,32,ls),
(382,-21,o),
(451,-49,o),
(516,-49,cs)
);
},
{
closed = 1;
nodes = (
(189,237,l),
(195,274,l),
(227,489,ls),
(228,496,o),
(230,505,o),
(230,510,cs),
(229,544,o),
(159,579,o),
(101,579,cs),
(88,579,o),
(82,573,o),
(80,560,cs),
(45,400,o),
(27,249,o),
(27,126,cs),
(27,54,o),
(101,-11,o),
(185,-11,c)
);
}
);
};
layerId = "053302AA-4A2A-42DC-B919-9CC4D126D2B5";
shapes = (
{
closed = 1;
nodes = (
(529,-49,o),
(535,-41,o),
(535,-31,cs),
(535,-25,o),
(533,-17,o),
(528,-10,cs),
(276,343,l),
(274,229,l),
(438,430,ls),
(459,455,o),
(467,481,o),
(467,504,cs),
(467,551,o),
(433,587,o),
(394,587,cs),
(368,587,o),
(360,579,o),
(342,553,cs),
(191,334,l),
(170,232,l),
(337,32,ls),
(382,-21,o),
(451,-49,o),
(516,-49,cs)
);
},
{
closed = 1;
nodes = (
(189,237,l),
(195,274,l),
(227,489,ls),
(228,496,o),
(230,505,o),
(230,510,cs),
(229,544,o),
(159,579,o),
(101,579,cs),
(88,579,o),
(82,573,o),
(80,560,cs),
(45,400,o),
(27,249,o),
(27,126,cs),
(27,54,o),
(101,-11,o),
(185,-11,c)
);
}
);
width = 511;
}
);
unicode = 312;
},
{
color = 4;
glyphname = l;
kernLeft = b;
kernRight = d;
lastChange = "2023-04-28 14:12:19 +0000";
layers = (
{
anchors = (
{
name = bottom;
pos = (130,-35);
},
{
name = caron;
pos = (366,568);
},
{
name = top.case;
pos = (161,780);
}
);
background = {
shapes = (
{
closed = 1;
nodes = (
(179,134,o),
(228,653,o),
(228,692,cs),
(228,728,o),
(150,775,o),
(109,775,cs),
(101,775,o),
(87,772,o),
(85,762,cs),
(65,645,o),
(31,163,o),
(31,117,cs),
(31,15,o),
(108,-14,o),
(161,-14,cs),
(173,-14,o),
(179,-5,o),
(179,2,cs)
);
}
);
};
hints = (
{
horizontal = 1;
place = (-14,21);
target = up;
type = BottomGhost;
},
{
horizontal = 1;
place = (775,-20);
target = down;
type = TopGhost;
},
{
place = (31,148);
type = Stem;
}
);
layerId = "053302AA-4A2A-42DC-B919-9CC4D126D2B5";
shapes = (
{
closed = 1;
nodes = (
(179,134,o),
(217,566,o),
(225,653,cs),
(232,736,o),
(152,775,o),
(109,775,cs),
(101,775,o),
(87,772,o),
(85,762,cs),
(65,645,o),
(31,163,o),
(31,117,cs),
(31,15,o),
(108,-14,o),
(161,-14,cs),
(173,-14,o),
(179,-5,o),
(179,2,cs)
);
}
);
width = 250;
}
);
note = l;
unicode = 108;
},
{
color = 4;
glyphname = lslash;
kernLeft = b;
kernRight = d;
lastChange = "2023-04-28 14:12:19 +0000";
layers = (
{
hints = (
{
horizontal = 1;
place = (-14,21);
target = up;
type = BottomGhost;
},
{
horizontal = 1;
place = (775,-20);
target = down;
type = TopGhost;
},
{
place = (51,148);
type = Stem;
}
);
layerId = "053302AA-4A2A-42DC-B919-9CC4D126D2B5";
shapes = (
{
closed = 1;
nodes = (
(325,386,ls),
(339,395,o),
(342,423,o),
(342,432,cs),
(342,466,o),
(316,516,o),
(281,516,cs),
(277,516,o),
(273,515,o),
(271,513,cs),
(157,423,l),
(146,263,l)
);
},
{
closed = 1;
nodes = (
(-3,315,ls),
(-11,308,o),
(-15,301,o),
(-15,292,cs),
(-15,264,o),
(17,216,o),
(41,214,cs),
(45,214,o),
(48,216,o),
(54,219,cs),
(63,224,l),
(164,294,l),
(175,454,l)
);
},
{
pos = (36,0);
ref = l;
}
);
width = 333;
}
);
note = lslash;
unicode = 322;
},
{
color = 4;
glyphname = m;
kernLeft = m;
kernRight = a;
lastChange = "2023-04-28 14:12:19 +0000";
layers = (
{
background = {
shapes = (
{
closed = 1;
nodes = (
(244,117,o),
(301,235,o),
(368,343,c),
(370,343,l),
(319,168,o),
(290,-14,o),
(448,-14,cs),
(458,-14,o),
(468,-12,o),
(478,-8,c),
(475,11,o),
(473,32,o),
(473,54,cs),
(473,187,o),
(492,353,o),
(502,411,cs),
(508,445,o),
(488,477,o),
(446,490,c),
(428,507,o),
(410,516,o),
(393,516,cs),
(309,516,o),
(242,347,o),
(175,196,c),
(173,196,l),
(223,454,ls),
(238,529,o),
(179,579,o),
(120,579,cs),
(107,579,o),
(101,573,o),
(99,560,cs),
(64,400,o),
(51,249,o),
(51,126,cs),
(51,85,o),
(69,45,o),
(111,26,c),
(132,0,o),
(159,-11,o),
(195,-11,c)
);
}
);
};
hints = (
{
horizontal = 1;
place = (-14,21);
target = up;
type = BottomGhost;
},
{
horizontal = 1;
place = (579,-20);
target = down;
type = TopGhost;
},
{
place = (576,134);
type = Stem;
}
);
layerId = "053302AA-4A2A-42DC-B919-9CC4D126D2B5";
shapes = (
{
closed = 1;
nodes = (
(475,458,o),
(475,461,cs),
(475,483,o),
(457,506,o),
(427,518,c),
(407,533,o),
(385,542,o),
(367,542,cs),
(356,542,o),
(346,538,o),
(340,531,cs),
(284,468,o),
(234,366,o),
(182,251,c),
(180,251,l),
(220,439,ls),
(222,450,o),
(224,461,o),
(224,471,cs),
(224,543,o),
(166,579,o),
(116,579,cs),
(107,579,o),
(103,571,o),
(100,559,cs),
(67,403,o),
(52,248,o),
(52,126,cs),
(52,86,o),
(66,48,o),
(105,27,c),
(129,3,o),
(151,-9,o),
(191,-10,c),
(227,110,o),
(279,225,o),
(335,334,c),
(338,334,l),
(327,282,o),
(319,211,o),
(319,186,cs),
(319,115,o),
(323,39,o),
(375,14,c),
(394,-9,o),
(434,-9,o),
(474,-10,c),
(499,100,o),
(556,233,o),
(603,325,c),
(607,323,l),
(591,264,o),
(576,175,o),
(576,116,cs),
(576,49,o),
(625,-14,o),
(687,-14,cs),
(696,-14,o),
(706,-12,o),
(715,-8,c),
(712,21,o),
(710,53,o),
(710,88,cs),
(710,196,o),
(725,325,o),
(745,423,c),
(736,443,o),
(716,463,o),
(685,474,c),
(664,489,o),
(640,498,o),
(622,498,cs),
(611,498,o),
(603,495,o),
(598,489,cs),
(523,393,o),
(484,301,o),
(442,199,c),
(437,200,l),
(438,281,o),
(453,373,o),
(474,451,cs),
(475,454,o)
);
}
);
width = 770;
}
);
note = m;
unicode = 109;
},
{
color = 4;
glyphname = n;
kernLeft = m;
kernRight = a;
lastChange = "2023-04-28 14:12:19 +0000";
layers = (
{
anchors = (
{
name = bottom;
pos = (268,-35);
},
{
name = top;
pos = (320,605);
}
);
background = {
shapes = (
{
closed = 1;
nodes = (
(234,117,o),
(291,235,o),
(358,343,c),
(360,343,l),
(309,168,o),
(280,-14,o),
(438,-14,cs),
(448,-14,o),
(458,-12,o),
(468,-8,c),
(465,11,o),
(463,32,o),
(463,54,cs),
(463,187,o),
(482,353,o),
(492,411,cs),
(498,445,o),
(478,477,o),
(436,490,c),
(418,507,o),
(400,516,o),
(383,516,cs),
(299,516,o),
(232,347,o),
(165,196,c),
(163,196,l),
(213,454,ls),
(228,529,o),
(160,579,o),
(101,579,cs),
(88,579,o),
(82,573,o),
(80,560,cs),
(45,400,o),
(27,249,o),
(27,126,cs),
(27,85,o),
(45,45,o),
(87,26,c),
(108,0,o),
(149,-11,o),
(185,-11,c)
);
}
);
};
hints = (
{
horizontal = 1;
place = (-14,21);
target = up;
type = BottomGhost;
},
{
horizontal = 1;
place = (579,-20);
target = down;
type = TopGhost;
},
{
place = (319,134);
type = Stem;
},
{
horizontal = 1;
place = (-11,21);
target = up;
type = BottomGhost;
}
);
layerId = "053302AA-4A2A-42DC-B919-9CC4D126D2B5";
shapes = (
{
closed = 1;
nodes = (
(234,117,o),
(291,235,o),
(358,343,c),
(360,343,l),
(338,266,o),
(320,188,o),
(320,125,cs),
(320,43,o),
(349,-14,o),
(438,-14,cs),
(448,-14,o),
(458,-12,o),
(468,-8,c),
(465,11,o),
(463,32,o),
(463,54,cs),
(463,187,o),
(482,353,o),
(492,411,cs),
(493,415,o),
(493,419,o),
(493,423,cs),
(493,452,o),
(473,479,o),
(436,490,c),
(418,507,o),
(400,516,o),
(383,516,cs),
(299,516,o),
(232,347,o),
(165,196,c),
(163,196,l),
(213,454,ls),
(215,462,o),
(215,470,o),
(215,477,cs),
(215,539,o),
(163,579,o),
(110,579,cs),
(97,579,o),
(91,573,o),
(89,560,cs),
(54,400,o),
(41,249,o),
(41,126,cs),
(41,85,o),
(59,45,o),
(101,26,c),
(122,0,o),
(149,-11,o),
(185,-11,c)
);
}
);
width = 529;
}
);
note = n;
unicode = 110;
},
{
color = 4;
glyphname = eng;
kernLeft = m;
kernRight = a;
lastChange = "2023-04-28 14:20:14 +0000";
layers = (
{
background = {
shapes = (
{
ref = n;
}
);
};
hints = (
{
horizontal = 1;
place = (-190,21);
target = up;
type = BottomGhost;
},
{
horizontal = 1;
place = (-10,21);
target = up;
type = BottomGhost;
},
{
horizontal = 1;
place = (579,-20);
target = down;
type = TopGhost;
},
{
place = (311,162);
type = Stem;
}
);
layerId = "053302AA-4A2A-42DC-B919-9CC4D126D2B5";
shapes = (
{
closed = 1;
nodes = (
(339,280,l),
(343,279,l),
(329,89,o),
(290,-94,o),
(242,-123,c),
(237,-137,l),
(239,-142,o),
(266,-190,o),
(346,-190,cs),
(492,-190,o),
(495,183,o),
(495,420,cs),
(495,436,ls),
(495,476,o),
(396,517,o),
(367,517,cs),
(357,517,o),
(346,514,o),
(342,507,cs),
(177,251,l),
(175,251,l),
(218,442,ls),
(221,457,o),
(227,481,o),
(227,494,cs),
(227,529,o),
(156,579,o),
(97,579,cs),
(87,579,o),
(83,571,o),
(80,558,cs),
(46,398,o),
(27,247,o),
(27,126,cs),
(27,55,o),
(98,-10,o),
(191,-10,c)
);
}
);
width = 529;
}
);
note = eng;
unicode = 331;
},
{
color = 4;
glyphname = o;
kernLeft = c;
kernRight = b;
lastChange = "2023-04-28 14:20:14 +0000";
layers = (
{
anchors = (
{
name = bottom;
pos = (222,-35);
},
{
name = horn;
pos = (379,583);
},
{
name = ogonek;
pos = (288,10);
},
{
name = top;
pos = (302,605);
}
);
hints = (
{
horizontal = 1;
place = (-15,127);
type = Stem;
},
{
horizontal = 1;
place = (459,124);
type = Stem;
},
{
place = (27,150);
type = Stem;
},
{
place = (348,147);
type = Stem;
}
);
layerId = "053302AA-4A2A-42DC-B919-9CC4D126D2B5";
shapes = (
{
closed = 1;
nodes = (
(136,583,o),
(32,430,o),
(32,253,cs),
(32,151,o),
(68,70,o),
(132,40,c),
(157,0,o),
(201,-15,o),
(245,-15,cs),
(423,-15,o),
(500,148,o),
(500,343,cs),
(500,419,o),
(463,487,o),
(398,521,c),
(361,567,o),
(307,583,o),
(256,583,cs)
);
},
{
closed = 1;
nodes = (
(195,95,o),
(181,142,o),
(181,203,cs),
(181,315,o),
(227,472,o),
(306,472,cs),
(336,472,o),
(350,425,o),
(350,364,cs),
(350,252,o),
(304,95,o),
(225,95,cs)
);
}
);
width = 534;
}
);
note = o;
unicode = 111;
},
{
color = 4;
glyphname = ohorn;
lastChange = "2023-04-28 14:20:14 +0000";
layers = (
{
anchors = (
{
name = bottom;
pos = (217,-35);
},
{
name = horn;
pos = (379,583);
},
{
name = ogonek;
pos = (288,10);
},
{
name = top;
pos = (297,605);
}
);
hints = (
{
horizontal = 1;
place = (-15,127);
type = Stem;
},
{
horizontal = 1;
place = (459,124);
type = Stem;
},
{
place = (27,150);
type = Stem;
},
{
place = (348,147);
type = Stem;
}
);
layerId = "053302AA-4A2A-42DC-B919-9CC4D126D2B5";
shapes = (
{
closed = 1;
nodes = (
(616,669,o),
(538,719,o),
(497,719,cs),
(487,719,o),
(473,717,o),
(473,696,cs),
(473,619,o),
(441,570,o),
(381,570,cs),
(358,570,o),
(339,570,o),
(320,574,cs),
(299,580,o),
(277,583,o),
(256,583,cs),
(136,583,o),
(32,430,o),
(32,253,cs),
(32,151,o),
(68,70,o),
(132,40,c),
(157,0,o),
(201,-15,o),
(245,-15,cs),
(423,-15,o),
(500,148,o),
(500,343,cs),
(500,379,o),
(492,413,o),
(476,443,c),
(582,452,o),
(616,542,o),
(616,627,cs)
);
},
{
closed = 1;
nodes = (
(195,95,o),
(181,142,o),
(181,203,cs),
(181,315,o),
(227,472,o),
(306,472,cs),
(336,472,o),
(350,425,o),
(350,364,cs),
(350,252,o),
(304,95,o),
(225,95,cs)
);
}
);
width = 534;
}
);
unicode = 417;
},
{
color = 4;
glyphname = oslash;
kernLeft = c;
kernRight = b;
lastChange = "2023-04-28 14:20:14 +0000";
layers = (
{
anchors = (
{
name = top;
pos = (282,635);
}
);
hints = (
{
horizontal = 1;
place = (-15,127);
type = Stem;
},
{
horizontal = 1;
place = (459,124);
type = Stem;
},
{
place = (47,150);
type = Stem;
},
{
place = (368,147);
type = Stem;
}
);
layerId = "053302AA-4A2A-42DC-B919-9CC4D126D2B5";
shapes = (
{
closed = 1;
nodes = (
(446,531,o),
(464,569,o),
(465,573,cs),
(473,635,o),
(410,669,o),
(375,669,cs),
(363,669,o),
(354,664,o),
(351,657,c),
(351,657,o),
(330,614,o),
(301,550,c),
(419,473,l)
);
},
{
closed = 1;
nodes = (
(164,-101,o),
(169,-96,o),
(172,-89,cs),
(222,0,l),
(123,79,l),
(104,40,o),
(74,-10,o),
(64,-29,cs),
(61,-34,o),
(60,-38,o),
(60,-43,cs),
(60,-77,o),
(132,-101,o),
(157,-101,cs)
);
},
{
ref = o;
}
);
width = 534;
}
);
metricLeft = o;
metricRight = o;
note = oslash;
unicode = 248;
},
{
color = 4;
glyphname = oe;
kernLeft = c;
kernRight = e;
lastChange = "2023-04-28 14:20:14 +0000";
layers = (
{
background = {
shapes = (
{
closed = 1;
nodes = (
(769,519,o),
(694,573,o),
(594,583,c),
(530,583,o),
(477,551,o),
(437,501,c),
(392,548,o),
(328,583,o),
(258,583,cs),
(138,583,o),
(34,429,o),
(34,253,cs),
(34,84,o),
(137,-15,o),
(247,-15,cs),
(304,-15,o),
(350,1,o),
(387,31,c),
(427,1,o),
(482,-12,o),
(539,-12,cs),
(657,-12,o),
(780,45,o),
(780,124,cs),
(780,151,o),
(767,176,o),
(733,192,c),
(684,140,o),
(636,119,o),
(562,119,cs),
(524,119,o),
(501,133,o),
(489,155,c),
(609,169,o),
(769,230,o),
(769,437,cs)
);
},
{
closed = 1;
nodes = (
(196,138,o),
(184,183,o),
(184,232,cs),
(184,336,o),
(236,459,o),
(338,459,c),
(350,427,o),
(355,391,o),
(355,356,cs),
(355,343,o),
(354,331,o),
(353,319,c),
(347,296,o),
(342,272,o),
(339,248,c),
(316,171,o),
(270,112,o),
(219,112,c)
);
},
{
closed = 1;
nodes = (
(602,444,o),
(620,419,o),
(620,383,cs),
(620,345,o),
(587,290,o),
(484,270,c),
(504,351,o),
(556,436,o),
(590,449,c)
);
}
);
};
hints = (
{
horizontal = 1;
place = (-15,127);
type = Stem;
},
{
horizontal = 1;
place = (153,110);
type = Stem;
},
{
horizontal = 1;
place = (459,124);
type = Stem;
},
{
place = (34,150);
type = Stem;
},
{
place = (355,93);
type = Stem;
},
{
place = (620,149);
type = Stem;
},
{
horizontal = 1;
place = (-12,131);
type = Stem;
},
{
horizontal = 1;
place = (-15,127);
type = Stem;
},
{
horizontal = 1;
place = (459,124);
type = Stem;
},
{
place = (27,150);
type = Stem;
},
{
place = (348,147);
type = Stem;
},
{
horizontal = 1;
place = (-12,131);
type = Stem;
},
{
horizontal = 1;
place = (153,110);
type = Stem;
},
{
horizontal = 1;
place = (583,-20);
target = down;
type = TopGhost;
},
{
place = (587,149);
type = Stem;
}
);
layerId = "053302AA-4A2A-42DC-B919-9CC4D126D2B5";
shapes = (
{
closed = 1;
nodes = (
(136,583,o),
(32,430,o),
(32,253,cs),
(32,84,o),
(135,-15,o),
(245,-15,cs),
(322,-15,o),
(377,28,o),
(415,98,c),
(401,125,o),
(395,152,o),
(395,180,cs),
(395,257,o),
(440,338,o),
(464,431,c),
(427,521,o),
(338,583,o),
(256,583,cs)
);
},
{
closed = 1;
nodes = (
(195,95,o),
(181,142,o),
(181,203,cs),
(181,315,o),
(227,472,o),
(306,472,cs),
(336,472,o),
(350,425,o),
(350,364,cs),
(350,252,o),
(304,95,o),
(225,95,cs)
);
},
{
closed = 1;
nodes = (
(616,156,o),
(545,117,o),
(494,117,cs),
(455,117,o),
(433,138,o),
(433,194,cs),
(433,297,o),
(511,473,o),
(587,473,cs),
(601,473,o),
(608,465,o),
(608,452,cs),
(606,389,o),
(502,253,o),
(432,253,cs),
(409,253,o),
(400,245,o),
(400,234,cs),
(400,210,o),
(441,173,o),
(470,173,cs),
(583,173,o),
(738,333,o),
(738,411,cs),
(738,484,o),
(638,583,o),
(565,583,cs),
(390,583,o),
(314,377,o),
(294,212,cs),
(293,206,o),
(293,199,o),
(293,193,cs),
(293,95,o),
(382,-12,o),
(457,-12,cs),
(563,-12,o),
(720,65,o),
(730,144,cs),
(734,179,o),
(717,201,o),
(686,216,c)
);
}
);
width = 761;
}
);
metricLeft = o;
metricRight = e;
note = oe;
unicode = 339;
},
{
color = 4;
glyphname = p;
kernLeft = m;
kernRight = b;
lastChange = "2023-04-28 14:21:49 +0000";
layers = (
{
background = {
shapes = (
{
closed = 1;
nodes = (
(392,-14,o),
(503,171,o),
(503,333,cs),
(503,395,o),
(490,456,o),
(420,511,c),
(380,561,o),
(324,584,o),
(271,584,cs),
(221,584,o),
(178,554,o),
(154,525,c),
(191,357,l),
(233,437,o),
(261,466,o),
(305,466,cs),
(337,466,o),
(352,423,o),
(352,367,cs),
(352,261,o),
(310,95,o),
(222,95,cs),
(188,95,o),
(155,121,o),
(135,153,c),
(166,29,l),
(182,0,o),
(217,-14,o),
(253,-14,cs)
);
},
{
closed = 1;
nodes = (
(160,-186,o),
(167,-181,o),
(168,-157,cs),
(189,202,o),
(215,444,o),
(217,473,cs),
(222,548,o),
(141,587,o),
(107,587,cs),
(83,587,o),
(71,575,o),
(67,549,cs),
(45,406,o),
(20,35,o),
(20,-88,cs),
(20,-159,o),
(82,-186,o),
(140,-186,cs)
);
}
);
};
hints = (
{
horizontal = 1;
place = (-186,21);
target = up;
type = BottomGhost;
},
{
horizontal = 1;
place = (-14,130);
type = Stem;
},
{
horizontal = 1;
place = (448,132);
type = Stem;
},
{
horizontal = 1;
place = (641,-20);
target = down;
type = TopGhost;
},
{
place = (16,152);
type = Stem;
},
{
place = (353,152);
type = Stem;
}
);
layerId = "053302AA-4A2A-42DC-B919-9CC4D126D2B5";
shapes = (
{
closed = 1;
nodes = (
(392,-14,o),
(503,171,o),
(503,333,cs),
(503,395,o),
(490,456,o),
(420,511,c),
(380,561,o),
(324,584,o),
(271,584,cs),
(221,584,o),
(178,554,o),
(154,525,c),
(184,347,l),
(226,427,o),
(254,456,o),
(298,456,cs),
(330,456,o),
(345,413,o),
(345,357,cs),
(345,251,o),
(310,95,o),
(222,95,cs),
(188,95,o),
(155,121,o),
(135,153,c),
(166,29,l),
(182,0,o),
(217,-14,o),
(253,-14,cs)
);
},
{
closed = 1;
nodes = (
(160,-186,o),
(167,-181,o),
(168,-157,cs),
(189,202,o),
(215,444,o),
(217,473,cs),
(222,548,o),
(141,587,o),
(107,587,cs),
(83,587,o),
(71,575,o),
(67,549,cs),
(45,406,o),
(20,35,o),
(20,-88,cs),
(20,-159,o),
(82,-186,o),
(140,-186,cs)
);
}
);
width = 540;
}
);
note = p;
unicode = 112;
},
{
color = 4;
glyphname = thorn;
kernLeft = b;
kernRight = b;
lastChange = "2023-04-28 14:21:49 +0000";
layers = (
{
background = {
shapes = (
{
closed = 1;
nodes = (
(239,707,ls),
(242,734,o),
(162,775,o),
(118,775,cs),
(108,775,o),
(104,767,o),
(102,754,c),
(62,583,o),
(22,74,o),
(24,-49,cs),
(25,-119,o),
(86,-166,o),
(144,-166,cs),
(164,-166,o),
(170,-161,o),
(171,-155,cs),
(183,-12,l),
(189,-13,o),
(195,-14,o),
(200,-14,cs),
(435,-14,o),
(510,170,o),
(510,368,cs),
(510,438,o),
(419,580,o),
(345,580,cs),
(295,580,o),
(257,571,o),
(219,540,c)
);
},
{
closed = 1;
nodes = (
(355,420,o),
(359,390,o),
(359,362,cs),
(359,234,o),
(307,117,o),
(193,117,cs),
(187,117,l),
(220,411,l),
(255,431,o),
(294,448,o),
(349,448,c)
);
}
);
};
hints = (
{
horizontal = 1;
place = (-166,21);
target = up;
type = BottomGhost;
},
{
horizontal = 1;
place = (-14,131);
type = Stem;
},
{
horizontal = 1;
place = (448,132);
type = Stem;
},
{
horizontal = 1;
place = (775,-20);
target = down;
type = TopGhost;
},
{
place = (359,151);
type = Stem;
},
{
horizontal = 1;
place = (-14,21);
target = up;
type = BottomGhost;
},
{
horizontal = 1;
place = (775,-20);
target = down;
type = TopGhost;
},
{
place = (31,148);
type = Stem;
}
);
layerId = "053302AA-4A2A-42DC-B919-9CC4D126D2B5";
shapes = (
{
closed = 1;
nodes = (
(168,-23,o),
(226,653,o),
(226,692,cs),
(226,728,o),
(148,775,o),
(107,775,cs),
(99,775,o),
(85,772,o),
(83,762,cs),
(63,645,o),
(20,6,o),
(20,-40,cs),
(20,-142,o),
(97,-171,o),
(150,-171,cs),
(162,-171,o),
(168,-162,o),
(168,-155,cs)
);
},
{
closed = 1;
nodes = (
(190,356,l),
(232,436,o),
(265,470,o),
(309,470,cs),
(341,470,o),
(356,427,o),
(356,371,cs),
(356,265,o),
(309,94,o),
(221,94,cs),
(187,94,o),
(154,120,o),
(134,152,c),
(35,171,l),
(30,93,o),
(133,-15,o),
(252,-15,cs),
(391,-15,o),
(502,170,o),
(502,332,cs),
(502,445,o),
(398,583,o),
(280,583,cs),
(231,583,o),
(189,522,o),
(166,464,c)
);
}
);
width = 538;
}
);
note = thorn;
unicode = 254;
},
{
color = 4;
glyphname = q;
kernLeft = c;
kernRight = g;
lastChange = "2023-04-28 14:21:49 +0000";
layers = (
{
background = {
shapes = (
{
closed = 1;
nodes = (
(349,362,o),
(328,146,o),
(312,-71,cs),
(312,-75,o),
(311,-94,o),
(311,-99,cs),
(311,-134,o),
(390,-182,o),
(434,-182,cs),
(450,-182,o),
(460,-179,o),
(461,-166,cs),
(474,-3,o),
(505,340,o),
(521,508,cs),
(524,544,o),
(461,599,o),
(399,599,cs),
(387,599,o),
(376,591,o),
(375,579,cs)
);
},
{
closed = 1;
nodes = (
(273,-14,o),
(333,15,o),
(380,85,c),
(332,179,l),
(304,137,o),
(244,112,o),
(217,112,cs),
(193,112,o),
(178,128,o),
(178,155,cs),
(178,394,o),
(284,551,o),
(386,423,c),
(394,516,l),
(349,562,o),
(306,584,o),
(264,584,cs),
(138,584,o),
(35,415,o),
(35,231,cs),
(35,176,o),
(57,117,o),
(107,77,c),
(140,17,o),
(193,-14,o),
(236,-14,cs)
);
}
);
};
hints = (
{
horizontal = 1;
place = (-182,21);
target = up;
type = BottomGhost;
},
{
horizontal = 1;
place = (-15,133);
type = Stem;
},
{
horizontal = 1;
place = (446,133);
type = Stem;
},
{
place = (10,160);
type = Stem;
}
);
layerId = "053302AA-4A2A-42DC-B919-9CC4D126D2B5";
shapes = (
{
closed = 1;
nodes = (
(349,362,o),
(328,146,o),
(312,-71,cs),
(312,-75,o),
(311,-94,o),
(311,-99,cs),
(311,-134,o),
(390,-182,o),
(434,-182,cs),
(450,-182,o),
(460,-179,o),
(461,-166,cs),
(474,-3,o),
(505,340,o),
(519,486,cs),
(524,544,o),
(467,599,o),
(405,599,cs),
(393,599,o),
(376,591,o),
(373,567,cs)
);
},
{
closed = 1;
nodes = (
(273,-14,o),
(333,15,o),
(380,85,c),
(340,189,l),
(312,147,o),
(252,122,o),
(225,122,cs),
(201,122,o),
(186,138,o),
(186,165,cs),
(186,343,o),
(241,470,o),
(311,470,cs),
(334,470,o),
(360,456,o),
(386,423,c),
(394,516,l),
(349,562,o),
(306,584,o),
(264,584,cs),
(138,584,o),
(35,415,o),
(35,231,cs),
(35,176,o),
(57,117,o),
(107,77,c),
(140,17,o),
(193,-14,o),
(236,-14,cs)
);
}
);
width = 536;
},
{
associatedMasterId = "053302AA-4A2A-42DC-B919-9CC4D126D2B5";
background = {
shapes = (
{
pos = (292,-177);
ref = l;
}
);
};
hints = (
{
horizontal = 1;
place = (-182,21);
target = up;
type = BottomGhost;
},
{
horizontal = 1;
place = (-15,133);
type = Stem;
},
{
horizontal = 1;
place = (446,133);
type = Stem;
},
{
place = (10,160);
type = Stem;
}
);
layerId = "A0208402-943E-4021-8157-E4DD3D10BCF7";
name = "Apr 16 20, 17:28";
shapes = (
{
closed = 1;
nodes = (
(317,-17,o),
(360,13,o),
(384,42,c),
(329,97,l),
(312,-71,ls),
(312,-75,o),
(311,-94,o),
(311,-99,cs),
(311,-134,o),
(390,-182,o),
(434,-182,cs),
(450,-182,o),
(459,-179,o),
(461,-166,cs),
(479,-5,o),
(496,293,o),
(502,395,cs),
(507,473,o),
(404,581,o),
(285,581,cs),
(146,581,o),
(35,396,o),
(35,234,cs),
(35,121,o),
(149,-17,o),
(267,-17,cs)
);
},
{
closed = 1;
nodes = (
(324,110,l),
(347,210,l),
(305,130,o),
(272,96,o),
(228,96,cs),
(196,96,o),
(181,139,o),
(181,195,cs),
(181,301,o),
(228,472,o),
(316,472,cs),
(350,472,o),
(383,446,o),
(403,414,c),
(368,513,l)
);
}
);
width = 536;
}
);
note = q;
unicode = 113;
},
{
color = 4;
glyphname = r;
kernLeft = m;
kernRight = r;
lastChange = "2023-04-28 14:21:49 +0000";
layers = (
{
anchors = (
{
name = bottom;
pos = (134,-35);
},
{
name = top;
pos = (216,605);
}
);
background = {
shapes = (
{
closed = 1;
nodes = (
(383,480,o),
(363,546,o),
(331,583,c),
(262,583,o),
(214,488,o),
(202,425,c),
(200,425,l),
(202,500,o),
(204,528,o),
(204,533,cs),
(204,551,o),
(127,598,o),
(83,598,cs),
(73,598,o),
(69,590,o),
(66,577,cs),
(46,484,o),
(40,373,o),
(40,276,cs),
(40,206,o),
(43,144,o),
(47,102,cs),
(53,32,o),
(124,-20,o),
(182,-20,c),
(182,-20,o),
(179,179,o),
(213,317,c),
(266,373,o),
(315,404,o),
(384,420,c)
);
}
);
};
hints = (
{
horizontal = 1;
place = (-20,21);
target = up;
type = BottomGhost;
},
{
horizontal = 1;
place = (598,-20);
target = down;
type = TopGhost;
},
{
place = (40,161);
type = Stem;
}
);
layerId = "053302AA-4A2A-42DC-B919-9CC4D126D2B5";
shapes = (
{
closed = 1;
nodes = (
(383,480,o),
(363,546,o),
(331,583,c),
(262,583,o),
(214,488,o),
(202,425,c),
(200,425,l),
(201,475,o),
(205,498,o),
(205,513,cs),
(205,553,o),
(133,598,o),
(83,598,cs),
(73,598,o),
(69,590,o),
(66,577,cs),
(46,484,o),
(40,373,o),
(40,276,cs),
(40,206,o),
(43,144,o),
(47,102,cs),
(53,32,o),
(124,-20,o),
(182,-20,c),
(182,-20,o),
(179,179,o),
(213,317,c),
(266,373,o),
(315,404,o),
(384,420,c)
);
}
);
width = 379;
}
);
note = r;
unicode = 114;
},
{
color = 4;
glyphname = s;
kernLeft = s;
kernRight = s;
lastChange = "2023-04-28 14:25:11 +0000";
layers = (
{
anchors = (
{
name = bottom;
pos = (185,-35);
},
{
name = cedilla;
pos = (189,10);
},
{
name = top;
pos = (253,605);
}
);
background = {
shapes = (
{
closed = 1;
nodes = (
(251,80,o),
(103,107,o),
(51,193,c),
(25,193,o),
(11,162,o),
(11,127,cs),
(11,32,o),
(115,-13,o),
(220,-13,cs),
(316,-13,o),
(407,52,o),
(407,157,cs),
(407,201,o),
(379,237,o),
(328,257,cs),
(229,295,ls),
(207,303,o),
(198,313,o),
(198,326,cs),
(198,393,o),
(251,476,o),
(290,476,cs),
(298,476,o),
(298,471,o),
(298,464,cs),
(298,446,o),
(272,415,o),
(272,383,cs),
(272,361,o),
(326,297,o),
(355,297,cs),
(368,297,o),
(371,304,o),
(374,314,cs),
(387,360,o),
(428,410,o),
(428,452,cs),
(428,500,o),
(356,580,o),
(253,580,cs),
(141,580,o),
(38,428,o),
(38,332,cs),
(38,273,o),
(56,244,o),
(122,221,cs),
(207,192,ls),
(242,180,o),
(251,165,o),
(251,149,cs)
);
}
);
};
hints = (
{
horizontal = 1;
place = (-26,21);
target = up;
type = BottomGhost;
},
{
horizontal = 1;
place = (583,-20);
target = down;
type = TopGhost;
}
);
layerId = "053302AA-4A2A-42DC-B919-9CC4D126D2B5";
shapes = (
{
closed = 1;
nodes = (
(251,122,o),
(229,110,o),
(198,110,cs),
(151,110,o),
(83,140,o),
(51,193,c),
(25,193,o),
(11,162,o),
(11,127,cs),
(11,32,o),
(115,-13,o),
(220,-13,cs),
(316,-13,o),
(407,52,o),
(407,157,cs),
(407,201,o),
(379,237,o),
(328,257,cs),
(229,295,ls),
(207,303,o),
(198,313,o),
(198,326,cs),
(198,393,o),
(251,476,o),
(290,476,cs),
(298,476,o),
(298,471,o),
(298,464,cs),
(298,446,o),
(272,415,o),
(272,383,cs),
(272,361,o),
(326,297,o),
(355,297,cs),
(368,297,o),
(371,304,o),
(374,314,cs),
(387,360,o),
(428,410,o),
(428,452,cs),
(428,479,o),
(408,519,o),
(364,539,c),
(336,576,o),
(298,580,o),
(253,580,cs),
(141,580,o),
(38,428,o),
(38,332,cs),
(38,273,o),
(56,244,o),
(122,221,cs),
(207,192,ls),
(242,180,o),
(251,165,o),
(251,149,cs)
);
}
);
width = 436;
},
{
associatedMasterId = "053302AA-4A2A-42DC-B919-9CC4D126D2B5";
background = {
shapes = (
{
closed = 1;
nodes = (
(212,393,l),
(421,473,l),
(421,500,o),
(357,568,o),
(293,583,c),
(169,545,o),
(24,449,o),
(24,384,cs),
(24,331,o),
(117,272,o),
(221,198,c),
(161,150,o),
(82,95,o),
(23,64,c),
(36,19,o),
(74,-11,o),
(135,-26,c),
(240,14,o),
(398,91,o),
(398,187,cs),
(398,231,o),
(384,264,o),
(359,283,cs)
);
}
);
};
hints = (
{
horizontal = 1;
place = (-26,21);
target = up;
type = BottomGhost;
},
{
horizontal = 1;
place = (583,-20);
target = down;
type = TopGhost;
}
);
layerId = "B46DEE7C-1BC1-4E97-8995-4EC758421FBF";
name = "Apr 16 20, 17:35";
shapes = (
{
closed = 1;
nodes = (
(212,393,l),
(421,473,l),
(421,500,o),
(357,568,o),
(293,583,c),
(169,545,o),
(24,449,o),
(24,384,cs),
(24,331,o),
(117,272,o),
(221,198,c),
(161,150,o),
(82,95,o),
(23,64,c),
(36,19,o),
(74,-11,o),
(135,-26,c),
(240,14,o),
(398,91,o),
(398,187,cs),
(398,231,o),
(384,264,o),
(359,283,cs)
);
}
);
width = 436;
},
{
associatedMasterId = "053302AA-4A2A-42DC-B919-9CC4D126D2B5";
background = {
shapes = (
{
closed = 1;
nodes = (
(249,77,o),
(103,115,o),
(51,193,c),
(25,193,o),
(11,162,o),
(11,127,cs),
(11,32,o),
(115,-13,o),
(220,-13,cs),
(316,-13,o),
(396,61,o),
(396,156,cs),
(396,312,o),
(189,263,o),
(189,332,cs),
(189,399,o),
(251,476,o),
(290,476,cs),
(298,476,o),
(304,469,o),
(304,462,cs),
(304,444,o),
(275,410,o),
(275,378,cs),
(275,356,o),
(326,297,o),
(355,297,cs),
(368,297,o),
(371,304,o),
(374,314,cs),
(387,360,o),
(428,410,o),
(428,452,cs),
(428,500,o),
(356,580,o),
(253,580,cs),
(146,580,o),
(41,452,o),
(41,316,cs),
(41,166,o),
(249,219,o),
(249,146,cs)
);
}
);
};
hints = (
{
horizontal = 1;
place = (-26,21);
target = up;
type = BottomGhost;
},
{
horizontal = 1;
place = (583,-20);
target = down;
type = TopGhost;
}
);
layerId = "0A1ED3D0-A58A-4496-B428-0D7464FEB641";
name = "Apr 16 20, 17:41";
shapes = (
{
closed = 1;
nodes = (
(249,77,o),
(103,115,o),
(51,193,c),
(25,193,o),
(11,162,o),
(11,127,cs),
(11,32,o),
(115,-13,o),
(220,-13,cs),
(316,-13,o),
(396,61,o),
(396,156,cs),
(396,312,o),
(189,263,o),
(189,332,cs),
(189,399,o),
(251,476,o),
(290,476,cs),
(298,476,o),
(304,469,o),
(304,462,cs),
(304,444,o),
(275,410,o),
(275,378,cs),
(275,356,o),
(326,297,o),
(355,297,cs),
(368,297,o),
(371,304,o),
(374,314,cs),
(387,360,o),
(428,410,o),
(428,452,cs),
(428,500,o),
(356,580,o),
(253,580,cs),
(146,580,o),
(41,452,o),
(41,316,cs),
(41,268,o),
(62,241,o),
(91,224,cs),
(152,187,o),
(249,196,o),
(249,146,cs)
);
}
);
width = 436;
}
);
note = s;
unicode = 115;
},
{
color = 4;
glyphname = germandbls;
kernLeft = b;
kernRight = s;
lastChange = "2023-04-28 14:25:11 +0000";
layers = (
{
background = {
shapes = (
{
closed = 1;
nodes = (
(470,305,o),
(449,316,o),
(461,324,cs),
(519,364,o),
(610,453,o),
(610,527,cs),
(610,575,o),
(590,658,o),
(514,681,c),
(472,750,o),
(405,767,o),
(353,767,cs),
(189,767,o),
(95,639,o),
(86,440,cs),
(67,7,ls),
(64,-56,o),
(139,-85,o),
(191,-85,cs),
(203,-85,o),
(208,-76,o),
(208,-69,cs),
(228,406,ls),
(235,579,o),
(289,700,o),
(442,632,c),
(486,523,o),
(431,438,o),
(287,326,c),
(280,269,o),
(313,252,o),
(377,221,cs),
(437,192,ls),
(471,176,o),
(481,165,o),
(481,149,cs),
(481,80,o),
(377,107,o),
(325,193,c),
(299,193,o),
(249,162,o),
(249,127,cs),
(249,32,o),
(364,-13,o),
(469,-13,cs),
(565,-13,o),
(637,52,o),
(637,149,cs),
(637,201,o),
(606,231,o),
(558,257,cs),
(492,293,ls)
);
},
{
closed = 1;
nodes = (
(57,468,ls),
(32,468,o),
(10,464,o),
(10,454,cs),
(10,437,o),
(45,393,o),
(105,354,c),
(110,468,l)
);
}
);
};
hints = (
{
horizontal = 1;
place = (-14,21);
target = up;
type = BottomGhost;
},
{
horizontal = 1;
place = (763,-20);
target = down;
type = TopGhost;
},
{
place = (51,152);
type = Stem;
},
{
horizontal = 1;
place = (-26,21);
target = up;
type = BottomGhost;
},
{
horizontal = 1;
place = (-14,21);
target = up;
type = BottomGhost;
},
{
horizontal = 1;
place = (355,118);
type = Stem;
},
{
horizontal = 1;
place = (639,128);
type = Stem;
},
{
place = (61,141);
type = Stem;
},
{
place = (294,119);
type = Stem;
}
);
layerId = "053302AA-4A2A-42DC-B919-9CC4D126D2B5";
metricLeft = "=10";
shapes = (
{
closed = 1;
nodes = (
(470,305,o),
(449,316,o),
(461,324,cs),
(519,364,o),
(610,453,o),
(610,527,cs),
(610,575,o),
(590,658,o),
(514,681,c),
(472,750,o),
(405,767,o),
(353,767,cs),
(189,767,o),
(95,639,o),
(86,440,cs),
(67,7,ls),
(64,-56,o),
(139,-85,o),
(191,-85,cs),
(203,-85,o),
(208,-76,o),
(208,-69,cs),
(228,406,ls),
(234,546,o),
(267,651,o),
(359,651,cs),
(382,651,o),
(407,645,o),
(437,632,c),
(454,614,o),
(462,592,o),
(462,568,cs),
(462,498,o),
(394,409,o),
(287,326,c),
(280,269,o),
(313,252,o),
(377,221,cs),
(437,192,ls),
(471,176,o),
(481,165,o),
(481,149,cs),
(481,122,o),
(465,110,o),
(443,110,cs),
(408,110,o),
(357,140,o),
(325,193,c),
(299,193,o),
(249,162,o),
(249,127,cs),
(249,32,o),
(364,-13,o),
(469,-13,cs),
(565,-13,o),
(637,52,o),
(637,149,cs),
(637,201,o),
(606,231,o),
(558,257,cs),
(492,293,ls)
);
},
{
closed = 1;
nodes = (
(57,468,ls),
(32,468,o),
(10,464,o),
(10,454,cs),
(10,437,o),
(45,393,o),
(105,354,c),
(110,468,l)
);
}
);
width = 670;
}
);
metricLeft = l;
note = germandbls;
unicode = 223;
},
{
color = 4;
glyphname = t;
kernLeft = t;
kernRight = t;
lastChange = "2023-04-28 14:25:11 +0000";
layers = (
{
anchors = (
{
name = bottom;
pos = (187,-55);
},
{
name = caron;
pos = (365,648);
},
{
name = cedilla;
pos = (184,10);
}
);
background = {
shapes = (
{
closed = 1;
nodes = (
(188,253,o),
(213,441,o),
(242,632,cs),
(246,655,o),
(179,712,o),
(120,712,cs),
(105,712,o),
(98,706,o),
(94,685,cs),
(60,492,o),
(55,231,o),
(55,154,cs),
(55,105,o),
(72,67,o),
(107,46,c),
(127,0,o),
(176,-15,o),
(205,-15,cs),
(257,-15,o),
(368,57,o),
(368,138,cs),
(368,178,o),
(344,213,o),
(317,217,cs),
(293,217,o),
(278,121,o),
(146,110,c),
(184,63,l)
);
},
{
closed = 1;
nodes = (
(156,449,o),
(299,464,o),
(343,464,cs),
(368,464,o),
(380,468,o),
(380,492,cs),
(380,524,o),
(300,576,o),
(260,576,cs),
(209,576,o),
(109,570,o),
(19,557,cs),
(2,555,o),
(-3,546,o),
(-3,530,cs),
(-3,505,o),
(53,449,o),
(96,449,cs)
);
}
);
};
hints = (
{
horizontal = 1;
place = (-15,21);
target = up;
type = BottomGhost;
},
{
horizontal = 1;
place = (455,114);
type = Stem;
},
{
horizontal = 1;
place = (712,-20);
target = down;
type = TopGhost;
}
);
layerId = "053302AA-4A2A-42DC-B919-9CC4D126D2B5";
shapes = (
{
closed = 1;
nodes = (
(188,253,o),
(213,441,o),
(242,632,cs),
(246,655,o),
(179,712,o),
(120,712,cs),
(105,712,o),
(98,706,o),
(94,685,cs),
(60,492,o),
(55,231,o),
(55,154,cs),
(55,105,o),
(72,67,o),
(107,46,c),
(127,0,o),
(176,-15,o),
(205,-15,cs),
(257,-15,o),
(368,67,o),
(368,148,cs),
(368,184,o),
(349,211,o),
(325,211,cs),
(321,211,o),
(316,210,o),
(312,208,cs),
(283,196,o),
(254,122,o),
(146,110,c),
(184,63,l)
);
},
{
closed = 1;
nodes = (
(156,449,o),
(299,464,o),
(343,464,cs),
(368,464,o),
(380,468,o),
(380,492,cs),
(380,524,o),
(300,576,o),
(260,576,cs),
(209,576,o),
(109,570,o),
(19,557,cs),
(2,555,o),
(-3,546,o),
(-3,530,cs),
(-3,505,o),
(53,449,o),
(96,449,cs)
);
}
);
width = 374;
}
);
note = t;
unicode = 116;
},
{
color = 4;
glyphname = tbar;
kernLeft = t;
kernRight = t;
lastChange = "2023-04-28 14:25:11 +0000";
layers = (
{
background = {
shapes = (
{
closed = 1;
nodes = (
(295,268,ls),
(321,270,o),
(339,280,o),
(339,289,cs),
(339,319,o),
(292,383,o),
(250,383,c),
(223,379,l),
(226,407,o),
(229,433,o),
(232,452,c),
(265,452,o),
(299,453,o),
(344,455,cs),
(369,456,o),
(402,463,o),
(401,473,cs),
(401,496,o),
(328,571,o),
(301,572,cs),
(248,573,l),
(252,632,ls),
(254,655,o),
(189,712,o),
(130,712,cs),
(115,712,o),
(106,706,o),
(104,685,cs),
(93,569,l),
(44,569,o),
(14,564,o),
(14,552,cs),
(14,533,o),
(52,491,o),
(82,472,c),
(78,433,o),
(75,394,o),
(72,356,c),
(68,356,l),
(20,349,o),
(3,335,o),
(3,323,cs),
(3,306,o),
(35,263,o),
(64,250,c),
(67,250,l),
(65,213,o),
(65,180,o),
(65,154,cs),
(65,44,o),
(162,-15,o),
(215,-15,cs),
(267,-15,o),
(377,57,o),
(377,138,cs),
(377,178,o),
(358,213,o),
(331,217,c),
(302,184,o),
(261,146,o),
(201,129,c),
(201,129,o),
(206,190,o),
(212,261,c)
);
}
);
};
hints = (
{
horizontal = 1;
place = (-15,21);
target = up;
type = BottomGhost;
},
{
horizontal = 1;
place = (259,124);
type = Stem;
},
{
horizontal = 1;
place = (455,114);
type = Stem;
},
{
horizontal = 1;
place = (712,-20);
target = down;
type = TopGhost;
},
{
horizontal = 1;
place = (250,21);
target = up;
type = BottomGhost;
}
);
layerId = "053302AA-4A2A-42DC-B919-9CC4D126D2B5";
shapes = (
{
closed = 1;
nodes = (
(164,256,o),
(272,266,o),
(317,271,cs),
(342,274,o),
(370,284,o),
(369,296,cs),
(367,325,o),
(298,388,o),
(254,384,cs),
(79,367,ls),
(30,362,o),
(1,356,o),
(2,345,cs),
(3,326,o),
(70,249,o),
(121,253,cs)
);
},
{
pos = (10,0);
ref = t;
}
);
width = 394;
}
);
note = tbar;
unicode = 359;
},
{
color = 4;
glyphname = u;
kernLeft = u;
kernRight = g;
lastChange = "2023-05-02 15:08:07 +0000";
layers = (
{
anchors = (
{
name = bottom;
pos = (221,-30);
},
{
name = horn;
pos = (446,560);
},
{
name = ogonek;
pos = (267,10);
},
{
name = top;
pos = (267,605);
}
);
background = {
shapes = (
{
closed = 1;
nodes = (
(487,504,o),
(409,554,o),
(368,554,cs),
(358,554,o),
(345,552,o),
(344,540,cs),
(332,334,o),
(312,127,o),
(236,127,cs),
(202,127,o),
(184,162,o),
(184,227,cs),
(184,312,o),
(206,464,o),
(206,500,cs),
(206,536,o),
(128,579,o),
(79,579,cs),
(65,579,o),
(58,575,o),
(57,558,cs),
(46,455,o),
(33,323,o),
(33,221,cs),
(33,103,o),
(94,-14,o),
(236,-14,cs),
(433,-14,o),
(487,223,o),
(487,462,cs)
);
}
);
};
hints = (
{
horizontal = 1;
place = (-14,141);
type = Stem;
},
{
horizontal = 1;
place = (579,-20);
target = down;
type = TopGhost;
},
{
place = (33,151);
type = Stem;
},
{
place = (344,143);
type = Stem;
},
{
place = (33,173);
type = Stem;
}
);
layerId = "053302AA-4A2A-42DC-B919-9CC4D126D2B5";
shapes = (
{
closed = 1;
nodes = (
(487,504,o),
(413,554,o),
(372,554,cs),
(362,554,o),
(345,552,o),
(344,532,cs),
(332,334,o),
(312,121,o),
(236,121,cs),
(202,121,o),
(184,156,o),
(184,221,cs),
(184,310,o),
(205,481,o),
(205,496,cs),
(205,538,o),
(135,579,o),
(90,579,cs),
(70,579,o),
(58,575,o),
(55,545,cs),
(46,455,o),
(33,323,o),
(33,221,cs),
(33,103,o),
(94,-14,o),
(236,-14,cs),
(433,-14,o),
(487,223,o),
(487,435,cs)
);
}
);
width = 509;
}
);
note = u;
unicode = 117;
},
{
color = 4;
glyphname = v;
kernLeft = v;
kernRight = v;
lastChange = "2023-05-02 15:08:11 +0000";
layers = (
{
background = {
shapes = (
{
closed = 1;
nodes = (
(294,-15,o),
(300,-11,o),
(304,0,cs),
(468,455,ls),
(472,466,o),
(474,477,o),
(474,487,cs),
(474,561,o),
(419,588,o),
(389,588,cs),
(367,588,o),
(350,583,o),
(347,573,cs),
(316,463,o),
(278,296,o),
(241,189,c),
(237,189,l),
(186,498,ls),
(177,552,o),
(124,599,o),
(58,599,cs),
(24,599,o),
(24,581,o),
(27,562,cs),
(97,139,ls),
(106,84,o),
(130,49,o),
(182,25,c),
(205,-3,o),
(247,-15,o),
(281,-15,cs)
);
}
);
};
hints = (
{
horizontal = 1;
place = (-15,21);
target = up;
type = BottomGhost;
},
{
horizontal = 1;
place = (594,-20);
target = down;
type = TopGhost;
}
);
layerId = "053302AA-4A2A-42DC-B919-9CC4D126D2B5";
shapes = (
{
closed = 1;
nodes = (
(294,-15,o),
(300,-11,o),
(304,0,cs),
(458,428,ls),
(465,449,o),
(469,469,o),
(469,488,cs),
(469,546,o),
(435,588,o),
(389,588,cs),
(367,588,o),
(350,583,o),
(347,573,cs),
(316,463,o),
(278,296,o),
(241,189,c),
(237,189,l),
(189,479,ls),
(177,552,o),
(124,599,o),
(58,599,cs),
(33,599,o),
(26,589,o),
(26,573,cs),
(26,567,o),
(27,561,o),
(28,554,cs),
(97,139,ls),
(106,84,o),
(130,49,o),
(182,25,c),
(205,-3,o),
(247,-15,o),
(281,-15,cs)
);
}
);
width = 491;
}
);
note = v;
unicode = 118;
},
{
color = 4;
glyphname = w;
kernLeft = v;
kernRight = v;
lastChange = "2023-05-02 15:08:11 +0000";
layers = (
{
anchors = (
{
name = top;
pos = (407,605);
}
);
background = {
shapes = (
{
closed = 1;
nodes = (
(444,5,o),
(446,-7,o),
(458,-11,cs),
(505,-31,o),
(588,-35,o),
(628,60,cs),
(646,102,o),
(802,558,o),
(830,675,cs),
(831,685,o),
(818,693,o),
(811,697,cs),
(771,712,o),
(684,708,o),
(657,630,cs),
(632,545,o),
(498,132,o),
(447,10,cs)
);
}
);
};
hints = (
{
horizontal = 1;
place = (-13,21);
target = up;
type = BottomGhost;
},
{
horizontal = 1;
place = (-15,21);
target = up;
type = BottomGhost;
}
);
layerId = "053302AA-4A2A-42DC-B919-9CC4D126D2B5";
shapes = (
{
closed = 1;
nodes = (
(758,461,ls),
(763,475,o),
(766,488,o),
(766,500,cs),
(765,555,o),
(709,588,o),
(667,588,cs),
(653,588,o),
(641,584,o),
(637,576,c),
(605,457,o),
(577,335,o),
(535,216,c),
(531,216,l),
(500,476,ls),
(496,506,o),
(473,539,o),
(438,555,c),
(420,578,o),
(396,588,o),
(374,588,cs),
(357,588,o),
(342,585,o),
(340,576,cs),
(231,169,l),
(229,169,l),
(173,481,ls),
(162,543,o),
(91,593,o),
(47,593,cs),
(29,593,o),
(10,591,o),
(13,572,cs),
(86,125,ls),
(96,66,o),
(129,31,o),
(188,12,c),
(211,-4,o),
(243,-13,o),
(273,-13,cs),
(283,-13,o),
(289,-5,o),
(291,2,cs),
(388,326,l),
(391,326,l),
(412,145,ls),
(422,55,o),
(442,20,o),
(492,10,c),
(520,-10,o),
(552,-15,o),
(580,-15,cs),
(591,-15,o),
(598,-6,o),
(600,1,cs)
);
}
);
width = 783;
}
);
note = w;
unicode = 119;
},
{
color = 4;
glyphname = x;
kernRight = k;
lastChange = "2023-05-02 15:08:11 +0000";
layers = (
{
background = {
shapes = (
{
closed = 1;
nodes = (
(13,548,o),
(69,463,o),
(161,295,c),
(21,103,ls),
(12,91,o),
(10,81,o),
(10,73,cs),
(10,34,o),
(76,-29,o),
(103,-29,cs),
(107,-29,o),
(112,-28,o),
(123,-13,cs),
(247,154,l),
(312,77,ls),
(344,39,o),
(391,-1,o),
(430,-1,cs),
(442,-1,o),
(452,0,o),
(452,14,cs),
(452,21,o),
(451,33,o),
(441,53,cs),
(334,261,l),
(438,410,ls),
(451,428,o),
(454,442,o),
(454,455,cs),
(454,498,o),
(403,565,o),
(360,565,cs),
(355,565,o),
(349,564,o),
(340,551,cs),
(245,406,l),
(190,492,ls),
(151,554,o),
(100,583,o),
(53,583,cs),
(35,583,o),
(13,576,o),
(13,558,cs)
);
}
);
};
hints = (
{
horizontal = 1;
place = (-29,21);
target = up;
type = BottomGhost;
},
{
horizontal = 1;
place = (-1,21);
target = up;
type = BottomGhost;
},
{
horizontal = 1;
place = (583,-20);
target = down;
type = TopGhost;
}
);
layerId = "053302AA-4A2A-42DC-B919-9CC4D126D2B5";
shapes = (
{
closed = 1;
nodes = (
(205,550,o),
(158,573,o),
(119,573,cs),
(78,573,o),
(46,546,o),
(46,520,cs),
(46,514,o),
(47,509,o),
(50,504,cs),
(322,5,l),
(330,-12,o),
(335,-14,o),
(339,-14,cs),
(372,-19,o),
(432,26,o),
(432,97,cs),
(432,120,o),
(426,145,o),
(411,172,cs),
(243,481,ls)
);
},
{
closed = 1;
nodes = (
(18,81,ls),
(6,65,o),
(0,50,o),
(0,39,cs),
(0,16,o),
(21,3,o),
(49,3,cs),
(85,3,o),
(133,24,o),
(168,75,cs),
(280,235,l),
(216,342,l)
);
},
{
closed = 1;
nodes = (
(417,412,ls),
(454,464,o),
(467,503,o),
(467,531,cs),
(467,563,o),
(449,579,o),
(430,579,cs),
(417,579,o),
(405,573,o),
(395,560,cs),
(222,333,l),
(287,226,l)
);
}
);
width = 485;
}
);
note = x;
unicode = 120;
},
{
color = 4;
glyphname = y;
kernLeft = v;
kernRight = v;
lastChange = "2023-05-02 15:08:11 +0000";
layers = (
{
anchors = (
{
name = bottom;
pos = (383,-35);
},
{
name = top;
pos = (238,605);
}
);
hints = (
{
horizontal = 1;
place = (-190,21);
target = up;
type = BottomGhost;
},
{
horizontal = 1;
place = (593,-20);
target = down;
type = TopGhost;
}
);
layerId = "053302AA-4A2A-42DC-B919-9CC4D126D2B5";
shapes = (
{
closed = 1;
nodes = (
(473,487,o),
(473,493,o),
(473,499,cs),
(472,552,o),
(403,588,o),
(359,588,cs),
(339,588,o),
(328,585,o),
(326,576,cs),
(219,167,l),
(216,167,l),
(206,303,o),
(194,446,o),
(192,471,cs),
(187,537,o),
(103,593,o),
(57,593,cs),
(38,593,o),
(25,590,o),
(21,581,c),
(21,581,o),
(59,250,o),
(78,150,cs),
(88,99,o),
(116,46,o),
(160,21,c),
(130,-75,o),
(69,-111,o),
(54,-118,cs),
(47,-121,o),
(39,-124,o),
(39,-136,cs),
(39,-141,o),
(45,-190,o),
(129,-190,cs),
(213,-190,o),
(273,-79,o),
(320,49,cs),
(388,234,o),
(468,466,o),
(471,480,cs)
);
}
);
width = 474;
}
);
note = y;
unicode = 121;
},
{
color = 4;
glyphname = z;
kernLeft = z;
kernRight = z;
lastChange = "2023-05-02 15:08:11 +0000";
layers = (
{
anchors = (
{
name = bottom;
pos = (186,-35);
},
{
name = top;
pos = (231,605);
}
);
background = {
shapes = (
{
closed = 1;
nodes = (
(412,106,o),
(346,132,o),
(282,132,cs),
(232,132,o),
(191,114,o),
(155,104,c),
(146,65,l),
(414,463,ls),
(418,469,o),
(425,473,o),
(426,478,cs),
(433,531,o),
(358,580,o),
(294,580,cs),
(240,580,o),
(91,543,o),
(53,543,cs),
(44,543,o),
(31,539,o),
(31,527,cs),
(31,473,o),
(98,420,o),
(140,420,cs),
(189,420,o),
(247,442,o),
(320,482,c),
(273,497,l),
(33,142,ls),
(23,128,o),
(17,106,o),
(15,92,cs),
(6,26,o),
(109,-20,o),
(160,-20,cs),
(214,-20,o),
(352,37,o),
(391,47,cs),
(400,49,o),
(412,52,o),
(412,65,cs)
);
}
);
};
hints = (
{
horizontal = 1;
place = (-60,106);
type = Stem;
},
{
horizontal = 1;
place = (406,94);
type = Stem;
},
{
horizontal = 1;
place = (-13,59);
type = Stem;
}
);
layerId = "053302AA-4A2A-42DC-B919-9CC4D126D2B5";
shapes = (
{
closed = 1;
nodes = (
(412,106,o),
(346,132,o),
(282,132,cs),
(232,132,o),
(191,114,o),
(155,104,c),
(146,65,l),
(414,463,ls),
(418,469,o),
(425,473,o),
(426,478,cs),
(429,503,o),
(422,524,o),
(392,543,c),
(378,569,o),
(354,580,o),
(320,580,cs),
(266,580,o),
(91,543,o),
(53,543,cs),
(44,543,o),
(31,539,o),
(31,527,cs),
(31,473,o),
(98,420,o),
(140,420,cs),
(189,420,o),
(247,442,o),
(320,482,c),
(273,497,l),
(33,142,ls),
(23,128,o),
(17,106,o),
(15,92,cs),
(11,59,o),
(23,38,o),
(47,26,c),
(57,-3,o),
(86,-20,o),
(114,-20,cs),
(168,-20,o),
(352,37,o),
(391,47,cs),
(400,49,o),
(412,52,o),
(412,65,cs)
);
}
);
width = 437;
},
{
associatedMasterId = "053302AA-4A2A-42DC-B919-9CC4D126D2B5";
background = {
shapes = (
{
closed = 1;
nodes = (
(418,107,o),
(360,126,o),
(296,126,cs),
(261,126,o),
(223,120,o),
(192,113,c),
(417,459,ls),
(421,465,o),
(427,469,o),
(427,474,cs),
(427,527,o),
(340,580,o),
(276,580,cs),
(222,580,o),
(67,568,o),
(29,568,cs),
(20,568,o),
(9,564,o),
(9,552,cs),
(10,462,o),
(160,446,o),
(231,446,c),
(18,149,ls),
(8,135,o),
(7,113,o),
(7,99,cs),
(7,33,o),
(129,-20,o),
(180,-20,cs),
(234,-20,o),
(361,27,o),
(399,27,cs),
(408,27,o),
(418,32,o),
(418,45,cs)
);
}
);
};
hints = (
{
horizontal = 1;
place = (-20,146);
type = Stem;
},
{
horizontal = 1;
place = (446,134);
type = Stem;
},
{
horizontal = 1;
place = (27,99);
type = Stem;
}
);
layerId = "05AFDEE6-11BF-4EF9-8551-5F2996EEDBAA";
name = "Apr 7 20, 19:02";
shapes = (
{
closed = 1;
nodes = (
(418,107,o),
(360,126,o),
(296,126,cs),
(261,126,o),
(223,120,o),
(192,113,c),
(417,459,ls),
(421,465,o),
(427,469,o),
(427,474,cs),
(427,527,o),
(340,580,o),
(276,580,cs),
(222,580,o),
(67,568,o),
(29,568,cs),
(20,568,o),
(9,564,o),
(9,552,cs),
(10,462,o),
(160,446,o),
(231,446,c),
(18,149,ls),
(8,135,o),
(7,113,o),
(7,99,cs),
(7,33,o),
(129,-20,o),
(180,-20,cs),
(234,-20,o),
(361,27,o),
(399,27,cs),
(408,27,o),
(418,32,o),
(418,45,cs)
);
}
);
width = 437;
}
);
note = z;
unicode = 122;
},
{
color = 4;
glyphname = f_f;
lastChange = "2023-11-23 15:20:07 +0000";
layers = (
{
anchors = (
{
name = caret_1;
pos = (359,0);
}
);
hints = (
{
horizontal = 1;
place = (-14,21);
target = up;
type = BottomGhost;
},
{
horizontal = 1;
place = (353,120);
type = Stem;
},
{
horizontal = 1;
place = (600,128);
type = Stem;
},
{
place = (61,147);
type = Stem;
},
{
place = (294,119);
type = Stem;
},
{
place = (428,144);
type = Stem;
},
{
place = (653,119);
type = Stem;
},
{
horizontal = 1;
place = (639,128);
type = Stem;
}
);
layerId = "053302AA-4A2A-42DC-B919-9CC4D126D2B5";
shapes = (
{
closed = 1;
nodes = (
(191,767,o),
(105,688,o),
(80,463,cs),
(74,409,l),
(63,299,o),
(65,188,o),
(62,104,cs),
(59,15,o),
(133,-14,o),
(185,-14,cs),
(197,-14,o),
(202,-5,o),
(202,2,cs),
(208,161,o),
(210,284,o),
(218,378,c),
(230,502,ls),
(241,619,o),
(295,653,o),
(351,653,cs),
(407,653,o),
(459,608,o),
(509,608,cs),
(532,608,o),
(542,622,o),
(542,641,cs),
(542,699,o),
(477,767,o),
(342,767,cs)
);
},
{
closed = 1;
nodes = (
(166,362,o),
(495,407,o),
(539,407,cs),
(564,407,o),
(576,411,o),
(576,435,cs),
(576,467,o),
(496,519,o),
(456,519,cs),
(405,519,o),
(118,486,o),
(28,470,cs),
(11,467,o),
(6,459,o),
(6,443,cs),
(6,418,o),
(62,362,o),
(105,362,cs)
);
},
{
pos = (359,0);
ref = f;
}
);
width = 718;
}
);
metricLeft = f;
metricRight = f;
},
{
color = 4;
glyphname = fi;
kernRight = d;
lastChange = "2023-11-23 15:20:07 +0000";
layers = (
{
anchors = (
{
name = caret_1;
pos = (309.5,0);
}
);
background = {
anchors = (
{
name = bottom;
pos = (479,-35);
},
{
name = ogonek;
pos = (445,10);
},
{
name = top;
pos = (503,797);
}
);
shapes = (
{
closed = 1;
nodes = (
(74,409,cs),
(63,299,o),
(65,188,o),
(62,104,cs),
(59,15,o),
(133,-14,o),
(185,-14,cs),
(197,-14,o),
(202,-5,o),
(202,2,cs),
(208,161,o),
(210,284,o),
(218,378,cs),
(235,570,o),
(241,639,o),
(270,639,cs),
(293,639,o),
(315,608,o),
(389,608,cs),
(412,608,o),
(422,622,o),
(422,641,cs),
(422,692,o),
(361,767,o),
(261,767,cs),
(143,767,o),
(101,673,o)
);
},
{
closed = 1;
nodes = (
(165,393,o),
(279,414,o),
(323,414,cs),
(348,414,o),
(360,418,o),
(360,442,cs),
(360,474,o),
(280,526,o),
(240,526,cs),
(189,526,o),
(118,517,o),
(28,501,cs),
(11,498,o),
(6,490,o),
(6,474,cs),
(6,449,o),
(62,393,o),
(105,393,cs)
);
},
{
pos = (359,0);
ref = idotless;
},
{
pos = (503,0);
ref = dotaccentcomb;
}
);
};
hints = (
{
horizontal = 1;
place = (-14,21);
target = up;
type = BottomGhost;
},
{
horizontal = 1;
place = (355,118);
type = Stem;
},
{
horizontal = 1;
place = (639,128);
type = Stem;
},
{
place = (61,141);
type = Stem;
},
{
place = (294,119);
type = Stem;
},
{
horizontal = 1;
place = (-14,21);
target = up;
type = BottomGhost;
},
{
horizontal = 1;
place = (650,165);
type = Stem;
},
{
place = (419,141);
type = Stem;
},
{
place = (419,161);
type = Stem;
}
);
layerId = "053302AA-4A2A-42DC-B919-9CC4D126D2B5";
shapes = (
{
closed = 1;
nodes = (
(191,767,o),
(105,688,o),
(80,463,cs),
(74,409,l),
(63,299,o),
(65,188,o),
(62,104,cs),
(59,15,o),
(133,-14,o),
(185,-14,cs),
(197,-14,o),
(202,-5,o),
(202,2,cs),
(208,161,o),
(210,284,o),
(218,378,c),
(230,502,ls),
(241,619,o),
(295,653,o),
(351,653,cs),
(407,653,o),
(459,608,o),
(509,608,cs),
(532,608,o),
(542,622,o),
(542,641,cs),
(542,699,o),
(477,767,o),
(342,767,cs)
);
},
{
closed = 1;
nodes = (
(165,393,o),
(495,438,o),
(539,438,cs),
(564,438,o),
(576,442,o),
(576,466,cs),
(576,498,o),
(496,550,o),
(456,550,cs),
(405,550,o),
(118,517,o),
(28,501,cs),
(11,498,o),
(6,490,o),
(6,474,cs),
(6,449,o),
(62,393,o),
(105,393,cs)
);
},
{
pos = (359,0);
ref = idotless;
}
);
width = 619;
}
);
note = fi;
unicode = 64257;
},
{
color = 4;
glyphname = fl;
kernRight = d;
lastChange = "2023-11-23 15:20:07 +0000";
layers = (
{
anchors = (
{
name = caret_1;
pos = (312,0);
}
);
layerId = "053302AA-4A2A-42DC-B919-9CC4D126D2B5";
shapes = (
{
closed = 1;
nodes = (
(191,767,o),
(105,688,o),
(80,463,cs),
(74,409,l),
(63,299,o),
(65,188,o),
(62,104,cs),
(59,15,o),
(133,-14,o),
(185,-14,cs),
(197,-14,o),
(202,-5,o),
(202,2,cs),
(208,161,o),
(210,284,o),
(218,378,c),
(230,502,ls),
(241,619,o),
(295,653,o),
(351,653,cs),
(407,653,o),
(459,608,o),
(509,608,cs),
(532,608,o),
(542,622,o),
(542,641,cs),
(542,699,o),
(477,767,o),
(342,767,cs)
);
},
{
closed = 1;
nodes = (
(165,393,o),
(495,438,o),
(539,438,cs),
(544,438,o),
(556,442,o),
(556,466,cs),
(556,498,o),
(496,550,o),
(456,550,cs),
(405,550,o),
(118,517,o),
(28,501,cs),
(11,498,o),
(6,490,o),
(6,474,cs),
(6,449,o),
(62,393,o),
(105,393,cs)
);
},
{
pos = (374,0);
ref = l;
}
);
width = 624;
}
);
note = fl;
unicode = 64258;
},
{
color = 4;
glyphname = ordfeminine;
lastChange = "2023-05-02 15:15:06 +0000";
layers = (
{
background = {
shapes = (
{
closed = 1;
nodes = (
(216,412,l),
(187,389,o),
(161,383,o),
(138,383,c),
(143,423,o),
(171,444,o),
(198,444,cs),
(205,444,o),
(213,442,o),
(220,439,c)
);
},
{
closed = 1;
nodes = (
(185,693,o),
(96,670,o),
(47,610,c),
(62,581,o),
(95,549,o),
(135,549,c),
(166,577,o),
(185,589,o),
(222,606,c),
(226,591,o),
(228,575,o),
(228,558,cs),
(228,543,o),
(227,528,o),
(224,513,c),
(206,518,o),
(192,522,o),
(159,522,cs),
(80,522,o),
(29,451,o),
(29,384,cs),
(29,336,o),
(75,292,o),
(138,292,cs),
(176,292,o),
(190,303,o),
(223,331,c),
(239,309,o),
(273,293,o),
(301,293,c),
(342,395,o),
(344,519,o),
(344,612,c),
(324,649,o),
(289,683,o),
(231,693,c)
);
}
);
};
hints = (
{
horizontal = 1;
place = (292,91);
type = Stem;
},
{
horizontal = 1;
place = (444,78);
type = Stem;
},
{
horizontal = 1;
place = (693,-20);
target = down;
type = TopGhost;
},
{
place = (228,116);
type = Stem;
},
{
horizontal = 1;
place = (293,21);
target = up;
type = BottomGhost;
}
);
layerId = "053302AA-4A2A-42DC-B919-9CC4D126D2B5";
shapes = (
{
closed = 1;
nodes = (
(228,398,l),
(209,380,o),
(165,357,o),
(143,357,cs),
(134,357,o),
(130,360,o),
(130,369,cs),
(130,397,o),
(169,433,o),
(200,433,cs),
(210,433,o),
(221,429,o),
(229,421,c)
);
},
{
closed = 1;
nodes = (
(161,693,o),
(56,643,o),
(56,619,cs),
(56,597,o),
(105,561,o),
(134,561,cs),
(155,561,o),
(199,600,o),
(233,611,c),
(234,602,o),
(234,592,o),
(234,581,cs),
(234,554,o),
(232,523,o),
(228,497,c),
(206,508,o),
(189,509,o),
(167,509,cs),
(89,509,o),
(24,447,o),
(24,365,cs),
(24,306,o),
(83,269,o),
(136,269,cs),
(184,269,o),
(231,311,o),
(254,352,c),
(217,348,l),
(217,302,o),
(287,269,o),
(321,269,c),
(331,381,o),
(341,512,o),
(344,588,cs),
(347,643,o),
(269,693,o),
(227,693,cs)
);
}
);
width = 369;
}
);
note = ordfeminine;
unicode = 170;
},
{
color = 4;
glyphname = ordmasculine;
lastChange = "2023-05-02 15:15:06 +0000";
layers = (
{
background = {
shapes = (
{
closed = 1;
nodes = (
(228,398,l),
(209,380,o),
(163,356,o),
(142,357,cs),
(134,357,o),
(130,360,o),
(130,369,cs),
(130,397,o),
(169,433,o),
(200,433,cs),
(210,433,o),
(221,429,o),
(229,421,c)
);
},
{
closed = 1;
nodes = (
(161,693,o),
(56,643,o),
(56,619,cs),
(56,597,o),
(105,561,o),
(134,561,cs),
(155,561,o),
(199,600,o),
(233,611,c),
(236,578,o),
(233,533,o),
(228,497,c),
(206,508,o),
(189,509,o),
(167,509,cs),
(89,509,o),
(24,447,o),
(24,365,cs),
(24,306,o),
(83,269,o),
(136,269,cs),
(184,269,o),
(231,311,o),
(254,352,c),
(217,348,l),
(217,302,o),
(287,269,o),
(321,269,c),
(331,381,o),
(341,512,o),
(344,588,cs),
(347,643,o),
(269,693,o),
(227,693,cs)
);
}
);
};
hints = (
{
horizontal = 1;
place = (289,96);
type = Stem;
},
{
horizontal = 1;
place = (601,93);
type = Stem;
},
{
place = (26,110);
type = Stem;
},
{
place = (231,115);
type = Stem;
}
);
layerId = "053302AA-4A2A-42DC-B919-9CC4D126D2B5";
shapes = (
{
closed = 1;
nodes = (
(94,694,o),
(16,585,o),
(16,459,cs),
(16,339,o),
(93,267,o),
(175,267,cs),
(308,267,o),
(366,385,o),
(366,523,cs),
(366,620,o),
(269,694,o),
(183,694,cs)
);
},
{
closed = 1;
nodes = (
(138,346,o),
(127,380,o),
(127,423,cs),
(127,503,o),
(162,615,o),
(221,615,cs),
(243,615,o),
(254,581,o),
(254,538,cs),
(254,458,o),
(219,346,o),
(160,346,cs)
);
}
);
width = 383;
}
);
note = ordmasculine;
unicode = 186;
},
{
color = 4;
glyphname = zero;
lastChange = "2023-05-02 15:25:09 +0000";
layers = (
{
background = {
shapes = (
{
closed = 1;
nodes = (
(508,-15,o),
(571,287,o),
(571,457,cs),
(571,544,o),
(534,645,o),
(446,673,c),
(412,715,o),
(367,727,o),
(312,727,cs),
(127,727,o),
(64,425,o),
(64,255,cs),
(64,167,o),
(105,83,o),
(178,43,c),
(212,1,o),
(268,-15,o),
(323,-15,cs)
);
},
{
closed = 1;
nodes = (
(236,100,o),
(215,139,o),
(215,242,cs),
(215,392,o),
(270,612,o),
(363,612,cs),
(399,612,o),
(420,573,o),
(420,470,cs),
(420,320,o),
(365,100,o),
(272,100,cs)
);
}
);
};
guides = (
{
angle = 90;
pos = (255,309);
},
{
pos = (455,329);
}
);
hints = (
{
horizontal = 1;
place = (-14,121);
type = Stem;
},
{
horizontal = 1;
place = (462,121);
type = Stem;
},
{
place = (35,160);
type = Stem;
},
{
place = (388,167);
type = Stem;
}
);
layerId = "053302AA-4A2A-42DC-B919-9CC4D126D2B5";
shapes = (
{
closed = 1;
nodes = (
(523,-15,o),
(586,287,o),
(586,457,cs),
(586,544,o),
(549,645,o),
(446,673,c),
(412,715,o),
(367,727,o),
(312,727,cs),
(112,727,o),
(49,425,o),
(49,255,cs),
(49,167,o),
(90,83,o),
(163,43,c),
(197,1,o),
(253,-15,o),
(323,-15,cs)
);
},
{
closed = 1;
nodes = (
(212,92,o),
(191,132,o),
(191,238,cs),
(191,393,o),
(246,620,o),
(363,620,cs),
(423,620,o),
(444,580,o),
(444,474,cs),
(444,319,o),
(380,92,o),
(272,92,cs)
);
}
);
width = 635;
}
);
note = zero;
unicode = 48;
},
{
color = 4;
glyphname = one;
lastChange = "2023-05-02 15:25:09 +0000";
layers = (
{
background = {
shapes = (
{
closed = 1;
nodes = (
(168,661,o),
(114,593,o),
(27,541,cs),
(21,537,o),
(18,529,o),
(18,523,cs),
(18,482,o),
(55,458,o),
(94,458,cs),
(127,458,o),
(171,493,o),
(202,520,c),
(163,573,l),
(135,354,o),
(135,118,o),
(135,57,cs),
(135,8,o),
(216,-13,o),
(255,-13,cs),
(267,-13,o),
(275,-10,o),
(277,2,cs),
(303,208,o),
(314,609,o),
(314,625,cs),
(314,688,o),
(242,719,o),
(206,719,c)
);
}
);
};
hints = (
{
horizontal = 1;
place = (-13,21);
target = up;
type = BottomGhost;
},
{
horizontal = 1;
place = (610,-20);
target = down;
type = TopGhost;
}
);
layerId = "053302AA-4A2A-42DC-B919-9CC4D126D2B5";
shapes = (
{
closed = 1;
nodes = (
(168,661,o),
(114,593,o),
(27,541,cs),
(21,537,o),
(18,529,o),
(18,523,cs),
(18,482,o),
(55,458,o),
(94,458,cs),
(127,458,o),
(171,493,o),
(202,520,c),
(163,573,l),
(135,354,o),
(135,201,o),
(135,133,cs),
(135,8,o),
(216,-13,o),
(255,-13,cs),
(267,-13,o),
(277,-10,o),
(277,2,cs),
(279,207,o),
(310,537,o),
(310,625,cs),
(310,649,o),
(303,668,o),
(281,676,c),
(261,711,o),
(228,719,o),
(206,719,c)
);
}
);
width = 383;
}
);
note = one;
unicode = 49;
},
{
color = 4;
glyphname = two;
lastChange = "2023-05-02 15:25:09 +0000";
layers = (
{
background = {
shapes = (
{
closed = 1;
nodes = (
(176,117,l),
(337,240,o),
(477,432,o),
(477,536,cs),
(477,626,o),
(376,720,o),
(244,720,cs),
(128,720,o),
(10,591,o),
(9,496,cs),
(9,448,o),
(36,399,o),
(90,381,c),
(135,505,o),
(244,621,o),
(302,621,cs),
(328,621,o),
(339,609,o),
(339,585,cs),
(339,508,o),
(186,246,o),
(18,120,c),
(19,41,o),
(78,-17,o),
(198,-17,cs),
(252,-17,o),
(424,34,o),
(462,34,cs),
(471,34,o),
(481,39,o),
(481,52,cs),
(481,125,o),
(425,148,o),
(357,148,cs),
(297,148,o),
(227,130,o),
(176,115,c)
);
}
);
};
hints = (
{
horizontal = 1;
place = (-17,165);
type = Stem;
},
{
horizontal = 1;
place = (466,117);
type = Stem;
},
{
place = (317,160);
type = Stem;
},
{
horizontal = 1;
place = (34,114);
type = Stem;
}
);
layerId = "053302AA-4A2A-42DC-B919-9CC4D126D2B5";
shapes = (
{
closed = 1;
nodes = (
(176,117,l),
(337,240,o),
(477,432,o),
(477,536,cs),
(477,586,o),
(447,645,o),
(388,664,c),
(351,712,o),
(303,720,o),
(244,720,cs),
(128,720,o),
(10,591,o),
(9,496,cs),
(9,448,o),
(36,399,o),
(90,381,c),
(135,505,o),
(244,621,o),
(302,621,cs),
(328,621,o),
(339,609,o),
(339,585,cs),
(339,508,o),
(186,246,o),
(18,120,c),
(18,83,o),
(30,48,o),
(66,34,c),
(86,-3,o),
(135,-17,o),
(198,-17,cs),
(252,-17,o),
(424,34,o),
(462,34,cs),
(471,34,o),
(481,39,o),
(481,52,cs),
(481,125,o),
(425,148,o),
(357,148,cs),
(297,148,o),
(227,130,o),
(176,115,c)
);
}
);
width = 512;
}
);
note = two;
unicode = 50;
},
{
color = 4;
glyphname = three;
lastChange = "2023-05-02 15:25:09 +0000";
layers = (
{
annotations = (
{
pos = (220.448,364.353);
type = Text;
}
);
background = {
shapes = (
{
closed = 1;
nodes = (
(471,611,o),
(382,720,o),
(248,720,cs),
(118,720,o),
(37,647,o),
(37,580,cs),
(37,532,o),
(64,483,o),
(118,465,c),
(146,532,o),
(234,615,o),
(299,615,cs),
(342,615,o),
(356,592,o),
(356,561,cs),
(356,504,o),
(272,400,o),
(124,400,c),
(107,400,o),
(104,379,o),
(104,371,cs),
(104,334,o),
(153,291,o),
(181,274,cs),
(186,271,o),
(192,270,o),
(200,270,cs),
(253,270,o),
(309,291,o),
(355,324,c),
(259,287,l),
(318,300,o),
(334,269,o),
(334,249,cs),
(334,190,o),
(271,121,o),
(43,121,cs),
(31,121,o),
(28,109,o),
(28,99,cs),
(28,56,o),
(88,-29,o),
(152,-29,cs),
(373,-29,o),
(469,115,o),
(469,235,cs),
(469,308,o),
(424,365,o),
(328,386,c),
(369,344,l),
(433,400,o),
(471,462,o),
(471,540,cs)
);
}
);
};
hints = (
{
horizontal = 1;
place = (-155,150);
type = Stem;
},
{
horizontal = 1;
place = (144,130);
type = Stem;
},
{
horizontal = 1;
place = (472,122);
type = Stem;
},
{
place = (312,139);
type = Stem;
}
);
layerId = "053302AA-4A2A-42DC-B919-9CC4D126D2B5";
shapes = (
{
closed = 1;
nodes = (
(471,579,o),
(451,633,o),
(391,660,c),
(364,702,o),
(309,720,o),
(248,720,cs),
(118,720,o),
(37,647,o),
(37,580,cs),
(37,532,o),
(64,483,o),
(118,465,c),
(146,532,o),
(234,615,o),
(299,615,cs),
(342,615,o),
(356,592,o),
(356,561,cs),
(356,504,o),
(272,400,o),
(124,400,c),
(107,400,o),
(104,379,o),
(104,371,cs),
(104,334,o),
(153,291,o),
(181,274,cs),
(186,271,o),
(192,270,o),
(200,270,cs),
(253,270,o),
(309,291,o),
(355,324,c),
(259,287,l),
(269,289,o),
(277,290,o),
(285,290,cs),
(323,290,o),
(334,266,o),
(334,249,cs),
(334,190,o),
(271,121,o),
(43,121,cs),
(31,121,o),
(28,109,o),
(28,99,cs),
(28,56,o),
(88,-29,o),
(152,-29,cs),
(373,-29,o),
(469,115,o),
(469,235,cs),
(469,308,o),
(424,365,o),
(328,386,c),
(369,344,l),
(433,400,o),
(471,462,o),
(471,540,cs)
);
}
);
width = 505;
}
);
note = three;
unicode = 51;
},
{
color = 4;
glyphname = four;
lastChange = "2023-05-02 15:25:09 +0000";
layers = (
{
background = {
shapes = (
{
closed = 1;
nodes = (
(146,640,o),
(98,379,o),
(22,257,c),
(22,218,o),
(42,175,o),
(90,165,c),
(103,139,o),
(150,132,o),
(201,132,cs),
(222,132,o),
(273,141,o),
(331,152,c),
(328,109,o),
(323,71,o),
(323,53,cs),
(323,3,o),
(404,-13,o),
(443,-13,cs),
(455,-13,o),
(463,-10,o),
(465,2,cs),
(472,63,o),
(478,124,o),
(483,182,c),
(514,188,o),
(539,192,o),
(549,192,cs),
(558,192,o),
(568,197,o),
(568,210,cs),
(568,258,o),
(536,283,o),
(490,294,c),
(496,443,ls),
(499,506,o),
(426,537,o),
(379,537,cs),
(361,537,o),
(347,532,o),
(344,522,c),
(344,522,o),
(341,409,o),
(337,293,c),
(278,289,o),
(204,262,o),
(167,252,c),
(167,254,l),
(242,340,o),
(298,536,o),
(298,605,cs),
(298,674,o),
(228,717,o),
(181,717,cs),
(163,717,o),
(149,712,o),
(146,702,c)
);
}
);
};
hints = (
{
horizontal = 1;
place = (-13,21);
target = up;
type = BottomGhost;
},
{
horizontal = 1;
place = (717,-20);
target = down;
type = TopGhost;
},
{
place = (146,152);
type = Stem;
},
{
place = (337,231);
type = Stem;
},
{
place = (337,153);
type = Stem;
}
);
layerId = "053302AA-4A2A-42DC-B919-9CC4D126D2B5";
shapes = (
{
closed = 1;
nodes = (
(156,640,o),
(114,404,o),
(22,257,c),
(22,218,o),
(42,175,o),
(90,165,c),
(103,139,o),
(150,132,o),
(201,132,cs),
(222,132,o),
(273,141,o),
(331,152,c),
(328,105,o),
(324,88,o),
(324,66,cs),
(324,2,o),
(397,-13,o),
(435,-13,cs),
(447,-13,o),
(455,-10,o),
(457,2,cs),
(464,63,o),
(470,124,o),
(475,182,c),
(506,188,o),
(539,192,o),
(549,192,cs),
(558,192,o),
(568,197,o),
(568,210,cs),
(568,258,o),
(528,283,o),
(482,294,c),
(488,443,ls),
(491,506,o),
(433,537,o),
(386,537,cs),
(368,537,o),
(354,532,o),
(351,522,c),
(351,522,o),
(348,409,o),
(344,293,c),
(285,289,o),
(200,262,o),
(163,252,c),
(163,254,l),
(238,340,o),
(290,536,o),
(290,605,cs),
(290,674,o),
(238,717,o),
(191,717,cs),
(173,717,o),
(159,712,o),
(156,702,c)
);
}
);
width = 582;
}
);
note = four;
unicode = 52;
},
{
color = 4;
glyphname = five;
lastChange = "2023-05-02 15:25:09 +0000";
layers = (
{
background = {
shapes = (
{
closed = 1;
nodes = (
(322,307,l),
(322,193,o),
(236,132,o),
(24,132,c),
(16,128,o),
(13,120,o),
(13,110,cs),
(13,67,o),
(72,-18,o),
(136,-18,cs),
(386,-18,o),
(465,169,o),
(465,260,cs),
(465,410,o),
(271,440,o),
(196,440,c),
(196,569,l),
(249,577,o),
(412,611,o),
(450,611,cs),
(459,611,o),
(469,616,o),
(469,629,cs),
(469,699,o),
(401,720,o),
(320,720,cs),
(240,720,o),
(105,687,o),
(51,672,c),
(42,598,o),
(37,513,o),
(37,433,cs),
(37,366,o),
(96,307,o),
(216,307,cs)
);
}
);
};
hints = (
{
horizontal = 1;
place = (-155,150);
type = Stem;
},
{
horizontal = 1;
place = (170,133);
type = Stem;
},
{
horizontal = 1;
place = (474,109);
type = Stem;
},
{
place = (37,159);
type = Stem;
},
{
place = (322,143);
type = Stem;
}
);
layerId = "053302AA-4A2A-42DC-B919-9CC4D126D2B5";
shapes = (
{
closed = 1;
nodes = (
(322,307,l),
(322,193,o),
(236,132,o),
(24,132,c),
(16,128,o),
(13,120,o),
(13,110,cs),
(13,67,o),
(72,-18,o),
(136,-18,cs),
(386,-18,o),
(465,169,o),
(465,260,cs),
(465,315,o),
(441,360,o),
(396,377,c),
(344,434,o),
(243,440,o),
(196,440,c),
(196,569,l),
(249,577,o),
(412,611,o),
(450,611,cs),
(459,611,o),
(469,616,o),
(469,629,cs),
(469,699,o),
(401,720,o),
(320,720,cs),
(240,720,o),
(105,687,o),
(51,672,c),
(42,598,o),
(37,513,o),
(37,433,cs),
(37,395,o),
(53,358,o),
(100,344,c),
(120,316,o),
(164,307,o),
(216,307,cs)
);
}
);
width = 499;
}
);
note = five;
unicode = 53;
},
{
color = 4;
glyphname = six;
lastChange = "2023-05-02 15:25:09 +0000";
layers = (
{
background = {
hints = (
{
horizontal = 1;
place = (-15,127);
type = Stem;
},
{
horizontal = 1;
place = (459,124);
type = Stem;
},
{
place = (27,150);
type = Stem;
},
{
place = (348,147);
type = Stem;
}
);
shapes = (
{
closed = 1;
nodes = (
(179,-15,o),
(278,-15,cs),
(402,-15,o),
(516,108,o),
(516,275,cs),
(516,374,o),
(431,475,o),
(325,475,cs),
(252,475,o),
(191,421,o),
(148,348,c),
(205,385,l),
(248,529,o),
(376,603,o),
(514,625,c),
(519,629,o),
(522,635,o),
(522,643,cs),
(522,678,o),
(455,733,o),
(403,733,cs),
(214,733,o),
(49,489,o),
(49,283,cs),
(49,68,o)
);
},
{
closed = 1;
nodes = (
(388,348,o),
(388,315,cs),
(388,212,o),
(314,84,o),
(254,84,cs),
(220,84,o),
(195,129,o),
(198,253,c),
(214,301,o),
(282,374,o),
(336,374,cs),
(373,374,o)
);
}
);
};
hints = (
{
horizontal = 1;
place = (-13,103);
type = Stem;
},
{
horizontal = 1;
place = (606,137);
type = Stem;
},
{
place = (35,158);
type = Stem;
},
{
place = (358,162);
type = Stem;
}
);
layerId = "053302AA-4A2A-42DC-B919-9CC4D126D2B5";
shapes = (
{
closed = 1;
nodes = (
(91,66,o),
(162,31,c),
(190,-4,o),
(241,-15,o),
(278,-15,cs),
(402,-15,o),
(516,108,o),
(516,275,cs),
(516,334,o),
(492,387,o),
(446,411,c),
(426,455,o),
(368,475,o),
(325,475,cs),
(252,475,o),
(191,421,o),
(148,348,c),
(205,385,l),
(248,529,o),
(376,603,o),
(514,625,c),
(519,629,o),
(522,635,o),
(522,643,cs),
(522,678,o),
(455,733,o),
(403,733,cs),
(214,733,o),
(49,489,o),
(49,283,cs),
(49,148,o)
);
},
{
closed = 1;
nodes = (
(283,367,o),
(342,367,cs),
(356,367,o),
(370,364,o),
(382,358,c),
(392,204,o),
(314,84,o),
(254,84,cs),
(220,84,o),
(195,129,o),
(198,253,c),
(218,315,o)
);
}
);
width = 574;
}
);
note = six;
unicode = 54;
},
{
color = 4;
glyphname = seven;
lastChange = "2023-05-02 15:25:09 +0000";
layers = (
{
background = {
shapes = (
{
closed = 1;
nodes = (
(54,96,o),
(48,85,o),
(48,76,cs),
(48,36,o),
(107,-17,o),
(166,-17,cs),
(340,-17,o),
(458,513,o),
(458,611,cs),
(458,646,o),
(451,666,o),
(418,685,c),
(404,716,o),
(359,720,o),
(309,720,cs),
(255,720,o),
(74,708,o),
(36,708,cs),
(27,708,o),
(15,704,o),
(15,692,cs),
(15,546,o),
(198,532,o),
(387,610,c),
(346,637,l),
(291,398,o),
(224,255,o),
(61,102,cs)
);
}
);
};
hints = (
{
horizontal = 1;
place = (-166,21);
target = up;
type = BottomGhost;
},
{
horizontal = 1;
place = (415,156);
type = Stem;
},
{
horizontal = 1;
place = (415,144);
type = Stem;
}
);
layerId = "053302AA-4A2A-42DC-B919-9CC4D126D2B5";
shapes = (
{
closed = 1;
nodes = (
(67,86,o),
(61,76,o),
(61,67,cs),
(61,27,o),
(107,-17,o),
(166,-17,cs),
(340,-17,o),
(458,513,o),
(458,611,cs),
(458,646,o),
(451,666,o),
(418,685,c),
(404,716,o),
(359,720,o),
(309,720,cs),
(255,720,o),
(74,708,o),
(36,708,cs),
(27,708,o),
(15,704,o),
(15,692,cs),
(15,603,o),
(83,563,o),
(179,563,cs),
(240,563,o),
(313,580,o),
(387,610,c),
(346,637,l),
(291,398,o),
(231,253,o),
(74,93,cs)
);
}
);
width = 489;
}
);
note = seven;
unicode = 55;
},
{
color = 4;
glyphname = eight;
lastChange = "2023-05-02 15:25:09 +0000";
layers = (
{
background = {
shapes = (
{
closed = 1;
nodes = (
(83,342,o),
(27,242,o),
(34,157,cs),
(39,80,o),
(147,-15,o),
(268,-15,cs),
(444,-15,o),
(527,157,o),
(522,222,cs),
(517,301,o),
(464,355,o),
(361,391,c),
(396,346,l),
(489,422,o),
(537,491,o),
(531,575,cs),
(526,646,o),
(427,730,o),
(305,730,cs),
(159,730,o),
(86,620,o),
(93,521,cs),
(99,441,o),
(134,405,o),
(200,360,c),
(215,391,l)
);
},
{
closed = 1;
nodes = (
(216,414,o),
(252,642,o),
(347,642,cs),
(428,642,o),
(372,414,o),
(282,414,cs)
);
},
{
closed = 1;
nodes = (
(206,309,o),
(317,309,cs),
(416,309,o),
(346,79,o),
(230,79,cs),
(143,79,o)
);
}
);
};
hints = (
{
horizontal = 1;
place = (10,122);
type = Stem;
},
{
horizontal = 1;
place = (668,110);
type = Stem;
},
{
place = (49,185);
type = Stem;
},
{
place = (379,194);
type = Stem;
},
{
place = (81,192);
type = Stem;
},
{
place = (379,174);
type = Stem;
}
);
layerId = "053302AA-4A2A-42DC-B919-9CC4D126D2B5";
shapes = (
{
closed = 1;
nodes = (
(83,342,o),
(27,242,o),
(34,157,cs),
(37,110,o),
(70,58,o),
(142,29,c),
(170,-4,o),
(220,-15,o),
(268,-15,cs),
(444,-15,o),
(527,157,o),
(522,222,cs),
(517,301,o),
(464,355,o),
(361,391,c),
(396,346,l),
(489,422,o),
(537,491,o),
(531,575,cs),
(528,613,o),
(502,657,o),
(448,679,c),
(418,716,o),
(362,730,o),
(305,730,cs),
(159,730,o),
(86,620,o),
(93,521,cs),
(99,441,o),
(134,405,o),
(200,360,c),
(215,391,l)
);
},
{
closed = 1;
nodes = (
(261,414,o),
(248,448,o),
(248,487,cs),
(248,555,o),
(286,641,o),
(381,641,c),
(385,626,o),
(387,610,o),
(387,593,cs),
(387,520,o),
(351,432,o),
(282,406,c)
);
},
{
closed = 1;
nodes = (
(190,111,o),
(190,143,cs),
(190,199,o),
(228,272,o),
(317,314,c),
(351,314,o),
(366,289,o),
(366,255,cs),
(366,190,o),
(310,91,o),
(224,73,c),
(202,85,o)
);
}
);
width = 570;
}
);
note = eight;
unicode = 56;
},
{
color = 4;
glyphname = nine;
lastChange = "2023-05-02 15:25:09 +0000";
layers = (
{
background = {
shapes = (
{
closed = 1;
nodes = (
(541,492,o),
(466,597,o),
(336,597,cs),
(140,597,o),
(56,456,o),
(56,280,cs),
(56,179,o),
(135,113,o),
(230,113,cs),
(267,113,o),
(307,123,o),
(345,145,c),
(345,143,l),
(280,31,o),
(170,-22,o),
(45,-22,c),
(38,-26,o),
(34,-32,o),
(34,-42,cs),
(34,-81,o),
(91,-159,o),
(152,-159,cs),
(379,-159,o),
(541,140,o),
(541,363,cs)
);
},
{
closed = 1;
nodes = (
(376,471,o),
(383,439,o),
(383,406,cs),
(383,315,o),
(331,211,o),
(233,211,c),
(222,235,o),
(218,261,o),
(218,288,cs),
(218,389,o),
(286,494,o),
(362,494,c)
);
}
);
};
hints = (
{
horizontal = 1;
place = (-159,137);
type = Stem;
},
{
horizontal = 1;
place = (494,103);
type = Stem;
},
{
place = (40,162);
type = Stem;
},
{
place = (367,158);
type = Stem;
}
);
layerId = "053302AA-4A2A-42DC-B919-9CC4D126D2B5";
shapes = (
{
angle = 180;
pos = (574,714);
ref = six;
}
);
width = 574;
}
);
metricLeft = "=|six";
metricRight = "=|six";
note = nine;
unicode = 57;
},
{
glyphname = zero.osf;
lastChange = "2023-04-27 14:21:07 +0000";
layers = (
{
background = {
shapes = (
{
closed = 1;
nodes = (
(471,-15,o),
(555,148,o),
(555,343,cs),
(555,479,o),
(413,583,o),
(286,583,cs),
(153,583,o),
(37,430,o),
(37,253,cs),
(37,84,o),
(152,-15,o),
(275,-15,cs)
);
},
{
closed = 1;
nodes = (
(197,81,o),
(175,128,o),
(175,189,cs),
(175,301,o),
(249,483,o),
(344,483,cs),
(391,483,o),
(413,436,o),
(413,375,cs),
(413,263,o),
(339,81,o),
(244,81,cs)
);
}
);
};
guides = (
{
angle = 90;
pos = (255,309);
},
{
pos = (455,329);
}
);
hints = (
{
horizontal = 1;
place = (-14,121);
type = Stem;
},
{
horizontal = 1;
place = (462,121);
type = Stem;
},
{
place = (35,160);
type = Stem;
},
{
place = (388,167);
type = Stem;
}
);
layerId = "053302AA-4A2A-42DC-B919-9CC4D126D2B5";
shapes = (
{
closed = 1;
nodes = (
(555,473,o),
(413,583,o),
(286,583,cs),
(153,583,o),
(37,424,o),
(37,239,cs),
(37,95,o),
(179,-15,o),
(306,-15,cs),
(439,-15,o),
(555,144,o),
(555,329,cs)
);
},
{
closed = 1;
nodes = (
(175,301,o),
(249,483,o),
(344,483,cs),
(391,483,o),
(413,436,o),
(413,375,cs),
(413,265,o),
(340,85,o),
(247,85,cs),
(201,85,o),
(175,128,o),
(175,189,cs)
);
}
);
width = 585;
}
);
note = zero;
},
{
glyphname = one.osf;
lastChange = "2023-04-27 14:21:07 +0000";
layers = (
{
background = {
shapes = (
{
closed = 1;
nodes = (
(165,556,o),
(98,495,o),
(29,462,cs),
(23,459,o),
(20,450,o),
(20,444,cs),
(20,403,o),
(57,379,o),
(96,379,cs),
(115,379,o),
(135,383,o),
(155,391,c),
(136,216,o),
(135,111,o),
(135,57,cs),
(135,8,o),
(216,-13,o),
(255,-13,cs),
(267,-13,o),
(275,-10,o),
(277,2,cs),
(303,208,o),
(315,500,o),
(315,516,cs),
(315,579,o),
(243,610,o),
(207,610,c)
);
}
);
};
hints = (
{
horizontal = 1;
place = (-13,21);
target = up;
type = BottomGhost;
},
{
horizontal = 1;
place = (610,-20);
target = down;
type = TopGhost;
}
);
layerId = "053302AA-4A2A-42DC-B919-9CC4D126D2B5";
shapes = (
{
closed = 1;
nodes = (
(169,552,o),
(115,484,o),
(28,432,cs),
(22,428,o),
(19,420,o),
(19,414,cs),
(19,373,o),
(56,349,o),
(95,349,cs),
(128,349,o),
(172,384,o),
(203,411,c),
(164,464,l),
(136,245,o),
(135,118,o),
(135,57,cs),
(135,8,o),
(216,-13,o),
(255,-13,cs),
(267,-13,o),
(275,-10,o),
(277,2,cs),
(303,208,o),
(315,500,o),
(315,516,cs),
(315,579,o),
(243,610,o),
(207,610,c)
);
}
);
width = 363;
}
);
note = one;
},
{
glyphname = two.osf;
lastChange = "2023-04-27 14:21:07 +0000";
layers = (
{
background = {
shapes = (
{
closed = 1;
nodes = (
(201,117,l),
(352,214,o),
(477,350,o),
(477,431,cs),
(477,510,o),
(366,592,o),
(258,592,cs),
(150,592,o),
(29,537,o),
(28,452,cs),
(28,404,o),
(55,355,o),
(109,337,c),
(140,394,o),
(211,496,o),
(283,496,cs),
(310,496,o),
(330,489,o),
(330,460,cs),
(330,383,o),
(126,217,o),
(29,108,c),
(29,41,o),
(88,-17,o),
(208,-17,cs),
(262,-17,o),
(449,34,o),
(487,34,cs),
(496,34,o),
(506,39,o),
(506,52,cs),
(506,125,o),
(450,148,o),
(382,148,cs),
(322,148,o),
(252,130,o),
(201,115,c)
);
}
);
};
hints = (
{
horizontal = 1;
place = (-17,165);
type = Stem;
},
{
horizontal = 1;
place = (466,117);
type = Stem;
},
{
place = (317,160);
type = Stem;
},
{
horizontal = 1;
place = (34,114);
type = Stem;
}
);
layerId = "053302AA-4A2A-42DC-B919-9CC4D126D2B5";
shapes = (
{
closed = 1;
nodes = (
(201,117,l),
(352,214,o),
(477,350,o),
(477,431,cs),
(477,510,o),
(366,592,o),
(258,592,cs),
(150,592,o),
(29,537,o),
(28,452,cs),
(28,404,o),
(55,355,o),
(109,337,c),
(140,394,o),
(211,496,o),
(283,496,cs),
(310,496,o),
(330,489,o),
(330,460,cs),
(330,383,o),
(164,201,o),
(28,120,c),
(29,41,o),
(88,-17,o),
(208,-17,cs),
(262,-17,o),
(449,34,o),
(487,34,cs),
(496,34,o),
(506,39,o),
(506,52,cs),
(506,125,o),
(450,148,o),
(382,148,cs),
(322,148,o),
(252,130,o),
(201,115,c)
);
}
);
width = 524;
}
);
note = two;
},
{
glyphname = three.osf;
lastChange = "2023-04-27 14:21:07 +0000";
layers = (
{
annotations = (
{
pos = (220.448,364.353);
type = Text;
}
);
background = {
shapes = (
{
closed = 1;
nodes = (
(453,512,o),
(380,594,o),
(257,594,cs),
(100,594,o),
(19,521,o),
(19,454,cs),
(19,406,o),
(46,357,o),
(100,339,c),
(128,406,o),
(185,472,o),
(246,472,cs),
(287,472,o),
(312,441,o),
(312,404,cs),
(312,347,o),
(254,274,o),
(106,274,c),
(94,268,o),
(86,253,o),
(86,245,cs),
(86,208,o),
(135,165,o),
(163,148,cs),
(168,145,o),
(174,144,o),
(182,144,cs),
(221,144,o),
(261,155,o),
(298,174,c),
(309,160,o),
(316,142,o),
(316,123,cs),
(316,64,o),
(253,-5,o),
(25,-5,cs),
(13,-5,o),
(10,-17,o),
(10,-27,cs),
(10,-70,o),
(70,-155,o),
(134,-155,cs),
(355,-155,o),
(451,-11,o),
(451,109,cs),
(451,166,o),
(429,218,o),
(389,247,c),
(428,293,o),
(453,351,o),
(453,414,cs)
);
}
);
};
hints = (
{
horizontal = 1;
place = (-155,150);
type = Stem;
},
{
horizontal = 1;
place = (144,130);
type = Stem;
},
{
horizontal = 1;
place = (472,122);
type = Stem;
},
{
place = (312,139);
type = Stem;
}
);
layerId = "053302AA-4A2A-42DC-B919-9CC4D126D2B5";
shapes = (
{
closed = 1;
nodes = (
(453,485,o),
(364,594,o),
(230,594,cs),
(100,594,o),
(19,521,o),
(19,454,cs),
(19,406,o),
(46,357,o),
(100,339,c),
(128,406,o),
(202,480,o),
(267,480,cs),
(310,480,o),
(329,453,o),
(329,422,cs),
(329,365,o),
(254,274,o),
(106,274,c),
(89,274,o),
(86,253,o),
(86,245,cs),
(86,208,o),
(135,165,o),
(163,148,cs),
(168,145,o),
(174,144,o),
(182,144,cs),
(235,144,o),
(291,165,o),
(337,198,c),
(265,198,l),
(293,188,o),
(316,157,o),
(316,123,cs),
(316,64,o),
(253,-5,o),
(25,-5,cs),
(13,-5,o),
(10,-17,o),
(10,-27,cs),
(10,-70,o),
(70,-155,o),
(134,-155,cs),
(355,-155,o),
(451,-11,o),
(451,109,cs),
(451,182,o),
(415,247,o),
(351,266,c),
(351,218,l),
(415,274,o),
(453,336,o),
(453,414,cs)
);
}
);
width = 475;
}
);
note = three;
},
{
glyphname = four.osf;
lastChange = "2023-04-27 14:21:07 +0000";
layers = (
{
hints = (
{
horizontal = 1;
place = (-13,21);
target = up;
type = BottomGhost;
},
{
horizontal = 1;
place = (717,-20);
target = down;
type = TopGhost;
},
{
place = (146,152);
type = Stem;
},
{
place = (337,231);
type = Stem;
},
{
place = (337,153);
type = Stem;
}
);
layerId = "053302AA-4A2A-42DC-B919-9CC4D126D2B5";
shapes = (
{
closed = 1;
nodes = (
(146,640,o),
(98,379,o),
(22,257,c),
(22,190,o),
(81,132,o),
(201,132,cs),
(222,132,o),
(273,141,o),
(331,152,c),
(328,109,o),
(323,71,o),
(323,53,cs),
(323,3,o),
(404,-13,o),
(443,-13,cs),
(455,-13,o),
(463,-10,o),
(465,2,cs),
(472,63,o),
(478,124,o),
(483,182,c),
(514,188,o),
(539,192,o),
(549,192,cs),
(558,192,o),
(568,197,o),
(568,210,cs),
(568,258,o),
(536,283,o),
(490,294,c),
(496,443,ls),
(499,506,o),
(426,537,o),
(379,537,cs),
(361,537,o),
(347,532,o),
(344,522,c),
(344,522,o),
(341,409,o),
(337,293,c),
(278,289,o),
(204,262,o),
(167,252,c),
(167,254,l),
(242,340,o),
(298,536,o),
(298,605,cs),
(298,674,o),
(228,717,o),
(181,717,cs),
(163,717,o),
(149,712,o),
(146,702,c)
);
}
);
width = 582;
}
);
note = four;
},
{
glyphname = five.osf;
lastChange = "2023-04-27 14:21:07 +0000";
layers = (
{
hints = (
{
horizontal = 1;
place = (-155,150);
type = Stem;
},
{
horizontal = 1;
place = (170,133);
type = Stem;
},
{
horizontal = 1;
place = (474,109);
type = Stem;
},
{
place = (37,159);
type = Stem;
},
{
place = (322,143);
type = Stem;
}
);
layerId = "053302AA-4A2A-42DC-B919-9CC4D126D2B5";
shapes = (
{
closed = 1;
nodes = (
(322,170,l),
(322,56,o),
(236,-5,o),
(24,-5,c),
(16,-9,o),
(13,-17,o),
(13,-27,cs),
(13,-70,o),
(72,-155,o),
(136,-155,cs),
(386,-155,o),
(465,32,o),
(465,123,cs),
(465,273,o),
(271,303,o),
(196,303,c),
(196,432,l),
(249,440,o),
(412,474,o),
(450,474,cs),
(459,474,o),
(469,479,o),
(469,492,cs),
(469,562,o),
(401,583,o),
(320,583,cs),
(240,583,o),
(105,550,o),
(51,535,c),
(42,461,o),
(37,376,o),
(37,296,cs),
(37,229,o),
(96,170,o),
(216,170,cs)
);
}
);
width = 495;
}
);
note = five;
},
{
glyphname = six.osf;
lastChange = "2023-04-27 14:21:07 +0000";
layers = (
{
background = {
shapes = (
{
closed = 1;
nodes = (
(35,89,o),
(130,-13,o),
(259,-13,cs),
(430,-13,o),
(508,148,o),
(508,262,cs),
(508,365,o),
(432,464,o),
(298,464,cs),
(246,464,o),
(175,426,o),
(121,367,c),
(209,397,l),
(269,539,o),
(391,618,o),
(531,618,c),
(538,622,o),
(542,628,o),
(542,638,cs),
(542,677,o),
(485,743,o),
(424,743,cs),
(208,743,o),
(35,461,o),
(35,216,cs)
);
},
{
closed = 1;
nodes = (
(379,335,o),
(379,288,cs),
(379,202,o),
(291,80,o),
(229,80,cs),
(194,80,o),
(158,135,o),
(164,227,c),
(196,302,o),
(265,369,o),
(326,369,cs),
(362,368,o)
);
}
);
};
hints = (
{
horizontal = 1;
place = (-13,103);
type = Stem;
},
{
horizontal = 1;
place = (606,137);
type = Stem;
},
{
place = (35,158);
type = Stem;
},
{
place = (358,162);
type = Stem;
}
);
layerId = "053302AA-4A2A-42DC-B919-9CC4D126D2B5";
shapes = (
{
closed = 1;
nodes = (
(35,89,o),
(130,-13,o),
(259,-13,cs),
(430,-13,o),
(508,148,o),
(508,262,cs),
(508,362,o),
(428,464,o),
(298,464,cs),
(246,464,o),
(175,426,o),
(121,367,c),
(209,397,l),
(269,539,o),
(391,618,o),
(531,618,c),
(538,622,o),
(542,628,o),
(542,638,cs),
(542,677,o),
(485,743,o),
(424,743,cs),
(208,743,o),
(35,461,o),
(35,216,cs)
);
},
{
closed = 1;
nodes = (
(375,339,o),
(375,300,cs),
(375,217,o),
(310,89,o),
(233,89,cs),
(198,89,o),
(158,135,o),
(164,227,c),
(196,302,o),
(265,369,o),
(326,369,cs),
(360,368,o)
);
}
);
width = 562;
}
);
note = six;
},
{
glyphname = seven.osf;
lastChange = "2023-04-27 14:21:07 +0000";
layers = (
{
background = {
shapes = (
{
closed = 1;
nodes = (
(44,-32,o),
(41,-38,o),
(41,-47,cs),
(41,-87,o),
(97,-166,o),
(156,-166,cs),
(330,-166,o),
(448,364,o),
(448,462,cs),
(448,515,o),
(404,571,o),
(330,571,cs),
(276,571,o),
(64,559,o),
(26,559,cs),
(17,559,o),
(5,555,o),
(5,543,cs),
(5,453,o),
(85,415,o),
(159,415,cs),
(221,415,o),
(263,414,o),
(324,437,c),
(269,222,o),
(189,70,o),
(51,-27,cs)
);
}
);
};
hints = (
{
horizontal = 1;
place = (-166,21);
target = up;
type = BottomGhost;
},
{
horizontal = 1;
place = (415,156);
type = Stem;
},
{
horizontal = 1;
place = (415,144);
type = Stem;
}
);
layerId = "053302AA-4A2A-42DC-B919-9CC4D126D2B5";
shapes = (
{
closed = 1;
nodes = (
(44,-53,o),
(38,-64,o),
(38,-73,cs),
(38,-113,o),
(97,-166,o),
(156,-166,cs),
(330,-166,o),
(448,364,o),
(448,462,cs),
(448,515,o),
(404,571,o),
(330,571,cs),
(276,571,o),
(64,559,o),
(26,559,cs),
(17,559,o),
(5,555,o),
(5,543,cs),
(5,454,o),
(73,414,o),
(169,414,cs),
(230,414,o),
(303,431,o),
(377,461,c),
(336,488,l),
(281,249,o),
(214,106,o),
(51,-47,cs)
);
}
);
width = 469;
}
);
note = seven;
},
{
glyphname = eight.osf;
lastChange = "2023-04-27 14:21:07 +0000";
layers = (
{
background = {
shapes = (
{
closed = 1;
nodes = (
(77,342,o),
(21,242,o),
(28,157,cs),
(33,80,o),
(141,-15,o),
(262,-15,cs),
(438,-15,o),
(521,157,o),
(516,222,cs),
(511,301,o),
(458,355,o),
(355,391,c),
(390,346,l),
(483,422,o),
(531,491,o),
(525,575,cs),
(520,646,o),
(421,730,o),
(299,730,cs),
(153,730,o),
(80,620,o),
(87,521,cs),
(93,441,o),
(154,400,o),
(208,363,c),
(209,391,l)
);
},
{
closed = 1;
nodes = (
(209,408,o),
(249,652,o),
(344,652,cs),
(425,652,o),
(365,408,o),
(275,408,cs)
);
},
{
closed = 1;
nodes = (
(205,314,o),
(316,314,cs),
(415,314,o),
(333,72,o),
(217,72,cs),
(130,72,o)
);
}
);
};
hints = (
{
horizontal = 1;
place = (10,122);
type = Stem;
},
{
horizontal = 1;
place = (668,110);
type = Stem;
},
{
place = (49,185);
type = Stem;
},
{
place = (379,194);
type = Stem;
},
{
place = (81,192);
type = Stem;
},
{
place = (379,174);
type = Stem;
}
);
layerId = "053302AA-4A2A-42DC-B919-9CC4D126D2B5";
shapes = (
{
closed = 1;
nodes = (
(77,342,o),
(21,242,o),
(28,157,cs),
(33,80,o),
(141,-15,o),
(262,-15,cs),
(438,-15,o),
(521,157,o),
(516,222,cs),
(511,301,o),
(458,355,o),
(355,391,c),
(390,346,l),
(483,422,o),
(531,491,o),
(525,575,cs),
(520,646,o),
(421,730,o),
(299,730,cs),
(159,730,o),
(87,629,o),
(87,534,cs),
(87,445,o),
(151,402,o),
(208,363,c),
(209,391,l)
);
},
{
closed = 1;
nodes = (
(253,414,o),
(242,442,o),
(242,478,cs),
(242,545,o),
(279,642,o),
(341,642,cs),
(368,642,o),
(380,616,o),
(380,581,cs),
(380,514,o),
(336,414,o),
(276,414,cs)
);
},
{
closed = 1;
nodes = (
(183,103,o),
(183,136,cs),
(183,205,o),
(236,309,o),
(311,309,cs),
(344,309,o),
(358,283,o),
(358,249,cs),
(358,181,o),
(301,79,o),
(224,79,cs),
(196,79,o)
);
}
);
width = 558;
}
);
note = eight;
},
